G04 #@! TF.GenerationSoftware,KiCad,Pcbnew,(5.0.2)-1*
G04 #@! TF.CreationDate,2019-07-28T22:14:27+08:00*
G04 #@! TF.ProjectId,NRF24M,4e524632-344d-42e6-9b69-6361645f7063,rev?*
G04 #@! TF.SameCoordinates,Original*
G04 #@! TF.FileFunction,Paste,Top*
G04 #@! TF.FilePolarity,Positive*
%FSLAX46Y46*%
G04 Gerber Fmt 4.6, Leading zero omitted, Abs format (unit mm)*
G04 Created by KiCad (PCBNEW (5.0.2)-1) date 2019-07-28 22:14:27*
%MOMM*%
%LPD*%
G01*
G04 APERTURE LIST*
%ADD10O,0.850000X2.000000*%
%ADD11O,0.800000X0.200000*%
%ADD12O,0.200000X0.800000*%
%ADD13R,0.930000X0.980000*%
%ADD14R,1.150000X0.650000*%
%ADD15R,0.600000X0.650000*%
G04 APERTURE END LIST*
D10*
G04 #@! TO.C,J2*
X83820000Y-61112400D03*
X82550000Y-61112400D03*
X81280000Y-61112400D03*
X80010000Y-61112400D03*
X78740000Y-61112400D03*
X77470000Y-61112400D03*
X76200000Y-61112400D03*
X74930000Y-61112400D03*
G04 #@! TD*
D11*
G04 #@! TO.C,U1*
X81655200Y-54390300D03*
X81655200Y-54840300D03*
X81655200Y-55290300D03*
X81655200Y-55740300D03*
X81655200Y-56190300D03*
X81655200Y-56640300D03*
X81655200Y-57090300D03*
D12*
X81055200Y-57690300D03*
X80605200Y-57690300D03*
X80155200Y-57690300D03*
X79705200Y-57690300D03*
X79255200Y-57690300D03*
X78805200Y-57690300D03*
X78355200Y-57690300D03*
D11*
X77755200Y-57090300D03*
X77755200Y-56640300D03*
X77755200Y-56190300D03*
X77755200Y-55740300D03*
X77755200Y-55290300D03*
X77755200Y-54840300D03*
X77755200Y-54390300D03*
D12*
X78355200Y-53790300D03*
X78805200Y-53790300D03*
X79255200Y-53790300D03*
X79705200Y-53790300D03*
X80155200Y-53790300D03*
X80605200Y-53790300D03*
X81055200Y-53790300D03*
G04 #@! TD*
D13*
G04 #@! TO.C,C4*
X79649700Y-49860200D03*
X78109700Y-49860200D03*
G04 #@! TD*
D14*
G04 #@! TO.C,VR1*
X84406000Y-51546800D03*
X84406000Y-49646800D03*
X81456000Y-50596800D03*
G04 #@! TD*
D15*
G04 #@! TO.C,C2*
X74287400Y-58474320D03*
X75137400Y-58474320D03*
G04 #@! TD*
G04 #@! TO.C,R1*
X75151800Y-57111900D03*
X74301800Y-57111900D03*
G04 #@! TD*
G04 #@! TO.C,R2*
X76676700Y-51219100D03*
X77526700Y-51219100D03*
G04 #@! TD*
D13*
G04 #@! TO.C,D1*
X76335000Y-49860200D03*
X74795000Y-49860200D03*
G04 #@! TD*
D15*
G04 #@! TO.C,R3*
X75139100Y-51650900D03*
X74289100Y-51650900D03*
G04 #@! TD*
G04 #@! TO.C,R4*
X74301800Y-55753000D03*
X75151800Y-55753000D03*
G04 #@! TD*
G04 #@! TO.C,R5*
X75139100Y-54394100D03*
X74289100Y-54394100D03*
G04 #@! TD*
G04 #@! TO.C,C3*
X75151800Y-53035200D03*
X74301800Y-53035200D03*
G04 #@! TD*
G04 #@! TO.C,C5*
X79800000Y-51206400D03*
X78950000Y-51206400D03*
G04 #@! TD*
G04 #@! TO.C,C6*
X84054500Y-58864500D03*
X83204500Y-58864500D03*
G04 #@! TD*
M02*
