M48
;DRILL file {KiCad (5.0.2)-1} date 2019-07-28 22:14:29
;FORMAT={-:-/ absolute / inch / decimal}
FMAT,2
INCH,TZ
T1C0.0118
T2C0.0157
T3C0.0256
%
G90
G05
T1
X2.9083Y-2.4256
X2.9115Y-1.9636
X2.92Y-2.3346
X2.99Y-2.2328
X2.9903Y-2.17
X3.0027Y-2.3524
X3.0089Y-2.1203
X3.011Y-2.276
X3.0202Y-2.049
X3.0256Y-2.2401
X3.0399Y-2.0736
X3.0469Y-2.3549
X3.0603Y-2.276
X3.0743Y-2.0465
X3.0815Y-2.3516
X3.088Y-2.0756
X3.0986Y-2.214
X3.1476Y-2.2303
X3.1555Y-2.148
X3.1645Y-2.1953
X3.1788Y-2.0623
X3.1973Y-2.313
X3.2225Y-2.2941
X3.2606Y-2.2852
X3.261Y-2.197
X3.2674Y-2.1483
X3.307Y-2.188
X3.3095Y-2.0975
X3.3205Y-1.9873
T2
X3.2551Y-2.353
X3.3019Y-2.3491
T3
X3.411Y-1.857
X3.411Y-1.907
X3.411Y-1.957
X3.411Y-2.007
X3.411Y-2.057
X3.411Y-2.107
X3.411Y-2.157
X3.411Y-2.207
X3.411Y-2.257
X3.411Y-2.307
X3.411Y-2.357
X3.411Y-2.407
T0
M30
