G04 #@! TF.GenerationSoftware,KiCad,Pcbnew,(5.0.2)-1*
G04 #@! TF.CreationDate,2019-07-28T22:14:27+08:00*
G04 #@! TF.ProjectId,NRF24M,4e524632-344d-42e6-9b69-6361645f7063,rev?*
G04 #@! TF.SameCoordinates,Original*
G04 #@! TF.FileFunction,Legend,Bot*
G04 #@! TF.FilePolarity,Positive*
%FSLAX46Y46*%
G04 Gerber Fmt 4.6, Leading zero omitted, Abs format (unit mm)*
G04 Created by KiCad (PCBNEW (5.0.2)-1) date 2019-07-28 22:14:27*
%MOMM*%
%LPD*%
G01*
G04 APERTURE LIST*
%ADD10C,0.300000*%
%ADD11C,0.100000*%
%ADD12C,0.150000*%
G04 APERTURE END LIST*
D10*
X85976040Y-46262325D02*
X85880801Y-46357563D01*
X85976040Y-46452801D01*
X86071278Y-46357563D01*
X85976040Y-46262325D01*
X85976040Y-46452801D01*
D11*
X84761428Y-47010000D02*
X85361428Y-47210000D01*
X84761428Y-47410000D01*
X84800000Y-48617142D02*
X84771428Y-48560000D01*
X84771428Y-48474285D01*
X84800000Y-48388571D01*
X84857142Y-48331428D01*
X84914285Y-48302857D01*
X85028571Y-48274285D01*
X85114285Y-48274285D01*
X85228571Y-48302857D01*
X85285714Y-48331428D01*
X85342857Y-48388571D01*
X85371428Y-48474285D01*
X85371428Y-48531428D01*
X85342857Y-48617142D01*
X85314285Y-48645714D01*
X85114285Y-48645714D01*
X85114285Y-48531428D01*
X84781428Y-49490000D02*
X84781428Y-49890000D01*
X85381428Y-49632857D01*
X84781428Y-52402857D02*
X84781428Y-52117142D01*
X85067142Y-52088571D01*
X85038571Y-52117142D01*
X85010000Y-52174285D01*
X85010000Y-52317142D01*
X85038571Y-52374285D01*
X85067142Y-52402857D01*
X85124285Y-52431428D01*
X85267142Y-52431428D01*
X85324285Y-52402857D01*
X85352857Y-52374285D01*
X85381428Y-52317142D01*
X85381428Y-52174285D01*
X85352857Y-52117142D01*
X85324285Y-52088571D01*
X84771428Y-51114285D02*
X84771428Y-51000000D01*
X84800000Y-50942857D01*
X84828571Y-50914285D01*
X84914285Y-50857142D01*
X85028571Y-50828571D01*
X85257142Y-50828571D01*
X85314285Y-50857142D01*
X85342857Y-50885714D01*
X85371428Y-50942857D01*
X85371428Y-51057142D01*
X85342857Y-51114285D01*
X85314285Y-51142857D01*
X85257142Y-51171428D01*
X85114285Y-51171428D01*
X85057142Y-51142857D01*
X85028571Y-51114285D01*
X85000000Y-51057142D01*
X85000000Y-50942857D01*
X85028571Y-50885714D01*
X85057142Y-50857142D01*
X85114285Y-50828571D01*
X85001428Y-53524285D02*
X85401428Y-53524285D01*
X84772857Y-53381428D02*
X85201428Y-53238571D01*
X85201428Y-53610000D01*
X84781428Y-54630000D02*
X84781428Y-55001428D01*
X85010000Y-54801428D01*
X85010000Y-54887142D01*
X85038571Y-54944285D01*
X85067142Y-54972857D01*
X85124285Y-55001428D01*
X85267142Y-55001428D01*
X85324285Y-54972857D01*
X85352857Y-54944285D01*
X85381428Y-54887142D01*
X85381428Y-54715714D01*
X85352857Y-54658571D01*
X85324285Y-54630000D01*
X84848571Y-55898571D02*
X84820000Y-55927142D01*
X84791428Y-55984285D01*
X84791428Y-56127142D01*
X84820000Y-56184285D01*
X84848571Y-56212857D01*
X84905714Y-56241428D01*
X84962857Y-56241428D01*
X85048571Y-56212857D01*
X85391428Y-55870000D01*
X85391428Y-56241428D01*
X85270000Y-56951428D02*
X85270000Y-57237142D01*
X85441428Y-56894285D02*
X84841428Y-57094285D01*
X85441428Y-57294285D01*
X84841428Y-57780000D02*
X84841428Y-57494285D01*
X85127142Y-57465714D01*
X85098571Y-57494285D01*
X85070000Y-57551428D01*
X85070000Y-57694285D01*
X85098571Y-57751428D01*
X85127142Y-57780000D01*
X85184285Y-57808571D01*
X85327142Y-57808571D01*
X85384285Y-57780000D01*
X85412857Y-57751428D01*
X85441428Y-57694285D01*
X85441428Y-57551428D01*
X85412857Y-57494285D01*
X85384285Y-57465714D01*
X85210000Y-58151428D02*
X85210000Y-58437142D01*
X85381428Y-58094285D02*
X84781428Y-58294285D01*
X85381428Y-58494285D01*
X84981428Y-58951428D02*
X85381428Y-58951428D01*
X84752857Y-58808571D02*
X85181428Y-58665714D01*
X85181428Y-59037142D01*
X85230000Y-59371428D02*
X85230000Y-59657142D01*
X85401428Y-59314285D02*
X84801428Y-59514285D01*
X85401428Y-59714285D01*
X84801428Y-59857142D02*
X84801428Y-60228571D01*
X85030000Y-60028571D01*
X85030000Y-60114285D01*
X85058571Y-60171428D01*
X85087142Y-60200000D01*
X85144285Y-60228571D01*
X85287142Y-60228571D01*
X85344285Y-60200000D01*
X85372857Y-60171428D01*
X85401428Y-60114285D01*
X85401428Y-59942857D01*
X85372857Y-59885714D01*
X85344285Y-59857142D01*
X85220000Y-60671428D02*
X85220000Y-60957142D01*
X85391428Y-60614285D02*
X84791428Y-60814285D01*
X85391428Y-61014285D01*
X84848571Y-61185714D02*
X84820000Y-61214285D01*
X84791428Y-61271428D01*
X84791428Y-61414285D01*
X84820000Y-61471428D01*
X84848571Y-61500000D01*
X84905714Y-61528571D01*
X84962857Y-61528571D01*
X85048571Y-61500000D01*
X85391428Y-61157142D01*
X85391428Y-61528571D01*
D10*
X83860000Y-59574285D02*
X83764761Y-59669523D01*
X83860000Y-59764761D01*
X83955238Y-59669523D01*
X83860000Y-59574285D01*
X83860000Y-59764761D01*
G04 #@! TO.C,U2*
D12*
X84009952Y-51750861D02*
X83867095Y-51798480D01*
X83629000Y-51798480D01*
X83533761Y-51750861D01*
X83486142Y-51703242D01*
X83438523Y-51608004D01*
X83438523Y-51512766D01*
X83486142Y-51417528D01*
X83533761Y-51369909D01*
X83629000Y-51322290D01*
X83819476Y-51274671D01*
X83914714Y-51227052D01*
X83962333Y-51179433D01*
X84009952Y-51084195D01*
X84009952Y-50988957D01*
X83962333Y-50893719D01*
X83914714Y-50846100D01*
X83819476Y-50798480D01*
X83581380Y-50798480D01*
X83438523Y-50846100D01*
X83009952Y-51798480D02*
X83009952Y-50798480D01*
X82581380Y-50893719D02*
X82533761Y-50846100D01*
X82438523Y-50798480D01*
X82200428Y-50798480D01*
X82105190Y-50846100D01*
X82057571Y-50893719D01*
X82009952Y-50988957D01*
X82009952Y-51084195D01*
X82057571Y-51227052D01*
X82629000Y-51798480D01*
X82009952Y-51798480D01*
X81152809Y-51131814D02*
X81152809Y-51798480D01*
X81390904Y-50750861D02*
X81629000Y-51465147D01*
X81009952Y-51465147D01*
X80057571Y-51798480D02*
X80390904Y-51322290D01*
X80629000Y-51798480D02*
X80629000Y-50798480D01*
X80248047Y-50798480D01*
X80152809Y-50846100D01*
X80105190Y-50893719D01*
X80057571Y-50988957D01*
X80057571Y-51131814D01*
X80105190Y-51227052D01*
X80152809Y-51274671D01*
X80248047Y-51322290D01*
X80629000Y-51322290D01*
X79105190Y-51798480D02*
X79676619Y-51798480D01*
X79390904Y-51798480D02*
X79390904Y-50798480D01*
X79486142Y-50941338D01*
X79581380Y-51036576D01*
X79676619Y-51084195D01*
X78914714Y-51893719D02*
X78152809Y-51893719D01*
X77962333Y-51750861D02*
X77819476Y-51798480D01*
X77581380Y-51798480D01*
X77486142Y-51750861D01*
X77438523Y-51703242D01*
X77390904Y-51608004D01*
X77390904Y-51512766D01*
X77438523Y-51417528D01*
X77486142Y-51369909D01*
X77581380Y-51322290D01*
X77771857Y-51274671D01*
X77867095Y-51227052D01*
X77914714Y-51179433D01*
X77962333Y-51084195D01*
X77962333Y-50988957D01*
X77914714Y-50893719D01*
X77867095Y-50846100D01*
X77771857Y-50798480D01*
X77533761Y-50798480D01*
X77390904Y-50846100D01*
X76962333Y-51798480D02*
X76962333Y-50798480D01*
X76629000Y-51512766D01*
X76295666Y-50798480D01*
X76295666Y-51798480D01*
X75819476Y-51798480D02*
X75819476Y-50798480D01*
X75581380Y-50798480D01*
X75438523Y-50846100D01*
X75343285Y-50941338D01*
X75295666Y-51036576D01*
X75248047Y-51227052D01*
X75248047Y-51369909D01*
X75295666Y-51560385D01*
X75343285Y-51655623D01*
X75438523Y-51750861D01*
X75581380Y-51798480D01*
X75819476Y-51798480D01*
G04 #@! TD*
M02*
