G04 #@! TF.GenerationSoftware,KiCad,Pcbnew,(5.0.2)-1*
G04 #@! TF.CreationDate,2019-07-28T22:14:27+08:00*
G04 #@! TF.ProjectId,NRF24M,4e524632-344d-42e6-9b69-6361645f7063,rev?*
G04 #@! TF.SameCoordinates,Original*
G04 #@! TF.FileFunction,Copper,L1,Top*
G04 #@! TF.FilePolarity,Positive*
%FSLAX46Y46*%
G04 Gerber Fmt 4.6, Leading zero omitted, Abs format (unit mm)*
G04 Created by KiCad (PCBNEW (5.0.2)-1) date 2019-07-28 22:14:27*
%MOMM*%
%LPD*%
G01*
G04 APERTURE LIST*
G04 #@! TA.AperFunction,SMDPad,CuDef*
%ADD10O,0.850000X2.000000*%
G04 #@! TD*
G04 #@! TA.AperFunction,SMDPad,CuDef*
%ADD11O,0.800000X0.200000*%
G04 #@! TD*
G04 #@! TA.AperFunction,SMDPad,CuDef*
%ADD12O,0.200000X0.800000*%
G04 #@! TD*
G04 #@! TA.AperFunction,SMDPad,CuDef*
%ADD13R,0.930000X0.980000*%
G04 #@! TD*
G04 #@! TA.AperFunction,SMDPad,CuDef*
%ADD14R,1.150000X0.650000*%
G04 #@! TD*
G04 #@! TA.AperFunction,ComponentPad*
%ADD15O,2.000000X0.850000*%
G04 #@! TD*
G04 #@! TA.AperFunction,SMDPad,CuDef*
%ADD16R,0.600000X0.650000*%
G04 #@! TD*
G04 #@! TA.AperFunction,ViaPad*
%ADD17C,0.600000*%
G04 #@! TD*
G04 #@! TA.AperFunction,ViaPad*
%ADD18C,0.800000*%
G04 #@! TD*
G04 #@! TA.AperFunction,Conductor*
%ADD19C,0.250000*%
G04 #@! TD*
G04 #@! TA.AperFunction,Conductor*
%ADD20C,0.200000*%
G04 #@! TD*
G04 #@! TA.AperFunction,Conductor*
%ADD21C,0.160000*%
G04 #@! TD*
G04 #@! TA.AperFunction,Conductor*
%ADD22C,0.600000*%
G04 #@! TD*
G04 #@! TA.AperFunction,Conductor*
%ADD23C,0.400000*%
G04 #@! TD*
G04 APERTURE END LIST*
D10*
G04 #@! TO.P,J2,1*
G04 #@! TO.N,+3V3*
X83820000Y-61112400D03*
G04 #@! TO.P,J2,2*
G04 #@! TO.N,GND*
X82550000Y-61112400D03*
G04 #@! TO.P,J2,3*
G04 #@! TO.N,RXD*
X81280000Y-61112400D03*
G04 #@! TO.P,J2,4*
G04 #@! TO.N,TXD*
X80010000Y-61112400D03*
G04 #@! TO.P,J2,5*
G04 #@! TO.N,SCK*
X78740000Y-61112400D03*
G04 #@! TO.P,J2,6*
G04 #@! TO.N,MOSI*
X77470000Y-61112400D03*
G04 #@! TO.P,J2,7*
G04 #@! TO.N,MISO*
X76200000Y-61112400D03*
G04 #@! TO.P,J2,8*
G04 #@! TO.N,RST*
X74930000Y-61112400D03*
G04 #@! TD*
D11*
G04 #@! TO.P,U1,28*
G04 #@! TO.N,D2*
X81655200Y-54390300D03*
G04 #@! TO.P,U1,27*
G04 #@! TO.N,TXD*
X81655200Y-54840300D03*
G04 #@! TO.P,U1,26*
G04 #@! TO.N,RXD*
X81655200Y-55290300D03*
G04 #@! TO.P,U1,25*
G04 #@! TO.N,RST*
X81655200Y-55740300D03*
G04 #@! TO.P,U1,24*
G04 #@! TO.N,SCL*
X81655200Y-56190300D03*
G04 #@! TO.P,U1,23*
G04 #@! TO.N,SDA*
X81655200Y-56640300D03*
G04 #@! TO.P,U1,22*
G04 #@! TO.N,A3*
X81655200Y-57090300D03*
D12*
G04 #@! TO.P,U1,21*
G04 #@! TO.N,A2*
X81055200Y-57690300D03*
G04 #@! TO.P,U1,20*
G04 #@! TO.N,A1*
X80605200Y-57690300D03*
G04 #@! TO.P,U1,19*
G04 #@! TO.N,A0*
X80155200Y-57690300D03*
G04 #@! TO.P,U1,18*
G04 #@! TO.N,GND*
X79705200Y-57690300D03*
G04 #@! TO.P,U1,17*
G04 #@! TO.N,Net-(C2-Pad1)*
X79255200Y-57690300D03*
G04 #@! TO.P,U1,16*
G04 #@! TO.N,+3V3*
X78805200Y-57690300D03*
G04 #@! TO.P,U1,15*
G04 #@! TO.N,SCK*
X78355200Y-57690300D03*
D11*
G04 #@! TO.P,U1,14*
G04 #@! TO.N,MISO*
X77755200Y-57090300D03*
G04 #@! TO.P,U1,13*
G04 #@! TO.N,MOSI*
X77755200Y-56640300D03*
G04 #@! TO.P,U1,12*
G04 #@! TO.N,D10*
X77755200Y-56190300D03*
G04 #@! TO.P,U1,11*
G04 #@! TO.N,D9*
X77755200Y-55740300D03*
G04 #@! TO.P,U1,10*
G04 #@! TO.N,D8*
X77755200Y-55290300D03*
G04 #@! TO.P,U1,9*
G04 #@! TO.N,D7*
X77755200Y-54840300D03*
G04 #@! TO.P,U1,8*
G04 #@! TO.N,D6*
X77755200Y-54390300D03*
D12*
G04 #@! TO.P,U1,7*
G04 #@! TO.N,D5*
X78355200Y-53790300D03*
G04 #@! TO.P,U1,6*
G04 #@! TO.N,XT2*
X78805200Y-53790300D03*
G04 #@! TO.P,U1,5*
G04 #@! TO.N,XT1*
X79255200Y-53790300D03*
G04 #@! TO.P,U1,4*
G04 #@! TO.N,GND*
X79705200Y-53790300D03*
G04 #@! TO.P,U1,3*
G04 #@! TO.N,+3V3*
X80155200Y-53790300D03*
G04 #@! TO.P,U1,2*
G04 #@! TO.N,D4*
X80605200Y-53790300D03*
G04 #@! TO.P,U1,1*
G04 #@! TO.N,D3*
X81055200Y-53790300D03*
G04 #@! TD*
D13*
G04 #@! TO.P,C4,1*
G04 #@! TO.N,VCC*
X79649700Y-49860200D03*
G04 #@! TO.P,C4,2*
G04 #@! TO.N,GND*
X78109700Y-49860200D03*
G04 #@! TD*
D14*
G04 #@! TO.P,VR1,1*
G04 #@! TO.N,GND*
X84406000Y-51546800D03*
G04 #@! TO.P,VR1,2*
G04 #@! TO.N,+3V3*
X84406000Y-49646800D03*
G04 #@! TO.P,VR1,3*
G04 #@! TO.N,VCC*
X81456000Y-50596800D03*
G04 #@! TD*
D15*
G04 #@! TO.P,J1,12*
G04 #@! TO.N,A2*
X86639400Y-61137800D03*
G04 #@! TO.P,J1,11*
G04 #@! TO.N,A3*
X86639400Y-59867800D03*
G04 #@! TO.P,J1,10*
G04 #@! TO.N,SDA*
X86639400Y-58597800D03*
G04 #@! TO.P,J1,9*
G04 #@! TO.N,SCL*
X86639400Y-57327800D03*
G04 #@! TO.P,J1,8*
G04 #@! TO.N,D2*
X86639400Y-56057800D03*
G04 #@! TO.P,J1,7*
G04 #@! TO.N,D3*
X86639400Y-54787800D03*
G04 #@! TO.P,J1,6*
G04 #@! TO.N,D4*
X86639400Y-53517800D03*
G04 #@! TO.P,J1,5*
G04 #@! TO.N,D5*
X86639400Y-52247800D03*
G04 #@! TO.P,J1,4*
G04 #@! TO.N,D6*
X86639400Y-50977800D03*
G04 #@! TO.P,J1,3*
G04 #@! TO.N,D7*
X86639400Y-49707800D03*
G04 #@! TO.P,J1,2*
G04 #@! TO.N,GND*
X86639400Y-48437800D03*
G04 #@! TO.P,J1,1*
G04 #@! TO.N,VCC*
X86639400Y-47167800D03*
G04 #@! TD*
D16*
G04 #@! TO.P,C2,2*
G04 #@! TO.N,GND*
X74287400Y-58474320D03*
G04 #@! TO.P,C2,1*
G04 #@! TO.N,Net-(C2-Pad1)*
X75137400Y-58474320D03*
G04 #@! TD*
G04 #@! TO.P,R1,1*
G04 #@! TO.N,D10*
X75151800Y-57111900D03*
G04 #@! TO.P,R1,2*
G04 #@! TO.N,+3V3*
X74301800Y-57111900D03*
G04 #@! TD*
G04 #@! TO.P,R2,2*
G04 #@! TO.N,+3V3*
X76676700Y-51219100D03*
G04 #@! TO.P,R2,1*
G04 #@! TO.N,D2*
X77526700Y-51219100D03*
G04 #@! TD*
D13*
G04 #@! TO.P,D1,A*
G04 #@! TO.N,Net-(D1-PadA)*
X76335000Y-49860200D03*
G04 #@! TO.P,D1,K*
G04 #@! TO.N,GND*
X74795000Y-49860200D03*
G04 #@! TD*
D16*
G04 #@! TO.P,R3,1*
G04 #@! TO.N,D8*
X75139100Y-51650900D03*
G04 #@! TO.P,R3,2*
G04 #@! TO.N,Net-(D1-PadA)*
X74289100Y-51650900D03*
G04 #@! TD*
G04 #@! TO.P,R4,2*
G04 #@! TO.N,+3V3*
X74301800Y-55753000D03*
G04 #@! TO.P,R4,1*
G04 #@! TO.N,A1*
X75151800Y-55753000D03*
G04 #@! TD*
G04 #@! TO.P,R5,1*
G04 #@! TO.N,A1*
X75139100Y-54394100D03*
G04 #@! TO.P,R5,2*
G04 #@! TO.N,GND*
X74289100Y-54394100D03*
G04 #@! TD*
G04 #@! TO.P,C3,1*
G04 #@! TO.N,A1*
X75151800Y-53035200D03*
G04 #@! TO.P,C3,2*
G04 #@! TO.N,GND*
X74301800Y-53035200D03*
G04 #@! TD*
G04 #@! TO.P,C5,1*
G04 #@! TO.N,+3V3*
X79800000Y-51206400D03*
G04 #@! TO.P,C5,2*
G04 #@! TO.N,GND*
X78950000Y-51206400D03*
G04 #@! TD*
G04 #@! TO.P,C6,1*
G04 #@! TO.N,+3V3*
X84054500Y-58864500D03*
G04 #@! TO.P,C6,2*
G04 #@! TO.N,GND*
X83204500Y-58864500D03*
G04 #@! TD*
D17*
G04 #@! TO.N,GND*
X73951320Y-49875440D03*
X84340700Y-50477870D03*
X79949610Y-56650353D03*
D18*
X82680617Y-59765497D03*
G04 #@! TO.N,+3V3*
X83867280Y-59667417D03*
D17*
X80149700Y-54559200D03*
X76426460Y-53854499D03*
X80741098Y-52382290D03*
G04 #@! TO.N,D5*
X78433946Y-52720176D03*
G04 #@! TO.N,D6*
X78086800Y-51981860D03*
G04 #@! TO.N,D7*
X76712565Y-52044112D03*
G04 #@! TO.N,D9*
X78704020Y-56236360D03*
G04 #@! TO.N,D10*
X75945580Y-56713880D03*
G04 #@! TO.N,MOSI*
X77390840Y-59815220D03*
X76849820Y-56899300D03*
G04 #@! TO.N,MISO*
X76268160Y-59751720D03*
X76478439Y-57809699D03*
G04 #@! TO.N,SCK*
X78269680Y-59729747D03*
X77731200Y-57809708D03*
G04 #@! TO.N,A1*
X75953200Y-55118760D03*
X80377880Y-55761380D03*
G04 #@! TO.N,RST*
X81210761Y-58750729D03*
X82829400Y-55803800D03*
G04 #@! TO.N,RXD*
X82820282Y-58045058D03*
X83997800Y-55575210D03*
G04 #@! TO.N,TXD*
X81850462Y-58270310D03*
X82991529Y-54567588D03*
G04 #@! TO.N,D2*
X84061300Y-53276500D03*
X77212605Y-52668595D03*
X74167580Y-59299600D03*
G04 #@! TO.N,IRQ*
X73870010Y-61611000D03*
G04 #@! TD*
D19*
G04 #@! TO.N,GND*
X74289100Y-53047900D02*
X74301800Y-53035200D01*
X74289100Y-54394100D02*
X74289100Y-53657500D01*
X74289100Y-53657500D02*
X74289100Y-53047900D01*
D20*
X84406000Y-50543170D02*
X84340700Y-50477870D01*
X84406000Y-51546800D02*
X84406000Y-50543170D01*
D21*
X79857600Y-56616600D02*
X79857600Y-56616600D01*
X79705200Y-57690300D02*
X79705200Y-56894763D01*
X79705200Y-56894763D02*
X79949610Y-56650353D01*
D19*
X82654500Y-59439500D02*
X82654500Y-59739380D01*
X83204500Y-58864500D02*
X83204500Y-58889500D01*
D20*
X82550000Y-61112400D02*
X82550000Y-59896114D01*
D19*
X82654500Y-59739380D02*
X82680617Y-59765497D01*
D20*
X82550000Y-59896114D02*
X82680617Y-59765497D01*
D19*
X83204500Y-58889500D02*
X82654500Y-59439500D01*
D20*
X78950000Y-51206400D02*
X78950000Y-50675100D01*
X78950000Y-50675100D02*
X78109700Y-49834800D01*
X79705200Y-53790300D02*
X79705200Y-52161618D01*
X78950000Y-51406418D02*
X78950000Y-51206400D01*
X79705200Y-52161618D02*
X78950000Y-51406418D01*
X73972760Y-49860200D02*
X74795000Y-49860200D01*
X73689099Y-50143861D02*
X73972760Y-49860200D01*
X73727959Y-54394100D02*
X73689099Y-54432960D01*
X74289100Y-54394100D02*
X73727959Y-54394100D01*
X73689099Y-54432960D02*
X73689099Y-50143861D01*
X73689099Y-58267399D02*
X73689099Y-54432960D01*
X74287400Y-58474320D02*
X73896020Y-58474320D01*
X73896020Y-58474320D02*
X73689099Y-58267399D01*
X74276400Y-58470800D02*
X74498238Y-58692638D01*
X78109700Y-49175200D02*
X78109700Y-49860200D01*
X77972849Y-49038349D02*
X78109700Y-49175200D01*
X74952091Y-49038349D02*
X77972849Y-49038349D01*
X74795000Y-49860200D02*
X74795000Y-49195440D01*
X74795000Y-49195440D02*
X74952091Y-49038349D01*
D19*
G04 #@! TO.N,+3V3*
X84054500Y-58864500D02*
X84054500Y-59480197D01*
X84054500Y-59480197D02*
X83867280Y-59667417D01*
D20*
X74301800Y-57111900D02*
X74301800Y-55753000D01*
X80149700Y-54559200D02*
X80149700Y-54295800D01*
X80155200Y-54290300D02*
X80149700Y-54559200D01*
X80155200Y-53790300D02*
X80155200Y-54290300D01*
X80149700Y-54295800D02*
X80149700Y-54559200D01*
X83820000Y-59714697D02*
X83867280Y-59667417D01*
X83820000Y-61112400D02*
X83820000Y-59714697D01*
X80155200Y-52336700D02*
X80155200Y-51561600D01*
X80155200Y-53790300D02*
X80155200Y-52336700D01*
X80155200Y-51561600D02*
X79800000Y-51206400D01*
X79800000Y-51206400D02*
X80066700Y-51473100D01*
X80200790Y-52382290D02*
X80741098Y-52382290D01*
X80155200Y-52336700D02*
X80200790Y-52382290D01*
X76126461Y-53554500D02*
X76426460Y-53854499D01*
X76112555Y-53540594D02*
X76126461Y-53554500D01*
X76112555Y-51487225D02*
X76112555Y-53540594D01*
X76702100Y-51269900D02*
X76329880Y-51269900D01*
X76329880Y-51269900D02*
X76112555Y-51487225D01*
D22*
X81300000Y-51498500D02*
X81630800Y-51498500D01*
D20*
X80066700Y-51473100D02*
X81597500Y-51473100D01*
X81597500Y-51473100D02*
X82329700Y-51473100D01*
X82329700Y-51473100D02*
X84156000Y-49646800D01*
X84156000Y-49646800D02*
X84406000Y-49646800D01*
X79525200Y-54559200D02*
X80149700Y-54559200D01*
X79349600Y-54734800D02*
X79525200Y-54559200D01*
X79349600Y-56670280D02*
X79349600Y-54734800D01*
X78805200Y-57690300D02*
X78805200Y-57214680D01*
X78805200Y-57214680D02*
X79349600Y-56670280D01*
X75521440Y-57736901D02*
X74401801Y-57736901D01*
X74401801Y-57736901D02*
X74301800Y-57636900D01*
X74301800Y-57636900D02*
X74301800Y-57111900D01*
X78585071Y-58409709D02*
X76194248Y-58409709D01*
X78805200Y-57690300D02*
X78805200Y-58189580D01*
X78805200Y-58189580D02*
X78585071Y-58409709D01*
X76194248Y-58409709D02*
X75521440Y-57736901D01*
D21*
G04 #@! TO.N,D3*
X86139400Y-54787800D02*
X86639400Y-54787800D01*
X81250910Y-53594590D02*
X81250910Y-53573644D01*
X81250910Y-53573644D02*
X82216956Y-52607598D01*
X82216956Y-52607598D02*
X84479402Y-52607598D01*
X85023540Y-53671940D02*
X86139400Y-54787800D01*
X84479402Y-52607598D02*
X85023540Y-53151736D01*
X81055200Y-53790300D02*
X81250910Y-53594590D01*
X85023540Y-53151736D02*
X85023540Y-53671940D01*
G04 #@! TO.N,D4*
X86139400Y-53517800D02*
X86639400Y-53517800D01*
X80605200Y-53290300D02*
X80961258Y-52934242D01*
X80605200Y-53790300D02*
X80605200Y-53290300D01*
X80961258Y-52934242D02*
X81381180Y-52934242D01*
X81381180Y-52934242D02*
X82144034Y-52171388D01*
X82144034Y-52171388D02*
X84792988Y-52171388D01*
X84792988Y-52171388D02*
X86139400Y-53517800D01*
D23*
G04 #@! TO.N,XT1*
X79140900Y-52304440D02*
X79138360Y-52304440D01*
D21*
X79255200Y-52418740D02*
X79140900Y-52304440D01*
X79255200Y-53790300D02*
X79255200Y-52418740D01*
G04 #@! TO.N,D5*
X78355200Y-52798922D02*
X78433946Y-52720176D01*
X78355200Y-53790300D02*
X78355200Y-52798922D01*
G04 #@! TO.N,D6*
X77755200Y-54390300D02*
X77792606Y-54352894D01*
X77792606Y-54352894D02*
X77792606Y-52276054D01*
X77792606Y-52276054D02*
X78086800Y-51981860D01*
G04 #@! TO.N,D7*
X76615178Y-52141499D02*
X76712565Y-52044112D01*
X76615178Y-53222958D02*
X76615178Y-52141499D01*
X77063396Y-53671176D02*
X76615178Y-53222958D01*
X77063396Y-54648496D02*
X77063396Y-53671176D01*
X77755200Y-54840300D02*
X77255200Y-54840300D01*
X77255200Y-54840300D02*
X77063396Y-54648496D01*
G04 #@! TO.N,D8*
X77755200Y-55290300D02*
X77710210Y-55245310D01*
X77755200Y-55290300D02*
X77003857Y-55290300D01*
X77003857Y-55290300D02*
X75731801Y-54018244D01*
X75731801Y-54018244D02*
X75731801Y-52268601D01*
X75139100Y-51675900D02*
X75139100Y-51650900D01*
X75731801Y-52268601D02*
X75139100Y-51675900D01*
G04 #@! TO.N,D9*
X78255200Y-55740300D02*
X78704020Y-56189120D01*
X77755200Y-55740300D02*
X78255200Y-55740300D01*
X78704020Y-56189120D02*
X78704020Y-56236360D01*
G04 #@! TO.N,D10*
X75151800Y-57111900D02*
X75611800Y-57111900D01*
X75611800Y-57111900D02*
X75945580Y-56778120D01*
X75945580Y-56778120D02*
X75945580Y-56713880D01*
X76245579Y-56413881D02*
X75945580Y-56713880D01*
X76469160Y-56190300D02*
X76245579Y-56413881D01*
X77755200Y-56190300D02*
X76469160Y-56190300D01*
G04 #@! TO.N,MOSI*
X77470000Y-59894380D02*
X77390840Y-59815220D01*
X77470000Y-61112400D02*
X77470000Y-59894380D01*
X77755200Y-56640300D02*
X77108820Y-56640300D01*
X77108820Y-56640300D02*
X76849820Y-56899300D01*
G04 #@! TO.N,MISO*
X76200000Y-59819880D02*
X76268160Y-59751720D01*
X76200000Y-61112400D02*
X76200000Y-59819880D01*
X77625983Y-57090300D02*
X76906584Y-57809699D01*
X77755200Y-57090300D02*
X77625983Y-57090300D01*
X76906584Y-57809699D02*
X76902703Y-57809699D01*
X76902703Y-57809699D02*
X76478439Y-57809699D01*
G04 #@! TO.N,SCK*
X78714600Y-61061600D02*
X78714600Y-60561600D01*
X78740000Y-60200067D02*
X78269680Y-59729747D01*
X78740000Y-61112400D02*
X78740000Y-60200067D01*
X77850608Y-57690300D02*
X77731200Y-57809708D01*
X78355200Y-57690300D02*
X77850608Y-57690300D01*
G04 #@! TO.N,A1*
X75151800Y-55753000D02*
X75151800Y-53035200D01*
X75151800Y-55753000D02*
X75405800Y-56007000D01*
X75761040Y-55118760D02*
X75953200Y-55118760D01*
X75151800Y-55728000D02*
X75761040Y-55118760D01*
X75151800Y-55753000D02*
X75151800Y-55728000D01*
X80605200Y-57690300D02*
X80605200Y-55988700D01*
X80605200Y-55988700D02*
X80377880Y-55761380D01*
G04 #@! TO.N,A2*
X81976196Y-57690300D02*
X81055200Y-57690300D01*
X82201446Y-57465050D02*
X81976196Y-57690300D01*
X84899080Y-58368780D02*
X83995350Y-57465050D01*
X86139400Y-61137800D02*
X84899080Y-59897480D01*
X86639400Y-61137800D02*
X86139400Y-61137800D01*
X83995350Y-57465050D02*
X82201446Y-57465050D01*
X84899080Y-59897480D02*
X84899080Y-58368780D01*
G04 #@! TO.N,A3*
X86139400Y-59867800D02*
X86639400Y-59867800D01*
X85259091Y-58112751D02*
X85259091Y-58987491D01*
X84251380Y-57105040D02*
X85259091Y-58112751D01*
X81669940Y-57105040D02*
X84251380Y-57105040D01*
X85259091Y-58987491D02*
X86139400Y-59867800D01*
X81655200Y-57090300D02*
X81669940Y-57105040D01*
G04 #@! TO.N,SDA*
X86253272Y-58597800D02*
X86639400Y-58597800D01*
X84399832Y-56744360D02*
X86253272Y-58597800D01*
X82430200Y-56744360D02*
X84399832Y-56744360D01*
X82326140Y-56640300D02*
X82430200Y-56744360D01*
X81655200Y-56640300D02*
X82326140Y-56640300D01*
G04 #@! TO.N,SCL*
X82579321Y-56384349D02*
X85195949Y-56384349D01*
X85195949Y-56384349D02*
X86139400Y-57327800D01*
X82385272Y-56190300D02*
X82579321Y-56384349D01*
X81655200Y-56190300D02*
X82385272Y-56190300D01*
X86139400Y-57327800D02*
X86639400Y-57327800D01*
G04 #@! TO.N,RST*
X81655200Y-55740300D02*
X82765900Y-55740300D01*
X82765900Y-55740300D02*
X82829400Y-55803800D01*
X80910762Y-59050728D02*
X81210761Y-58750729D01*
X75732669Y-59149731D02*
X80811759Y-59149731D01*
X74930000Y-59952400D02*
X75732669Y-59149731D01*
X74930000Y-61112400D02*
X74930000Y-59952400D01*
X80811759Y-59149731D02*
X80910762Y-59050728D01*
G04 #@! TO.N,RXD*
X82155200Y-55290300D02*
X81655200Y-55290300D01*
X82208991Y-55290300D02*
X82155200Y-55290300D01*
X82351702Y-55147589D02*
X82208991Y-55290300D01*
X83570179Y-55147589D02*
X82351702Y-55147589D01*
X83997800Y-55575210D02*
X83570179Y-55147589D01*
X82520283Y-58345057D02*
X82820282Y-58045058D01*
X82440360Y-58424980D02*
X82520283Y-58345057D01*
X82440360Y-59044074D02*
X82440360Y-58424980D01*
X81254600Y-61061600D02*
X81254600Y-60229834D01*
X81254600Y-60229834D02*
X82440360Y-59044074D01*
G04 #@! TO.N,TXD*
X79984600Y-61061600D02*
X79984600Y-60802742D01*
X81850462Y-58936880D02*
X81850462Y-58694574D01*
X81850462Y-58694574D02*
X81850462Y-58270310D01*
X79984600Y-60802742D02*
X81850462Y-58936880D01*
X82567265Y-54567588D02*
X82991529Y-54567588D01*
X81655200Y-54840300D02*
X82149860Y-54840300D01*
X82422572Y-54567588D02*
X82567265Y-54567588D01*
X82149860Y-54840300D02*
X82422572Y-54567588D01*
D22*
G04 #@! TO.N,D2*
X73864560Y-59964980D02*
X73864560Y-59964980D01*
D21*
X83637036Y-53276500D02*
X84061300Y-53276500D01*
X82077900Y-53276500D02*
X83637036Y-53276500D01*
X81655200Y-54390300D02*
X81655200Y-53699200D01*
X81655200Y-53699200D02*
X82077900Y-53276500D01*
X77292566Y-52588634D02*
X77212605Y-52668595D01*
X77292566Y-51529434D02*
X77292566Y-52588634D01*
X77552100Y-51269900D02*
X77292566Y-51529434D01*
X73867581Y-59599599D02*
X73867581Y-60110139D01*
X74167580Y-59299600D02*
X73867581Y-59599599D01*
X84061300Y-53277680D02*
X84061300Y-53276500D01*
X84927020Y-54143400D02*
X84061300Y-53277680D01*
X84927020Y-55489600D02*
X84927020Y-54143400D01*
X86639400Y-56057800D02*
X85495220Y-56057800D01*
X85495220Y-56057800D02*
X84927020Y-55489600D01*
G04 #@! TO.N,Net-(D1-PadA)*
X76335000Y-50408800D02*
X76335000Y-49860200D01*
X75879540Y-50864260D02*
X76335000Y-50408800D01*
X74590740Y-50864260D02*
X75879540Y-50864260D01*
X74289100Y-51650900D02*
X74289100Y-51165900D01*
X74289100Y-51165900D02*
X74590740Y-50864260D01*
D19*
G04 #@! TO.N,VCC*
X79649700Y-49860200D02*
X81229200Y-49860200D01*
X81456000Y-50087000D02*
X81456000Y-50596800D01*
X81229200Y-49860200D02*
X81456000Y-50087000D01*
X85560240Y-47167800D02*
X86487000Y-47167800D01*
X85314390Y-47413650D02*
X85560240Y-47167800D01*
X85314390Y-48863990D02*
X85314390Y-47413650D01*
X86639400Y-47320200D02*
X86639400Y-47167800D01*
X81965800Y-50596800D02*
X82415502Y-50147098D01*
X82415502Y-50147098D02*
X82420700Y-50147098D01*
X86487000Y-47167800D02*
X86639400Y-47320200D01*
X82420700Y-50147098D02*
X83596598Y-48971200D01*
X81456000Y-50596800D02*
X81965800Y-50596800D01*
X83596598Y-48971200D02*
X85207180Y-48971200D01*
X85207180Y-48971200D02*
X85314390Y-48863990D01*
D22*
G04 #@! TO.N,IRQ*
X73869640Y-60767620D02*
X73869640Y-60767620D01*
D21*
X73870010Y-61611000D02*
X73870010Y-60710824D01*
X73870010Y-60710824D02*
X73868486Y-60709300D01*
G04 #@! TO.N,Net-(C2-Pad1)*
X75126400Y-58470800D02*
X75445320Y-58789720D01*
X79255200Y-58250300D02*
X79255200Y-57690300D01*
X79255200Y-58276996D02*
X79255200Y-58250300D01*
X78742476Y-58789720D02*
X79255200Y-58276996D01*
X75445320Y-58789720D02*
X78742476Y-58789720D01*
G04 #@! TD*
M02*
