G04 #@! TF.GenerationSoftware,KiCad,Pcbnew,(5.0.2)-1*
G04 #@! TF.CreationDate,2019-07-28T22:14:27+08:00*
G04 #@! TF.ProjectId,NRF24M,4e524632-344d-42e6-9b69-6361645f7063,rev?*
G04 #@! TF.SameCoordinates,Original*
G04 #@! TF.FileFunction,Legend,Top*
G04 #@! TF.FilePolarity,Positive*
%FSLAX46Y46*%
G04 Gerber Fmt 4.6, Leading zero omitted, Abs format (unit mm)*
G04 Created by KiCad (PCBNEW (5.0.2)-1) date 2019-07-28 22:14:27*
%MOMM*%
%LPD*%
G01*
G04 APERTURE LIST*
%ADD10C,0.300000*%
%ADD11C,0.100000*%
%ADD12C,0.150000*%
%ADD13C,0.120000*%
%ADD14C,0.200000*%
%ADD15C,0.250000*%
G04 APERTURE END LIST*
D10*
X82229540Y-53254945D02*
X82324778Y-53350183D01*
X82229540Y-53445421D01*
X82134301Y-53350183D01*
X82229540Y-53254945D01*
X82229540Y-53445421D01*
D11*
X82890054Y-47982988D02*
X83090054Y-48582988D01*
X83290054Y-47982988D01*
X83804340Y-48582988D02*
X83461482Y-48582988D01*
X83632911Y-48582988D02*
X83632911Y-47982988D01*
X83575768Y-48068702D01*
X83518625Y-48125845D01*
X83461482Y-48154417D01*
X84061482Y-48525845D02*
X84090054Y-48554417D01*
X84061482Y-48582988D01*
X84032911Y-48554417D01*
X84061482Y-48525845D01*
X84061482Y-48582988D01*
X84661482Y-48582988D02*
X84318625Y-48582988D01*
X84490054Y-48582988D02*
X84490054Y-47982988D01*
X84432911Y-48068702D01*
X84375768Y-48125845D01*
X84318625Y-48154417D01*
D12*
X73622032Y-48498204D02*
X73622032Y-47698204D01*
X74079175Y-48498204D01*
X74079175Y-47698204D01*
X74917270Y-48498204D02*
X74650603Y-48117252D01*
X74460127Y-48498204D02*
X74460127Y-47698204D01*
X74764889Y-47698204D01*
X74841080Y-47736300D01*
X74879175Y-47774395D01*
X74917270Y-47850585D01*
X74917270Y-47964871D01*
X74879175Y-48041061D01*
X74841080Y-48079157D01*
X74764889Y-48117252D01*
X74460127Y-48117252D01*
X75526794Y-48079157D02*
X75260127Y-48079157D01*
X75260127Y-48498204D02*
X75260127Y-47698204D01*
X75641080Y-47698204D01*
X75907746Y-47774395D02*
X75945841Y-47736300D01*
X76022032Y-47698204D01*
X76212508Y-47698204D01*
X76288699Y-47736300D01*
X76326794Y-47774395D01*
X76364889Y-47850585D01*
X76364889Y-47926776D01*
X76326794Y-48041061D01*
X75869651Y-48498204D01*
X76364889Y-48498204D01*
X77050603Y-47964871D02*
X77050603Y-48498204D01*
X76860127Y-47660109D02*
X76669651Y-48231538D01*
X77164889Y-48231538D01*
X77469651Y-48498204D02*
X77469651Y-47698204D01*
X77736318Y-48269633D01*
X78002984Y-47698204D01*
X78002984Y-48498204D01*
X78383937Y-48193442D02*
X78993460Y-48193442D01*
X79374413Y-48498204D02*
X79374413Y-47698204D01*
X79641080Y-48269633D01*
X79907746Y-47698204D01*
X79907746Y-48498204D01*
X80288699Y-48498204D02*
X80288699Y-47698204D01*
X80555365Y-48269633D01*
X80822032Y-47698204D01*
X80822032Y-48498204D01*
X81202984Y-48498204D02*
X81202984Y-47698204D01*
X81202984Y-48079157D02*
X81660127Y-48079157D01*
X81660127Y-48498204D02*
X81660127Y-47698204D01*
X82498222Y-48498204D02*
X82231556Y-48117252D01*
X82041080Y-48498204D02*
X82041080Y-47698204D01*
X82345841Y-47698204D01*
X82422032Y-47736300D01*
X82460127Y-47774395D01*
X82498222Y-47850585D01*
X82498222Y-47964871D01*
X82460127Y-48041061D01*
X82422032Y-48079157D01*
X82345841Y-48117252D01*
X82041080Y-48117252D01*
D13*
G04 #@! TO.C,U1*
X81815200Y-54005300D02*
X81815200Y-53630300D01*
X77595200Y-57850300D02*
X77970200Y-57850300D01*
X77595200Y-57475300D02*
X77595200Y-57850300D01*
X77595200Y-53630300D02*
X77970200Y-53630300D01*
X77595200Y-54005300D02*
X77595200Y-53630300D01*
X81815200Y-57850300D02*
X81440200Y-57850300D01*
X81815200Y-57475300D02*
X81815200Y-57850300D01*
D14*
G04 #@! TO.C,C4*
X80414700Y-50250200D02*
G75*
G02X80014700Y-50650200I-400000J0D01*
G01*
X80014700Y-49070200D02*
G75*
G02X80414700Y-49470200I0J-400000D01*
G01*
X77344700Y-49470200D02*
G75*
G02X77744700Y-49070200I400000J0D01*
G01*
X77744700Y-50650200D02*
G75*
G02X77344700Y-50250200I0J400000D01*
G01*
X80014700Y-49070200D02*
X79279700Y-49070200D01*
X78479700Y-49070200D02*
X77744700Y-49070200D01*
X78479700Y-50650200D02*
X77744700Y-50650200D01*
X80414700Y-49470200D02*
X80414700Y-50250200D01*
X77344700Y-49470200D02*
X77344700Y-50250200D01*
X80014700Y-50650200D02*
X79279700Y-50650200D01*
D15*
G04 #@! TO.C,VR1*
X84531000Y-52421800D02*
G75*
G03X84531000Y-52421800I-125000J0D01*
G01*
D14*
X82031000Y-52146800D02*
X83431000Y-52146800D01*
X82031000Y-52146800D02*
X82031000Y-51321800D01*
X82031000Y-49046800D02*
X83431000Y-49046800D01*
X82031000Y-49871800D02*
X82031000Y-49046800D01*
G04 #@! TO.C,C2*
X75687390Y-58119320D02*
X75687390Y-58829320D01*
X75462400Y-57899320D02*
X75012390Y-57899320D01*
X75462400Y-59049320D02*
X75012400Y-59049320D01*
X74412400Y-57899320D02*
X73962400Y-57899320D01*
X74412400Y-59049320D02*
X73962400Y-59049320D01*
X73737400Y-58119320D02*
X73737400Y-58829320D01*
X75467400Y-57899320D02*
G75*
G02X75687400Y-58119320I0J-220000D01*
G01*
X75687400Y-58829320D02*
G75*
G02X75467400Y-59049320I-220000J0D01*
G01*
X73737400Y-58119320D02*
G75*
G02X73957400Y-57899320I220000J0D01*
G01*
X73957400Y-59049320D02*
G75*
G02X73737400Y-58829320I0J220000D01*
G01*
G04 #@! TO.C,R1*
X75701800Y-56536900D02*
X75701800Y-57686900D01*
X73751800Y-56536900D02*
X73751800Y-57686900D01*
X75701800Y-57686900D02*
X75026800Y-57686900D01*
X74426800Y-57686900D02*
X73751800Y-57686900D01*
X75701800Y-56536900D02*
X75026800Y-56536900D01*
X74426800Y-56536900D02*
X73751800Y-56536900D01*
G04 #@! TO.C,R2*
X76801700Y-50644100D02*
X76126700Y-50644100D01*
X78076700Y-50644100D02*
X77401700Y-50644100D01*
X76801700Y-51794100D02*
X76126700Y-51794100D01*
X78076700Y-51794100D02*
X77401700Y-51794100D01*
X76126700Y-50644100D02*
X76126700Y-51794100D01*
X78076700Y-50644100D02*
X78076700Y-51794100D01*
G04 #@! TO.C,D1*
X74065000Y-50457200D02*
X74265000Y-50650200D01*
X74065000Y-49263200D02*
X74265000Y-49070200D01*
X74265000Y-49070200D02*
X75165000Y-49070200D01*
X77100000Y-50650200D02*
X77100000Y-49070200D01*
X74065000Y-50457200D02*
X74065000Y-49263200D01*
X75965000Y-49070200D02*
X77100000Y-49070200D01*
X74265000Y-50650200D02*
X75165000Y-50650200D01*
X75965000Y-50650200D02*
X77100000Y-50650200D01*
D12*
G36*
X73590000Y-50460200D02*
X73890000Y-50460200D01*
X73890000Y-49260200D01*
X73590000Y-49260200D01*
X73590000Y-50460200D01*
G37*
X73590000Y-50460200D02*
X73890000Y-50460200D01*
X73890000Y-49260200D01*
X73590000Y-49260200D01*
X73590000Y-50460200D01*
D14*
G04 #@! TO.C,R3*
X75689100Y-51075900D02*
X75689100Y-52225900D01*
X73739100Y-51075900D02*
X73739100Y-52225900D01*
X75689100Y-52225900D02*
X75014100Y-52225900D01*
X74414100Y-52225900D02*
X73739100Y-52225900D01*
X75689100Y-51075900D02*
X75014100Y-51075900D01*
X74414100Y-51075900D02*
X73739100Y-51075900D01*
G04 #@! TO.C,R4*
X74426800Y-55178000D02*
X73751800Y-55178000D01*
X75701800Y-55178000D02*
X75026800Y-55178000D01*
X74426800Y-56328000D02*
X73751800Y-56328000D01*
X75701800Y-56328000D02*
X75026800Y-56328000D01*
X73751800Y-55178000D02*
X73751800Y-56328000D01*
X75701800Y-55178000D02*
X75701800Y-56328000D01*
G04 #@! TO.C,R5*
X75689100Y-53819100D02*
X75689100Y-54969100D01*
X73739100Y-53819100D02*
X73739100Y-54969100D01*
X75689100Y-54969100D02*
X75014100Y-54969100D01*
X74414100Y-54969100D02*
X73739100Y-54969100D01*
X75689100Y-53819100D02*
X75014100Y-53819100D01*
X74414100Y-53819100D02*
X73739100Y-53819100D01*
G04 #@! TO.C,C3*
X73971800Y-53610200D02*
G75*
G02X73751800Y-53390200I0J220000D01*
G01*
X73751800Y-52680200D02*
G75*
G02X73971800Y-52460200I220000J0D01*
G01*
X75701800Y-53390200D02*
G75*
G02X75481800Y-53610200I-220000J0D01*
G01*
X75481800Y-52460200D02*
G75*
G02X75701800Y-52680200I0J-220000D01*
G01*
X73751800Y-52680200D02*
X73751800Y-53390200D01*
X74426800Y-53610200D02*
X73976800Y-53610200D01*
X74426800Y-52460200D02*
X73976800Y-52460200D01*
X75476800Y-53610200D02*
X75026800Y-53610200D01*
X75476800Y-52460200D02*
X75026790Y-52460200D01*
X75701790Y-52680200D02*
X75701790Y-53390200D01*
G04 #@! TO.C,C5*
X78620000Y-51781400D02*
G75*
G02X78400000Y-51561400I0J220000D01*
G01*
X78400000Y-50851400D02*
G75*
G02X78620000Y-50631400I220000J0D01*
G01*
X80350000Y-51561400D02*
G75*
G02X80130000Y-51781400I-220000J0D01*
G01*
X80130000Y-50631400D02*
G75*
G02X80350000Y-50851400I0J-220000D01*
G01*
X78400000Y-50851400D02*
X78400000Y-51561400D01*
X79075000Y-51781400D02*
X78625000Y-51781400D01*
X79075000Y-50631400D02*
X78625000Y-50631400D01*
X80125000Y-51781400D02*
X79675000Y-51781400D01*
X80125000Y-50631400D02*
X79674990Y-50631400D01*
X80349990Y-50851400D02*
X80349990Y-51561400D01*
G04 #@! TO.C,C6*
X82874500Y-59439500D02*
G75*
G02X82654500Y-59219500I0J220000D01*
G01*
X82654500Y-58509500D02*
G75*
G02X82874500Y-58289500I220000J0D01*
G01*
X84604500Y-59219500D02*
G75*
G02X84384500Y-59439500I-220000J0D01*
G01*
X84384500Y-58289500D02*
G75*
G02X84604500Y-58509500I0J-220000D01*
G01*
X82654500Y-58509500D02*
X82654500Y-59219500D01*
X83329500Y-59439500D02*
X82879500Y-59439500D01*
X83329500Y-58289500D02*
X82879500Y-58289500D01*
X84379500Y-59439500D02*
X83929500Y-59439500D01*
X84379500Y-58289500D02*
X83929490Y-58289500D01*
X84604490Y-58509500D02*
X84604490Y-59219500D01*
G04 #@! TD*
M02*
