G04 #@! TF.GenerationSoftware,KiCad,Pcbnew,(5.0.2)-1*
G04 #@! TF.CreationDate,2019-07-28T22:14:27+08:00*
G04 #@! TF.ProjectId,NRF24M,4e524632-344d-42e6-9b69-6361645f7063,rev?*
G04 #@! TF.SameCoordinates,Original*
G04 #@! TF.FileFunction,Soldermask,Top*
G04 #@! TF.FilePolarity,Negative*
%FSLAX46Y46*%
G04 Gerber Fmt 4.6, Leading zero omitted, Abs format (unit mm)*
G04 Created by KiCad (PCBNEW (5.0.2)-1) date 2019-07-28 22:14:27*
%MOMM*%
%LPD*%
G01*
G04 APERTURE LIST*
%ADD10C,0.150000*%
%ADD11C,0.600000*%
%ADD12C,0.400000*%
%ADD13C,0.010000*%
%ADD14C,0.100000*%
G04 APERTURE END LIST*
D10*
X87537788Y-46156514D02*
X86937788Y-46156514D01*
X86937788Y-46013657D01*
X86966360Y-45927942D01*
X87023502Y-45870800D01*
X87080645Y-45842228D01*
X87194931Y-45813657D01*
X87280645Y-45813657D01*
X87394931Y-45842228D01*
X87452074Y-45870800D01*
X87509217Y-45927942D01*
X87537788Y-46013657D01*
X87537788Y-46156514D01*
X87480645Y-45556514D02*
X87509217Y-45527942D01*
X87537788Y-45556514D01*
X87509217Y-45585085D01*
X87480645Y-45556514D01*
X87537788Y-45556514D01*
X87166360Y-45556514D02*
X87194931Y-45527942D01*
X87223502Y-45556514D01*
X87194931Y-45585085D01*
X87166360Y-45556514D01*
X87223502Y-45556514D01*
X87537788Y-45270800D02*
X86937788Y-45270800D01*
X87223502Y-45270800D02*
X87223502Y-44927942D01*
X87537788Y-44927942D02*
X86937788Y-44927942D01*
X87137788Y-44385085D02*
X87537788Y-44385085D01*
X87137788Y-44642228D02*
X87452074Y-44642228D01*
X87509217Y-44613657D01*
X87537788Y-44556514D01*
X87537788Y-44470800D01*
X87509217Y-44413657D01*
X87480645Y-44385085D01*
X87509217Y-43870800D02*
X87537788Y-43927942D01*
X87537788Y-44042228D01*
X87509217Y-44099371D01*
X87452074Y-44127942D01*
X87223502Y-44127942D01*
X87166360Y-44099371D01*
X87137788Y-44042228D01*
X87137788Y-43927942D01*
X87166360Y-43870800D01*
X87223502Y-43842228D01*
X87280645Y-43842228D01*
X87337788Y-44127942D01*
X87537788Y-43642228D02*
X87137788Y-43327942D01*
X87137788Y-43642228D02*
X87537788Y-43327942D01*
D11*
X73865320Y-59967620D02*
X73864560Y-59964380D01*
X73870400Y-60770260D02*
X73869640Y-60767020D01*
X81300000Y-51498500D02*
X81630800Y-51498500D01*
D12*
X79138360Y-52304440D02*
X79138392Y-52304408D01*
D13*
G04 #@! TO.C,G\002A\002A\002A*
G36*
X75133424Y-45407927D02*
X75213015Y-45487687D01*
X75249158Y-45575285D01*
X75295626Y-45745022D01*
X75314911Y-45885401D01*
X75330366Y-45959728D01*
X75359213Y-45943077D01*
X75444001Y-45884139D01*
X75579820Y-45839028D01*
X75695386Y-45826548D01*
X75776241Y-45866444D01*
X75859166Y-45982222D01*
X75891700Y-46038351D01*
X75982353Y-46179484D01*
X76056982Y-46264294D01*
X76079096Y-46275307D01*
X76128997Y-46224773D01*
X76188197Y-46098967D01*
X76204032Y-46053796D01*
X76278826Y-45871842D01*
X76373387Y-45778834D01*
X76523579Y-45746677D01*
X76598774Y-45744584D01*
X76700784Y-45749916D01*
X76760973Y-45778634D01*
X76778847Y-45848091D01*
X76753911Y-45975635D01*
X76685670Y-46178618D01*
X76578321Y-46462217D01*
X76475459Y-46735415D01*
X76379058Y-47002185D01*
X76304115Y-47220606D01*
X76280684Y-47294261D01*
X76224561Y-47461191D01*
X76166738Y-47543905D01*
X76073612Y-47571937D01*
X75961485Y-47574842D01*
X75814316Y-47566694D01*
X75733082Y-47546362D01*
X75727495Y-47538468D01*
X75745732Y-47466076D01*
X75792212Y-47322074D01*
X75825764Y-47225411D01*
X75924032Y-46948729D01*
X75670197Y-46521461D01*
X75552659Y-46330261D01*
X75458202Y-46188993D01*
X75401912Y-46119733D01*
X75393708Y-46116846D01*
X75390282Y-46182135D01*
X75402713Y-46332321D01*
X75428323Y-46535624D01*
X75429965Y-46547055D01*
X75468861Y-46822938D01*
X75486296Y-47001804D01*
X75476952Y-47103669D01*
X75435509Y-47148546D01*
X75356650Y-47156451D01*
X75269704Y-47150152D01*
X75123346Y-47128383D01*
X75057476Y-47072195D01*
X75034451Y-46945815D01*
X75032842Y-46925075D01*
X75010408Y-46710995D01*
X74981163Y-46511586D01*
X74960496Y-46406744D01*
X74940635Y-46376220D01*
X74911945Y-46431451D01*
X74864789Y-46583876D01*
X74835900Y-46684014D01*
X74761407Y-46924400D01*
X74696885Y-47069795D01*
X74626795Y-47140561D01*
X74535597Y-47157061D01*
X74479075Y-47151588D01*
X74362186Y-47092596D01*
X74246972Y-46942518D01*
X74126257Y-46690716D01*
X74069227Y-46544085D01*
X74027461Y-46444630D01*
X73997080Y-46420775D01*
X73972213Y-46483910D01*
X73946989Y-46645425D01*
X73926136Y-46821703D01*
X73887831Y-47161354D01*
X73470854Y-47161354D01*
X73511676Y-46733098D01*
X73540118Y-46479413D01*
X73574382Y-46236700D01*
X73604832Y-46068563D01*
X73640156Y-45862982D01*
X73658119Y-45668901D01*
X73658609Y-45646627D01*
X73689519Y-45493107D01*
X73792148Y-45412444D01*
X73983364Y-45389261D01*
X74099169Y-45426967D01*
X74160517Y-45551703D01*
X74213293Y-45721735D01*
X74287001Y-45911663D01*
X74366917Y-46088927D01*
X74438317Y-46220965D01*
X74486478Y-46275216D01*
X74487730Y-46275307D01*
X74526646Y-46223593D01*
X74566001Y-46095546D01*
X74573677Y-46058219D01*
X74625200Y-45851448D01*
X74696729Y-45635822D01*
X74704805Y-45615196D01*
X74776390Y-45468142D01*
X74858863Y-45403497D01*
X74989758Y-45389261D01*
X75133424Y-45407927D01*
X75133424Y-45407927D01*
G37*
X75133424Y-45407927D02*
X75213015Y-45487687D01*
X75249158Y-45575285D01*
X75295626Y-45745022D01*
X75314911Y-45885401D01*
X75330366Y-45959728D01*
X75359213Y-45943077D01*
X75444001Y-45884139D01*
X75579820Y-45839028D01*
X75695386Y-45826548D01*
X75776241Y-45866444D01*
X75859166Y-45982222D01*
X75891700Y-46038351D01*
X75982353Y-46179484D01*
X76056982Y-46264294D01*
X76079096Y-46275307D01*
X76128997Y-46224773D01*
X76188197Y-46098967D01*
X76204032Y-46053796D01*
X76278826Y-45871842D01*
X76373387Y-45778834D01*
X76523579Y-45746677D01*
X76598774Y-45744584D01*
X76700784Y-45749916D01*
X76760973Y-45778634D01*
X76778847Y-45848091D01*
X76753911Y-45975635D01*
X76685670Y-46178618D01*
X76578321Y-46462217D01*
X76475459Y-46735415D01*
X76379058Y-47002185D01*
X76304115Y-47220606D01*
X76280684Y-47294261D01*
X76224561Y-47461191D01*
X76166738Y-47543905D01*
X76073612Y-47571937D01*
X75961485Y-47574842D01*
X75814316Y-47566694D01*
X75733082Y-47546362D01*
X75727495Y-47538468D01*
X75745732Y-47466076D01*
X75792212Y-47322074D01*
X75825764Y-47225411D01*
X75924032Y-46948729D01*
X75670197Y-46521461D01*
X75552659Y-46330261D01*
X75458202Y-46188993D01*
X75401912Y-46119733D01*
X75393708Y-46116846D01*
X75390282Y-46182135D01*
X75402713Y-46332321D01*
X75428323Y-46535624D01*
X75429965Y-46547055D01*
X75468861Y-46822938D01*
X75486296Y-47001804D01*
X75476952Y-47103669D01*
X75435509Y-47148546D01*
X75356650Y-47156451D01*
X75269704Y-47150152D01*
X75123346Y-47128383D01*
X75057476Y-47072195D01*
X75034451Y-46945815D01*
X75032842Y-46925075D01*
X75010408Y-46710995D01*
X74981163Y-46511586D01*
X74960496Y-46406744D01*
X74940635Y-46376220D01*
X74911945Y-46431451D01*
X74864789Y-46583876D01*
X74835900Y-46684014D01*
X74761407Y-46924400D01*
X74696885Y-47069795D01*
X74626795Y-47140561D01*
X74535597Y-47157061D01*
X74479075Y-47151588D01*
X74362186Y-47092596D01*
X74246972Y-46942518D01*
X74126257Y-46690716D01*
X74069227Y-46544085D01*
X74027461Y-46444630D01*
X73997080Y-46420775D01*
X73972213Y-46483910D01*
X73946989Y-46645425D01*
X73926136Y-46821703D01*
X73887831Y-47161354D01*
X73470854Y-47161354D01*
X73511676Y-46733098D01*
X73540118Y-46479413D01*
X73574382Y-46236700D01*
X73604832Y-46068563D01*
X73640156Y-45862982D01*
X73658119Y-45668901D01*
X73658609Y-45646627D01*
X73689519Y-45493107D01*
X73792148Y-45412444D01*
X73983364Y-45389261D01*
X74099169Y-45426967D01*
X74160517Y-45551703D01*
X74213293Y-45721735D01*
X74287001Y-45911663D01*
X74366917Y-46088927D01*
X74438317Y-46220965D01*
X74486478Y-46275216D01*
X74487730Y-46275307D01*
X74526646Y-46223593D01*
X74566001Y-46095546D01*
X74573677Y-46058219D01*
X74625200Y-45851448D01*
X74696729Y-45635822D01*
X74704805Y-45615196D01*
X74776390Y-45468142D01*
X74858863Y-45403497D01*
X74989758Y-45389261D01*
X75133424Y-45407927D01*
G36*
X77559844Y-45381267D02*
X77710878Y-45461380D01*
X77775243Y-45519926D01*
X77875862Y-45627824D01*
X77899437Y-45696740D01*
X77853847Y-45769818D01*
X77826500Y-45800508D01*
X77695283Y-45903723D01*
X77590630Y-45903462D01*
X77537296Y-45832284D01*
X77470327Y-45760572D01*
X77381983Y-45748365D01*
X77325357Y-45798408D01*
X77322378Y-45821176D01*
X77366231Y-45904062D01*
X77474555Y-46010207D01*
X77503119Y-46032299D01*
X77715291Y-46239551D01*
X77859090Y-46483147D01*
X77912845Y-46726254D01*
X77912855Y-46728811D01*
X77863008Y-46922558D01*
X77731266Y-47064098D01*
X77545095Y-47145915D01*
X77331963Y-47160489D01*
X77119335Y-47100303D01*
X76963416Y-46988688D01*
X76835654Y-46843975D01*
X76801449Y-46741419D01*
X76859194Y-46653167D01*
X76940622Y-46593320D01*
X77052422Y-46531450D01*
X77132196Y-46543606D01*
X77225010Y-46621493D01*
X77354175Y-46725918D01*
X77423103Y-46735994D01*
X77440518Y-46670772D01*
X77400396Y-46593644D01*
X77295135Y-46465098D01*
X77147394Y-46312761D01*
X77145169Y-46310626D01*
X76982702Y-46145159D01*
X76892674Y-46019688D01*
X76855283Y-45900396D01*
X76849820Y-45806177D01*
X76893372Y-45581172D01*
X77024678Y-45434648D01*
X77244714Y-45365745D01*
X77356772Y-45359726D01*
X77559844Y-45381267D01*
X77559844Y-45381267D01*
G37*
X77559844Y-45381267D02*
X77710878Y-45461380D01*
X77775243Y-45519926D01*
X77875862Y-45627824D01*
X77899437Y-45696740D01*
X77853847Y-45769818D01*
X77826500Y-45800508D01*
X77695283Y-45903723D01*
X77590630Y-45903462D01*
X77537296Y-45832284D01*
X77470327Y-45760572D01*
X77381983Y-45748365D01*
X77325357Y-45798408D01*
X77322378Y-45821176D01*
X77366231Y-45904062D01*
X77474555Y-46010207D01*
X77503119Y-46032299D01*
X77715291Y-46239551D01*
X77859090Y-46483147D01*
X77912845Y-46726254D01*
X77912855Y-46728811D01*
X77863008Y-46922558D01*
X77731266Y-47064098D01*
X77545095Y-47145915D01*
X77331963Y-47160489D01*
X77119335Y-47100303D01*
X76963416Y-46988688D01*
X76835654Y-46843975D01*
X76801449Y-46741419D01*
X76859194Y-46653167D01*
X76940622Y-46593320D01*
X77052422Y-46531450D01*
X77132196Y-46543606D01*
X77225010Y-46621493D01*
X77354175Y-46725918D01*
X77423103Y-46735994D01*
X77440518Y-46670772D01*
X77400396Y-46593644D01*
X77295135Y-46465098D01*
X77147394Y-46312761D01*
X77145169Y-46310626D01*
X76982702Y-46145159D01*
X76892674Y-46019688D01*
X76855283Y-45900396D01*
X76849820Y-45806177D01*
X76893372Y-45581172D01*
X77024678Y-45434648D01*
X77244714Y-45365745D01*
X77356772Y-45359726D01*
X77559844Y-45381267D01*
G36*
X79027346Y-45826620D02*
X79213562Y-45976434D01*
X79305869Y-46129659D01*
X79379680Y-46356245D01*
X79374938Y-46505426D01*
X79290027Y-46589451D01*
X79243187Y-46605208D01*
X79096554Y-46642010D01*
X79228420Y-46753827D01*
X79360285Y-46865644D01*
X79194550Y-47013499D01*
X78981552Y-47131334D01*
X78721577Y-47171995D01*
X78456971Y-47135627D01*
X78330997Y-47072749D01*
X78799123Y-47072749D01*
X78828657Y-47102284D01*
X78858192Y-47072749D01*
X78828657Y-47043214D01*
X78799123Y-47072749D01*
X78330997Y-47072749D01*
X78230078Y-47022377D01*
X78214966Y-47010119D01*
X78125859Y-46895540D01*
X78858192Y-46895540D01*
X78887727Y-46925075D01*
X78917262Y-46895540D01*
X78887727Y-46866005D01*
X78858192Y-46895540D01*
X78125859Y-46895540D01*
X78050636Y-46798816D01*
X78021798Y-46682779D01*
X78420778Y-46682779D01*
X78444704Y-46718331D01*
X78572757Y-46790664D01*
X78747301Y-46795848D01*
X78917758Y-46734073D01*
X78943320Y-46716452D01*
X78996894Y-46668237D01*
X78983146Y-46642180D01*
X78884408Y-46631582D01*
X78714575Y-46629726D01*
X78525428Y-46633420D01*
X78434198Y-46648904D01*
X78420778Y-46682779D01*
X78021798Y-46682779D01*
X77984565Y-46532964D01*
X78020621Y-46229057D01*
X78024326Y-46216238D01*
X78533309Y-46216238D01*
X78543814Y-46261709D01*
X78625459Y-46272070D01*
X78736581Y-46247322D01*
X78799123Y-46216238D01*
X78839780Y-46175070D01*
X78778136Y-46159302D01*
X78728771Y-46158072D01*
X78597975Y-46177221D01*
X78533309Y-46216238D01*
X78024326Y-46216238D01*
X78026790Y-46207715D01*
X78146241Y-45986294D01*
X78332999Y-45835828D01*
X78560087Y-45757963D01*
X78800528Y-45754344D01*
X79027346Y-45826620D01*
X79027346Y-45826620D01*
G37*
X79027346Y-45826620D02*
X79213562Y-45976434D01*
X79305869Y-46129659D01*
X79379680Y-46356245D01*
X79374938Y-46505426D01*
X79290027Y-46589451D01*
X79243187Y-46605208D01*
X79096554Y-46642010D01*
X79228420Y-46753827D01*
X79360285Y-46865644D01*
X79194550Y-47013499D01*
X78981552Y-47131334D01*
X78721577Y-47171995D01*
X78456971Y-47135627D01*
X78330997Y-47072749D01*
X78799123Y-47072749D01*
X78828657Y-47102284D01*
X78858192Y-47072749D01*
X78828657Y-47043214D01*
X78799123Y-47072749D01*
X78330997Y-47072749D01*
X78230078Y-47022377D01*
X78214966Y-47010119D01*
X78125859Y-46895540D01*
X78858192Y-46895540D01*
X78887727Y-46925075D01*
X78917262Y-46895540D01*
X78887727Y-46866005D01*
X78858192Y-46895540D01*
X78125859Y-46895540D01*
X78050636Y-46798816D01*
X78021798Y-46682779D01*
X78420778Y-46682779D01*
X78444704Y-46718331D01*
X78572757Y-46790664D01*
X78747301Y-46795848D01*
X78917758Y-46734073D01*
X78943320Y-46716452D01*
X78996894Y-46668237D01*
X78983146Y-46642180D01*
X78884408Y-46631582D01*
X78714575Y-46629726D01*
X78525428Y-46633420D01*
X78434198Y-46648904D01*
X78420778Y-46682779D01*
X78021798Y-46682779D01*
X77984565Y-46532964D01*
X78020621Y-46229057D01*
X78024326Y-46216238D01*
X78533309Y-46216238D01*
X78543814Y-46261709D01*
X78625459Y-46272070D01*
X78736581Y-46247322D01*
X78799123Y-46216238D01*
X78839780Y-46175070D01*
X78778136Y-46159302D01*
X78728771Y-46158072D01*
X78597975Y-46177221D01*
X78533309Y-46216238D01*
X78024326Y-46216238D01*
X78026790Y-46207715D01*
X78146241Y-45986294D01*
X78332999Y-45835828D01*
X78560087Y-45757963D01*
X78800528Y-45754344D01*
X79027346Y-45826620D01*
G36*
X80350299Y-45822719D02*
X80493431Y-45930915D01*
X80579962Y-46116939D01*
X80621546Y-46394295D01*
X80630285Y-46692641D01*
X80630285Y-47161354D01*
X80165210Y-47161354D01*
X80173710Y-46792168D01*
X80165802Y-46561995D01*
X80135597Y-46369365D01*
X80105133Y-46283183D01*
X80042118Y-46189016D01*
X79985600Y-46191308D01*
X79932369Y-46239071D01*
X79864698Y-46374884D01*
X79822741Y-46622597D01*
X79813330Y-46748055D01*
X79799225Y-46963796D01*
X79779424Y-47087299D01*
X79741858Y-47144291D01*
X79674456Y-47160500D01*
X79619433Y-47161354D01*
X79448890Y-47161354D01*
X79448890Y-45818924D01*
X79847611Y-45785788D01*
X80138911Y-45778844D01*
X80350299Y-45822719D01*
X80350299Y-45822719D01*
G37*
X80350299Y-45822719D02*
X80493431Y-45930915D01*
X80579962Y-46116939D01*
X80621546Y-46394295D01*
X80630285Y-46692641D01*
X80630285Y-47161354D01*
X80165210Y-47161354D01*
X80173710Y-46792168D01*
X80165802Y-46561995D01*
X80135597Y-46369365D01*
X80105133Y-46283183D01*
X80042118Y-46189016D01*
X79985600Y-46191308D01*
X79932369Y-46239071D01*
X79864698Y-46374884D01*
X79822741Y-46622597D01*
X79813330Y-46748055D01*
X79799225Y-46963796D01*
X79779424Y-47087299D01*
X79741858Y-47144291D01*
X79674456Y-47160500D01*
X79619433Y-47161354D01*
X79448890Y-47161354D01*
X79448890Y-45818924D01*
X79847611Y-45785788D01*
X80138911Y-45778844D01*
X80350299Y-45822719D01*
G36*
X81355768Y-45766237D02*
X81533352Y-45824740D01*
X81656790Y-45912987D01*
X81693541Y-46003688D01*
X81653197Y-46098321D01*
X81580315Y-46182256D01*
X81467052Y-46250689D01*
X81343273Y-46226167D01*
X81329269Y-46219740D01*
X81241355Y-46180546D01*
X81253183Y-46196212D01*
X81301219Y-46229799D01*
X81499222Y-46371028D01*
X81616822Y-46477547D01*
X81674490Y-46576139D01*
X81692700Y-46693582D01*
X81693541Y-46742998D01*
X81658227Y-46951974D01*
X81585518Y-47063594D01*
X81431268Y-47136078D01*
X81217850Y-47155930D01*
X80991963Y-47122959D01*
X80848193Y-47066609D01*
X80724924Y-46958460D01*
X80713966Y-46839802D01*
X80816875Y-46728365D01*
X80818417Y-46727390D01*
X80938136Y-46698078D01*
X81069374Y-46745760D01*
X81203196Y-46792737D01*
X81266095Y-46771950D01*
X81240863Y-46703405D01*
X81162029Y-46638036D01*
X80933020Y-46449283D01*
X80792233Y-46249805D01*
X80746198Y-46055915D01*
X80801442Y-45883924D01*
X80841249Y-45836503D01*
X80975405Y-45765389D01*
X81158349Y-45744210D01*
X81355768Y-45766237D01*
X81355768Y-45766237D01*
G37*
X81355768Y-45766237D02*
X81533352Y-45824740D01*
X81656790Y-45912987D01*
X81693541Y-46003688D01*
X81653197Y-46098321D01*
X81580315Y-46182256D01*
X81467052Y-46250689D01*
X81343273Y-46226167D01*
X81329269Y-46219740D01*
X81241355Y-46180546D01*
X81253183Y-46196212D01*
X81301219Y-46229799D01*
X81499222Y-46371028D01*
X81616822Y-46477547D01*
X81674490Y-46576139D01*
X81692700Y-46693582D01*
X81693541Y-46742998D01*
X81658227Y-46951974D01*
X81585518Y-47063594D01*
X81431268Y-47136078D01*
X81217850Y-47155930D01*
X80991963Y-47122959D01*
X80848193Y-47066609D01*
X80724924Y-46958460D01*
X80713966Y-46839802D01*
X80816875Y-46728365D01*
X80818417Y-46727390D01*
X80938136Y-46698078D01*
X81069374Y-46745760D01*
X81203196Y-46792737D01*
X81266095Y-46771950D01*
X81240863Y-46703405D01*
X81162029Y-46638036D01*
X80933020Y-46449283D01*
X80792233Y-46249805D01*
X80746198Y-46055915D01*
X80801442Y-45883924D01*
X80841249Y-45836503D01*
X80975405Y-45765389D01*
X81158349Y-45744210D01*
X81355768Y-45766237D01*
G36*
X82766759Y-45761052D02*
X82856100Y-45813829D01*
X82951891Y-45917817D01*
X82952960Y-45919087D01*
X83046679Y-46051213D01*
X83094569Y-46191163D01*
X83110558Y-46386676D01*
X83111216Y-46461593D01*
X83104039Y-46672561D01*
X83072725Y-46810569D01*
X83002600Y-46920417D01*
X82938550Y-46988688D01*
X82722275Y-47125227D01*
X82454635Y-47159686D01*
X82153568Y-47093444D01*
X81976737Y-46971783D01*
X81839295Y-46769442D01*
X81762123Y-46522420D01*
X81752611Y-46402174D01*
X81756957Y-46371270D01*
X82236747Y-46371270D01*
X82256856Y-46554182D01*
X82314803Y-46651852D01*
X82426074Y-46734811D01*
X82526602Y-46722712D01*
X82638657Y-46629726D01*
X82733485Y-46518271D01*
X82743834Y-46425855D01*
X82673292Y-46300613D01*
X82662481Y-46285078D01*
X82534889Y-46179258D01*
X82411434Y-46168563D01*
X82296064Y-46205344D01*
X82246012Y-46304585D01*
X82236747Y-46371270D01*
X81756957Y-46371270D01*
X81782720Y-46188092D01*
X81890393Y-46006152D01*
X81921039Y-45970527D01*
X82035655Y-45859735D01*
X82156905Y-45797797D01*
X82329906Y-45766183D01*
X82442087Y-45756517D01*
X82642532Y-45746332D01*
X82766759Y-45761052D01*
X82766759Y-45761052D01*
G37*
X82766759Y-45761052D02*
X82856100Y-45813829D01*
X82951891Y-45917817D01*
X82952960Y-45919087D01*
X83046679Y-46051213D01*
X83094569Y-46191163D01*
X83110558Y-46386676D01*
X83111216Y-46461593D01*
X83104039Y-46672561D01*
X83072725Y-46810569D01*
X83002600Y-46920417D01*
X82938550Y-46988688D01*
X82722275Y-47125227D01*
X82454635Y-47159686D01*
X82153568Y-47093444D01*
X81976737Y-46971783D01*
X81839295Y-46769442D01*
X81762123Y-46522420D01*
X81752611Y-46402174D01*
X81756957Y-46371270D01*
X82236747Y-46371270D01*
X82256856Y-46554182D01*
X82314803Y-46651852D01*
X82426074Y-46734811D01*
X82526602Y-46722712D01*
X82638657Y-46629726D01*
X82733485Y-46518271D01*
X82743834Y-46425855D01*
X82673292Y-46300613D01*
X82662481Y-46285078D01*
X82534889Y-46179258D01*
X82411434Y-46168563D01*
X82296064Y-46205344D01*
X82246012Y-46304585D01*
X82236747Y-46371270D01*
X81756957Y-46371270D01*
X81782720Y-46188092D01*
X81890393Y-46006152D01*
X81921039Y-45970527D01*
X82035655Y-45859735D01*
X82156905Y-45797797D01*
X82329906Y-45766183D01*
X82442087Y-45756517D01*
X82642532Y-45746332D01*
X82766759Y-45761052D01*
G36*
X84596523Y-43516974D02*
X84618278Y-43560567D01*
X84679308Y-43648013D01*
X84778869Y-43642355D01*
X84866163Y-43629688D01*
X84869116Y-43686461D01*
X84864563Y-43698956D01*
X84867986Y-43780099D01*
X84914697Y-43794377D01*
X84992108Y-43826865D01*
X85001448Y-43853447D01*
X84960558Y-43910840D01*
X84947908Y-43912517D01*
X84916405Y-43959148D01*
X84923133Y-44022510D01*
X84901796Y-44125839D01*
X84811882Y-44188365D01*
X84702745Y-44176234D01*
X84700769Y-44175036D01*
X84665740Y-44203664D01*
X84647690Y-44316663D01*
X84647030Y-44348568D01*
X84631958Y-44496684D01*
X84595080Y-44586339D01*
X84589169Y-44591071D01*
X84566925Y-44658977D01*
X84612033Y-44753734D01*
X84695907Y-44833256D01*
X84770223Y-44857633D01*
X84880225Y-44812801D01*
X84999479Y-44707988D01*
X85082139Y-44587716D01*
X85095029Y-44542193D01*
X85108414Y-44418074D01*
X85110591Y-44399842D01*
X85158687Y-44333915D01*
X85239195Y-44336350D01*
X85293948Y-44399665D01*
X85296797Y-44423801D01*
X85255798Y-44548957D01*
X85154910Y-44704566D01*
X85027295Y-44848291D01*
X84906117Y-44937797D01*
X84888971Y-44944440D01*
X84816982Y-44979113D01*
X84812781Y-45041273D01*
X84862815Y-45153358D01*
X84932395Y-45335066D01*
X84983118Y-45539112D01*
X84984905Y-45549883D01*
X85035874Y-45717130D01*
X85114869Y-45838591D01*
X85129161Y-45850401D01*
X85225592Y-45962429D01*
X85206928Y-46085055D01*
X85118366Y-46187808D01*
X84999005Y-46295828D01*
X85147901Y-46451242D01*
X85271431Y-46633773D01*
X85279403Y-46813658D01*
X85174370Y-47005713D01*
X85025901Y-47129960D01*
X84853332Y-47161354D01*
X84612309Y-47135664D01*
X84431635Y-47067095D01*
X84326725Y-46968394D01*
X84312989Y-46852311D01*
X84370956Y-46762344D01*
X84460793Y-46701725D01*
X84568478Y-46716637D01*
X84622946Y-46739601D01*
X84759684Y-46788341D01*
X84802383Y-46768421D01*
X84751535Y-46682035D01*
X84607636Y-46531374D01*
X84567477Y-46493483D01*
X84424194Y-46348760D01*
X84324759Y-46226743D01*
X84302453Y-46181134D01*
X84782692Y-46181134D01*
X84824239Y-46216238D01*
X84918492Y-46269365D01*
X84931049Y-46249356D01*
X84912844Y-46216238D01*
X84826577Y-46160076D01*
X84805985Y-46158072D01*
X84782692Y-46181134D01*
X84302453Y-46181134D01*
X84292611Y-46161013D01*
X84267393Y-46122026D01*
X84178993Y-46159680D01*
X84145197Y-46181100D01*
X83958015Y-46248073D01*
X83850736Y-46240783D01*
X83737057Y-46233661D01*
X83668210Y-46305398D01*
X83640894Y-46369040D01*
X83609492Y-46537558D01*
X83609093Y-46762626D01*
X83617277Y-46847779D01*
X83656456Y-47161354D01*
X83446392Y-47161354D01*
X83301303Y-47150131D01*
X83218147Y-47122567D01*
X83213698Y-47117052D01*
X83203090Y-47043012D01*
X83192065Y-46877347D01*
X83182098Y-46646556D01*
X83176078Y-46441384D01*
X83161087Y-45810019D01*
X83636615Y-45808974D01*
X83904971Y-45815449D01*
X84079550Y-45838862D01*
X84183985Y-45883070D01*
X84206053Y-45901839D01*
X84282382Y-45960399D01*
X84342765Y-45929927D01*
X84388241Y-45869714D01*
X84501740Y-45775029D01*
X84682949Y-45743874D01*
X84703919Y-45743679D01*
X84849777Y-45736004D01*
X84905745Y-45701443D01*
X84899681Y-45622699D01*
X84899550Y-45622199D01*
X84846341Y-45535810D01*
X84772173Y-45543642D01*
X84654534Y-45576605D01*
X84479304Y-45605837D01*
X84425518Y-45612000D01*
X84272199Y-45638665D01*
X84183372Y-45675658D01*
X84174471Y-45690558D01*
X84127081Y-45738823D01*
X84093250Y-45743679D01*
X84027888Y-45689932D01*
X83974406Y-45549945D01*
X83942741Y-45355604D01*
X83938223Y-45246808D01*
X84057351Y-45246808D01*
X84068239Y-45388540D01*
X84095712Y-45468021D01*
X84182171Y-45501374D01*
X84248080Y-45507400D01*
X84322264Y-45490219D01*
X84336959Y-45416644D01*
X84319637Y-45318770D01*
X84264637Y-45157815D01*
X84199004Y-45057131D01*
X84358630Y-45057131D01*
X84371804Y-45113511D01*
X84406125Y-45268779D01*
X84410750Y-45335022D01*
X84441641Y-45419214D01*
X84552767Y-45447720D01*
X84584474Y-45448331D01*
X84720947Y-45430042D01*
X84794858Y-45389012D01*
X84790151Y-45306284D01*
X84735994Y-45165388D01*
X84697934Y-45092012D01*
X84614797Y-44951824D01*
X84564335Y-44903082D01*
X84524161Y-44932711D01*
X84499247Y-44975974D01*
X84431613Y-45052364D01*
X84383502Y-45051462D01*
X84358630Y-45057131D01*
X84199004Y-45057131D01*
X84190523Y-45044121D01*
X84118039Y-45005213D01*
X84092899Y-45017965D01*
X84065449Y-45103628D01*
X84057351Y-45246808D01*
X83938223Y-45246808D01*
X83938192Y-45246069D01*
X83893471Y-45131300D01*
X83748127Y-45046040D01*
X83746216Y-45045317D01*
X83566477Y-44958268D01*
X83406196Y-44848165D01*
X83291642Y-44737325D01*
X83249087Y-44648065D01*
X83254846Y-44627898D01*
X83336001Y-44568509D01*
X83424858Y-44577008D01*
X83465634Y-44646601D01*
X83513291Y-44745906D01*
X83628047Y-44856190D01*
X83767581Y-44943888D01*
X83880685Y-44975772D01*
X83972000Y-44925385D01*
X84025570Y-44803551D01*
X84025676Y-44798563D01*
X84292611Y-44798563D01*
X84312765Y-44856097D01*
X84318660Y-44857633D01*
X84369092Y-44816241D01*
X84381216Y-44798563D01*
X84376532Y-44744131D01*
X84355167Y-44739493D01*
X84295015Y-44782373D01*
X84292611Y-44798563D01*
X84025676Y-44798563D01*
X84028758Y-44654267D01*
X83998692Y-44564955D01*
X83950653Y-44415494D01*
X83938192Y-44300353D01*
X83928122Y-44259702D01*
X84056332Y-44259702D01*
X84085920Y-44355077D01*
X84188197Y-44396678D01*
X84371433Y-44394247D01*
X84451466Y-44411767D01*
X84450230Y-44465501D01*
X84383265Y-44523948D01*
X84293176Y-44552880D01*
X84205328Y-44577972D01*
X84227368Y-44617339D01*
X84235550Y-44622595D01*
X84357107Y-44637778D01*
X84480162Y-44569078D01*
X84556811Y-44449231D01*
X84570463Y-44304703D01*
X84554407Y-44183354D01*
X84510239Y-44080273D01*
X84421720Y-44039477D01*
X84300975Y-44035320D01*
X84181774Y-44045011D01*
X84149016Y-44063431D01*
X84159704Y-44069777D01*
X84225982Y-44147484D01*
X84233541Y-44190486D01*
X84217615Y-44249134D01*
X84152013Y-44213680D01*
X84144937Y-44207865D01*
X84077043Y-44169818D01*
X84056818Y-44231044D01*
X84056332Y-44259702D01*
X83928122Y-44259702D01*
X83908051Y-44178679D01*
X83849588Y-44148796D01*
X83777517Y-44099175D01*
X83760983Y-44026773D01*
X83737953Y-43898742D01*
X83903881Y-43898742D01*
X83911776Y-43917562D01*
X83983488Y-43946828D01*
X84002307Y-43938933D01*
X84031573Y-43867221D01*
X84027146Y-43856665D01*
X84115402Y-43856665D01*
X84166938Y-43901684D01*
X84292611Y-43899917D01*
X84416201Y-43894464D01*
X84469758Y-43917244D01*
X84469820Y-43918416D01*
X84518333Y-43968771D01*
X84573192Y-43989938D01*
X84668115Y-44016167D01*
X84691332Y-44023804D01*
X84704408Y-43982318D01*
X84706099Y-43942052D01*
X84660980Y-43863690D01*
X84621714Y-43853447D01*
X84512588Y-43814551D01*
X84450371Y-43766489D01*
X84372046Y-43709676D01*
X84307629Y-43747396D01*
X84291784Y-43765839D01*
X84208953Y-43823135D01*
X84167778Y-43819775D01*
X84119465Y-43832502D01*
X84115402Y-43856665D01*
X84027146Y-43856665D01*
X84023679Y-43848402D01*
X83951967Y-43819136D01*
X83933147Y-43827030D01*
X83903881Y-43898742D01*
X83737953Y-43898742D01*
X83732550Y-43868710D01*
X83703102Y-43796599D01*
X83680470Y-43713513D01*
X83745351Y-43665623D01*
X83805883Y-43648125D01*
X83940292Y-43595110D01*
X84011438Y-43538647D01*
X84065131Y-43503309D01*
X84105848Y-43546127D01*
X84160693Y-43589118D01*
X84231221Y-43531359D01*
X84353175Y-43451986D01*
X84490769Y-43448385D01*
X84596523Y-43516974D01*
X84596523Y-43516974D01*
G37*
X84596523Y-43516974D02*
X84618278Y-43560567D01*
X84679308Y-43648013D01*
X84778869Y-43642355D01*
X84866163Y-43629688D01*
X84869116Y-43686461D01*
X84864563Y-43698956D01*
X84867986Y-43780099D01*
X84914697Y-43794377D01*
X84992108Y-43826865D01*
X85001448Y-43853447D01*
X84960558Y-43910840D01*
X84947908Y-43912517D01*
X84916405Y-43959148D01*
X84923133Y-44022510D01*
X84901796Y-44125839D01*
X84811882Y-44188365D01*
X84702745Y-44176234D01*
X84700769Y-44175036D01*
X84665740Y-44203664D01*
X84647690Y-44316663D01*
X84647030Y-44348568D01*
X84631958Y-44496684D01*
X84595080Y-44586339D01*
X84589169Y-44591071D01*
X84566925Y-44658977D01*
X84612033Y-44753734D01*
X84695907Y-44833256D01*
X84770223Y-44857633D01*
X84880225Y-44812801D01*
X84999479Y-44707988D01*
X85082139Y-44587716D01*
X85095029Y-44542193D01*
X85108414Y-44418074D01*
X85110591Y-44399842D01*
X85158687Y-44333915D01*
X85239195Y-44336350D01*
X85293948Y-44399665D01*
X85296797Y-44423801D01*
X85255798Y-44548957D01*
X85154910Y-44704566D01*
X85027295Y-44848291D01*
X84906117Y-44937797D01*
X84888971Y-44944440D01*
X84816982Y-44979113D01*
X84812781Y-45041273D01*
X84862815Y-45153358D01*
X84932395Y-45335066D01*
X84983118Y-45539112D01*
X84984905Y-45549883D01*
X85035874Y-45717130D01*
X85114869Y-45838591D01*
X85129161Y-45850401D01*
X85225592Y-45962429D01*
X85206928Y-46085055D01*
X85118366Y-46187808D01*
X84999005Y-46295828D01*
X85147901Y-46451242D01*
X85271431Y-46633773D01*
X85279403Y-46813658D01*
X85174370Y-47005713D01*
X85025901Y-47129960D01*
X84853332Y-47161354D01*
X84612309Y-47135664D01*
X84431635Y-47067095D01*
X84326725Y-46968394D01*
X84312989Y-46852311D01*
X84370956Y-46762344D01*
X84460793Y-46701725D01*
X84568478Y-46716637D01*
X84622946Y-46739601D01*
X84759684Y-46788341D01*
X84802383Y-46768421D01*
X84751535Y-46682035D01*
X84607636Y-46531374D01*
X84567477Y-46493483D01*
X84424194Y-46348760D01*
X84324759Y-46226743D01*
X84302453Y-46181134D01*
X84782692Y-46181134D01*
X84824239Y-46216238D01*
X84918492Y-46269365D01*
X84931049Y-46249356D01*
X84912844Y-46216238D01*
X84826577Y-46160076D01*
X84805985Y-46158072D01*
X84782692Y-46181134D01*
X84302453Y-46181134D01*
X84292611Y-46161013D01*
X84267393Y-46122026D01*
X84178993Y-46159680D01*
X84145197Y-46181100D01*
X83958015Y-46248073D01*
X83850736Y-46240783D01*
X83737057Y-46233661D01*
X83668210Y-46305398D01*
X83640894Y-46369040D01*
X83609492Y-46537558D01*
X83609093Y-46762626D01*
X83617277Y-46847779D01*
X83656456Y-47161354D01*
X83446392Y-47161354D01*
X83301303Y-47150131D01*
X83218147Y-47122567D01*
X83213698Y-47117052D01*
X83203090Y-47043012D01*
X83192065Y-46877347D01*
X83182098Y-46646556D01*
X83176078Y-46441384D01*
X83161087Y-45810019D01*
X83636615Y-45808974D01*
X83904971Y-45815449D01*
X84079550Y-45838862D01*
X84183985Y-45883070D01*
X84206053Y-45901839D01*
X84282382Y-45960399D01*
X84342765Y-45929927D01*
X84388241Y-45869714D01*
X84501740Y-45775029D01*
X84682949Y-45743874D01*
X84703919Y-45743679D01*
X84849777Y-45736004D01*
X84905745Y-45701443D01*
X84899681Y-45622699D01*
X84899550Y-45622199D01*
X84846341Y-45535810D01*
X84772173Y-45543642D01*
X84654534Y-45576605D01*
X84479304Y-45605837D01*
X84425518Y-45612000D01*
X84272199Y-45638665D01*
X84183372Y-45675658D01*
X84174471Y-45690558D01*
X84127081Y-45738823D01*
X84093250Y-45743679D01*
X84027888Y-45689932D01*
X83974406Y-45549945D01*
X83942741Y-45355604D01*
X83938223Y-45246808D01*
X84057351Y-45246808D01*
X84068239Y-45388540D01*
X84095712Y-45468021D01*
X84182171Y-45501374D01*
X84248080Y-45507400D01*
X84322264Y-45490219D01*
X84336959Y-45416644D01*
X84319637Y-45318770D01*
X84264637Y-45157815D01*
X84199004Y-45057131D01*
X84358630Y-45057131D01*
X84371804Y-45113511D01*
X84406125Y-45268779D01*
X84410750Y-45335022D01*
X84441641Y-45419214D01*
X84552767Y-45447720D01*
X84584474Y-45448331D01*
X84720947Y-45430042D01*
X84794858Y-45389012D01*
X84790151Y-45306284D01*
X84735994Y-45165388D01*
X84697934Y-45092012D01*
X84614797Y-44951824D01*
X84564335Y-44903082D01*
X84524161Y-44932711D01*
X84499247Y-44975974D01*
X84431613Y-45052364D01*
X84383502Y-45051462D01*
X84358630Y-45057131D01*
X84199004Y-45057131D01*
X84190523Y-45044121D01*
X84118039Y-45005213D01*
X84092899Y-45017965D01*
X84065449Y-45103628D01*
X84057351Y-45246808D01*
X83938223Y-45246808D01*
X83938192Y-45246069D01*
X83893471Y-45131300D01*
X83748127Y-45046040D01*
X83746216Y-45045317D01*
X83566477Y-44958268D01*
X83406196Y-44848165D01*
X83291642Y-44737325D01*
X83249087Y-44648065D01*
X83254846Y-44627898D01*
X83336001Y-44568509D01*
X83424858Y-44577008D01*
X83465634Y-44646601D01*
X83513291Y-44745906D01*
X83628047Y-44856190D01*
X83767581Y-44943888D01*
X83880685Y-44975772D01*
X83972000Y-44925385D01*
X84025570Y-44803551D01*
X84025676Y-44798563D01*
X84292611Y-44798563D01*
X84312765Y-44856097D01*
X84318660Y-44857633D01*
X84369092Y-44816241D01*
X84381216Y-44798563D01*
X84376532Y-44744131D01*
X84355167Y-44739493D01*
X84295015Y-44782373D01*
X84292611Y-44798563D01*
X84025676Y-44798563D01*
X84028758Y-44654267D01*
X83998692Y-44564955D01*
X83950653Y-44415494D01*
X83938192Y-44300353D01*
X83928122Y-44259702D01*
X84056332Y-44259702D01*
X84085920Y-44355077D01*
X84188197Y-44396678D01*
X84371433Y-44394247D01*
X84451466Y-44411767D01*
X84450230Y-44465501D01*
X84383265Y-44523948D01*
X84293176Y-44552880D01*
X84205328Y-44577972D01*
X84227368Y-44617339D01*
X84235550Y-44622595D01*
X84357107Y-44637778D01*
X84480162Y-44569078D01*
X84556811Y-44449231D01*
X84570463Y-44304703D01*
X84554407Y-44183354D01*
X84510239Y-44080273D01*
X84421720Y-44039477D01*
X84300975Y-44035320D01*
X84181774Y-44045011D01*
X84149016Y-44063431D01*
X84159704Y-44069777D01*
X84225982Y-44147484D01*
X84233541Y-44190486D01*
X84217615Y-44249134D01*
X84152013Y-44213680D01*
X84144937Y-44207865D01*
X84077043Y-44169818D01*
X84056818Y-44231044D01*
X84056332Y-44259702D01*
X83928122Y-44259702D01*
X83908051Y-44178679D01*
X83849588Y-44148796D01*
X83777517Y-44099175D01*
X83760983Y-44026773D01*
X83737953Y-43898742D01*
X83903881Y-43898742D01*
X83911776Y-43917562D01*
X83983488Y-43946828D01*
X84002307Y-43938933D01*
X84031573Y-43867221D01*
X84027146Y-43856665D01*
X84115402Y-43856665D01*
X84166938Y-43901684D01*
X84292611Y-43899917D01*
X84416201Y-43894464D01*
X84469758Y-43917244D01*
X84469820Y-43918416D01*
X84518333Y-43968771D01*
X84573192Y-43989938D01*
X84668115Y-44016167D01*
X84691332Y-44023804D01*
X84704408Y-43982318D01*
X84706099Y-43942052D01*
X84660980Y-43863690D01*
X84621714Y-43853447D01*
X84512588Y-43814551D01*
X84450371Y-43766489D01*
X84372046Y-43709676D01*
X84307629Y-43747396D01*
X84291784Y-43765839D01*
X84208953Y-43823135D01*
X84167778Y-43819775D01*
X84119465Y-43832502D01*
X84115402Y-43856665D01*
X84027146Y-43856665D01*
X84023679Y-43848402D01*
X83951967Y-43819136D01*
X83933147Y-43827030D01*
X83903881Y-43898742D01*
X83737953Y-43898742D01*
X83732550Y-43868710D01*
X83703102Y-43796599D01*
X83680470Y-43713513D01*
X83745351Y-43665623D01*
X83805883Y-43648125D01*
X83940292Y-43595110D01*
X84011438Y-43538647D01*
X84065131Y-43503309D01*
X84105848Y-43546127D01*
X84160693Y-43589118D01*
X84231221Y-43531359D01*
X84353175Y-43451986D01*
X84490769Y-43448385D01*
X84596523Y-43516974D01*
G36*
X78131177Y-43977111D02*
X78229384Y-44000000D01*
X78264750Y-44049723D01*
X78267495Y-44083406D01*
X78222481Y-44195055D01*
X78170757Y-44232348D01*
X78115648Y-44275606D01*
X78094581Y-44368567D01*
X78102323Y-44541059D01*
X78107439Y-44593281D01*
X78121167Y-44786760D01*
X78107093Y-44897535D01*
X78058506Y-44959141D01*
X78030851Y-44975968D01*
X77930334Y-45022065D01*
X77877568Y-45008370D01*
X77857235Y-44914822D01*
X77854006Y-44744325D01*
X77846978Y-44553761D01*
X77829169Y-44403196D01*
X77818152Y-44360371D01*
X77762061Y-44272181D01*
X77712871Y-44290583D01*
X77681928Y-44404112D01*
X77676797Y-44503214D01*
X77635028Y-44742430D01*
X77509722Y-44898109D01*
X77300879Y-44970251D01*
X77204239Y-44975772D01*
X76967195Y-44936315D01*
X76813824Y-44815071D01*
X76740035Y-44607728D01*
X76731681Y-44477967D01*
X76740018Y-44378027D01*
X76980351Y-44378027D01*
X76989604Y-44536028D01*
X77029108Y-44625237D01*
X77136992Y-44722811D01*
X77276799Y-44726329D01*
X77369634Y-44668610D01*
X77431024Y-44541289D01*
X77405783Y-44406704D01*
X77318088Y-44297632D01*
X77192113Y-44246850D01*
X77076967Y-44271823D01*
X76980351Y-44378027D01*
X76740018Y-44378027D01*
X76747290Y-44290861D01*
X76807953Y-44168176D01*
X76887321Y-44094013D01*
X77103974Y-43988402D01*
X77329881Y-43990886D01*
X77486444Y-44063541D01*
X77581261Y-44122473D01*
X77614400Y-44108603D01*
X77617727Y-44063541D01*
X77644035Y-44008598D01*
X77738759Y-43980192D01*
X77925596Y-43971617D01*
X77942611Y-43971586D01*
X78131177Y-43977111D01*
X78131177Y-43977111D01*
G37*
X78131177Y-43977111D02*
X78229384Y-44000000D01*
X78264750Y-44049723D01*
X78267495Y-44083406D01*
X78222481Y-44195055D01*
X78170757Y-44232348D01*
X78115648Y-44275606D01*
X78094581Y-44368567D01*
X78102323Y-44541059D01*
X78107439Y-44593281D01*
X78121167Y-44786760D01*
X78107093Y-44897535D01*
X78058506Y-44959141D01*
X78030851Y-44975968D01*
X77930334Y-45022065D01*
X77877568Y-45008370D01*
X77857235Y-44914822D01*
X77854006Y-44744325D01*
X77846978Y-44553761D01*
X77829169Y-44403196D01*
X77818152Y-44360371D01*
X77762061Y-44272181D01*
X77712871Y-44290583D01*
X77681928Y-44404112D01*
X77676797Y-44503214D01*
X77635028Y-44742430D01*
X77509722Y-44898109D01*
X77300879Y-44970251D01*
X77204239Y-44975772D01*
X76967195Y-44936315D01*
X76813824Y-44815071D01*
X76740035Y-44607728D01*
X76731681Y-44477967D01*
X76740018Y-44378027D01*
X76980351Y-44378027D01*
X76989604Y-44536028D01*
X77029108Y-44625237D01*
X77136992Y-44722811D01*
X77276799Y-44726329D01*
X77369634Y-44668610D01*
X77431024Y-44541289D01*
X77405783Y-44406704D01*
X77318088Y-44297632D01*
X77192113Y-44246850D01*
X77076967Y-44271823D01*
X76980351Y-44378027D01*
X76740018Y-44378027D01*
X76747290Y-44290861D01*
X76807953Y-44168176D01*
X76887321Y-44094013D01*
X77103974Y-43988402D01*
X77329881Y-43990886D01*
X77486444Y-44063541D01*
X77581261Y-44122473D01*
X77614400Y-44108603D01*
X77617727Y-44063541D01*
X77644035Y-44008598D01*
X77738759Y-43980192D01*
X77925596Y-43971617D01*
X77942611Y-43971586D01*
X78131177Y-43977111D01*
G36*
X80552075Y-43982335D02*
X80599215Y-44032575D01*
X80628793Y-44149303D01*
X80651405Y-44334670D01*
X80679075Y-44615512D01*
X80688856Y-44799456D01*
X80676302Y-44906974D01*
X80636965Y-44958540D01*
X80566397Y-44974629D01*
X80512146Y-44975772D01*
X80383430Y-44958015D01*
X80337430Y-44889706D01*
X80334937Y-44851089D01*
X80334937Y-44726405D01*
X80231564Y-44852679D01*
X80092820Y-44951482D01*
X79863006Y-45009340D01*
X79818076Y-45015126D01*
X79507960Y-45051298D01*
X79507960Y-44503214D01*
X79803309Y-44503214D01*
X79826215Y-44675296D01*
X79891672Y-44741671D01*
X79994786Y-44698735D01*
X80027774Y-44668610D01*
X80094527Y-44534512D01*
X80063000Y-44399173D01*
X79984401Y-44328083D01*
X79874715Y-44278203D01*
X79821533Y-44296530D01*
X79804561Y-44402690D01*
X79803309Y-44503214D01*
X79507960Y-44503214D01*
X79507960Y-43979890D01*
X79811212Y-43993821D01*
X80020578Y-44017709D01*
X80154159Y-44075285D01*
X80224701Y-44143888D01*
X80334937Y-44280023D01*
X80334937Y-44125805D01*
X80357627Y-44009470D01*
X80445836Y-43972424D01*
X80474196Y-43971586D01*
X80552075Y-43982335D01*
X80552075Y-43982335D01*
G37*
X80552075Y-43982335D02*
X80599215Y-44032575D01*
X80628793Y-44149303D01*
X80651405Y-44334670D01*
X80679075Y-44615512D01*
X80688856Y-44799456D01*
X80676302Y-44906974D01*
X80636965Y-44958540D01*
X80566397Y-44974629D01*
X80512146Y-44975772D01*
X80383430Y-44958015D01*
X80337430Y-44889706D01*
X80334937Y-44851089D01*
X80334937Y-44726405D01*
X80231564Y-44852679D01*
X80092820Y-44951482D01*
X79863006Y-45009340D01*
X79818076Y-45015126D01*
X79507960Y-45051298D01*
X79507960Y-44503214D01*
X79803309Y-44503214D01*
X79826215Y-44675296D01*
X79891672Y-44741671D01*
X79994786Y-44698735D01*
X80027774Y-44668610D01*
X80094527Y-44534512D01*
X80063000Y-44399173D01*
X79984401Y-44328083D01*
X79874715Y-44278203D01*
X79821533Y-44296530D01*
X79804561Y-44402690D01*
X79803309Y-44503214D01*
X79507960Y-44503214D01*
X79507960Y-43979890D01*
X79811212Y-43993821D01*
X80020578Y-44017709D01*
X80154159Y-44075285D01*
X80224701Y-44143888D01*
X80334937Y-44280023D01*
X80334937Y-44125805D01*
X80357627Y-44009470D01*
X80445836Y-43972424D01*
X80474196Y-43971586D01*
X80552075Y-43982335D01*
G36*
X76596447Y-43976196D02*
X76640091Y-44005620D01*
X76662746Y-44083246D01*
X76671293Y-44232465D01*
X76672611Y-44473679D01*
X76671255Y-44716816D01*
X76662601Y-44865204D01*
X76639770Y-44942233D01*
X76595882Y-44971292D01*
X76524937Y-44975772D01*
X76453426Y-44971162D01*
X76409782Y-44941739D01*
X76387127Y-44864113D01*
X76378580Y-44714894D01*
X76377262Y-44473679D01*
X76378618Y-44230543D01*
X76387272Y-44082155D01*
X76410103Y-44005126D01*
X76453991Y-43976067D01*
X76524937Y-43971586D01*
X76596447Y-43976196D01*
X76596447Y-43976196D01*
G37*
X76596447Y-43976196D02*
X76640091Y-44005620D01*
X76662746Y-44083246D01*
X76671293Y-44232465D01*
X76672611Y-44473679D01*
X76671255Y-44716816D01*
X76662601Y-44865204D01*
X76639770Y-44942233D01*
X76595882Y-44971292D01*
X76524937Y-44975772D01*
X76453426Y-44971162D01*
X76409782Y-44941739D01*
X76387127Y-44864113D01*
X76378580Y-44714894D01*
X76377262Y-44473679D01*
X76378618Y-44230543D01*
X76387272Y-44082155D01*
X76410103Y-44005126D01*
X76453991Y-43976067D01*
X76524937Y-43971586D01*
X76596447Y-43976196D01*
G36*
X80968927Y-44024880D02*
X81025414Y-44103281D01*
X81084178Y-44234975D01*
X81154659Y-44103281D01*
X81239146Y-44018759D01*
X81355166Y-43974150D01*
X81460688Y-43976212D01*
X81513677Y-44031705D01*
X81514488Y-44045424D01*
X81484201Y-44137028D01*
X81409785Y-44283150D01*
X81367117Y-44355540D01*
X81276784Y-44543763D01*
X81225599Y-44730956D01*
X81221286Y-44783796D01*
X81207141Y-44917949D01*
X81149104Y-44969855D01*
X81085170Y-44975772D01*
X80994857Y-44961080D01*
X80965221Y-44894021D01*
X80972858Y-44774470D01*
X80959928Y-44580672D01*
X80863470Y-44378414D01*
X80842857Y-44347270D01*
X80728435Y-44156727D01*
X80697732Y-44038270D01*
X80750319Y-43981061D01*
X80828003Y-43971586D01*
X80968927Y-44024880D01*
X80968927Y-44024880D01*
G37*
X80968927Y-44024880D02*
X81025414Y-44103281D01*
X81084178Y-44234975D01*
X81154659Y-44103281D01*
X81239146Y-44018759D01*
X81355166Y-43974150D01*
X81460688Y-43976212D01*
X81513677Y-44031705D01*
X81514488Y-44045424D01*
X81484201Y-44137028D01*
X81409785Y-44283150D01*
X81367117Y-44355540D01*
X81276784Y-44543763D01*
X81225599Y-44730956D01*
X81221286Y-44783796D01*
X81207141Y-44917949D01*
X81149104Y-44969855D01*
X81085170Y-44975772D01*
X80994857Y-44961080D01*
X80965221Y-44894021D01*
X80972858Y-44774470D01*
X80959928Y-44580672D01*
X80863470Y-44378414D01*
X80842857Y-44347270D01*
X80728435Y-44156727D01*
X80697732Y-44038270D01*
X80750319Y-43981061D01*
X80828003Y-43971586D01*
X80968927Y-44024880D01*
G36*
X79006498Y-44238675D02*
X79035402Y-44296470D01*
X79067298Y-44375078D01*
X79094471Y-44385075D01*
X79146951Y-44428126D01*
X79142904Y-44526900D01*
X79086603Y-44635823D01*
X79069156Y-44655108D01*
X78924090Y-44730354D01*
X78769825Y-44708109D01*
X78695750Y-44651135D01*
X78635372Y-44541423D01*
X78626962Y-44437448D01*
X78673095Y-44385606D01*
X78680983Y-44385075D01*
X78733389Y-44337231D01*
X78740053Y-44296470D01*
X78791402Y-44225207D01*
X78887727Y-44207865D01*
X79006498Y-44238675D01*
X79006498Y-44238675D01*
G37*
X79006498Y-44238675D02*
X79035402Y-44296470D01*
X79067298Y-44375078D01*
X79094471Y-44385075D01*
X79146951Y-44428126D01*
X79142904Y-44526900D01*
X79086603Y-44635823D01*
X79069156Y-44655108D01*
X78924090Y-44730354D01*
X78769825Y-44708109D01*
X78695750Y-44651135D01*
X78635372Y-44541423D01*
X78626962Y-44437448D01*
X78673095Y-44385606D01*
X78680983Y-44385075D01*
X78733389Y-44337231D01*
X78740053Y-44296470D01*
X78791402Y-44225207D01*
X78887727Y-44207865D01*
X79006498Y-44238675D01*
G36*
X82055344Y-44289086D02*
X82200174Y-44315047D01*
X82291137Y-44326003D01*
X82291623Y-44326005D01*
X82325792Y-44377955D01*
X82342865Y-44505688D01*
X82343309Y-44532749D01*
X82336156Y-44665120D01*
X82291989Y-44723947D01*
X82176750Y-44739031D01*
X82107030Y-44739493D01*
X81870750Y-44739493D01*
X81870750Y-44495831D01*
X81875404Y-44342507D01*
X81906287Y-44278891D01*
X81988781Y-44276554D01*
X82055344Y-44289086D01*
X82055344Y-44289086D01*
G37*
X82055344Y-44289086D02*
X82200174Y-44315047D01*
X82291137Y-44326003D01*
X82291623Y-44326005D01*
X82325792Y-44377955D01*
X82342865Y-44505688D01*
X82343309Y-44532749D01*
X82336156Y-44665120D01*
X82291989Y-44723947D01*
X82176750Y-44739031D01*
X82107030Y-44739493D01*
X81870750Y-44739493D01*
X81870750Y-44495831D01*
X81875404Y-44342507D01*
X81906287Y-44278891D01*
X81988781Y-44276554D01*
X82055344Y-44289086D01*
G36*
X84468104Y-44134677D02*
X84469820Y-44148796D01*
X84424870Y-44206149D01*
X84410750Y-44207865D01*
X84353397Y-44162915D01*
X84351681Y-44148796D01*
X84396631Y-44091442D01*
X84410750Y-44089726D01*
X84468104Y-44134677D01*
X84468104Y-44134677D01*
G37*
X84468104Y-44134677D02*
X84469820Y-44148796D01*
X84424870Y-44206149D01*
X84410750Y-44207865D01*
X84353397Y-44162915D01*
X84351681Y-44148796D01*
X84396631Y-44091442D01*
X84410750Y-44089726D01*
X84468104Y-44134677D01*
D14*
G36*
X76293312Y-60068287D02*
X76383039Y-60095506D01*
X76465731Y-60139706D01*
X76538211Y-60199189D01*
X76597694Y-60271669D01*
X76641894Y-60354361D01*
X76669113Y-60444088D01*
X76676000Y-60514016D01*
X76676000Y-61710784D01*
X76669113Y-61780712D01*
X76641894Y-61870439D01*
X76597694Y-61953131D01*
X76538211Y-62025611D01*
X76465731Y-62085094D01*
X76383038Y-62129294D01*
X76293311Y-62156513D01*
X76200000Y-62165703D01*
X76106688Y-62156513D01*
X76016961Y-62129294D01*
X75934269Y-62085094D01*
X75861789Y-62025611D01*
X75802306Y-61953131D01*
X75758106Y-61870438D01*
X75730887Y-61780711D01*
X75724000Y-61710783D01*
X75724001Y-60514016D01*
X75730888Y-60444088D01*
X75758107Y-60354361D01*
X75802307Y-60271669D01*
X75861790Y-60199189D01*
X75934270Y-60139706D01*
X76016962Y-60095506D01*
X76106689Y-60068287D01*
X76200000Y-60059097D01*
X76293312Y-60068287D01*
X76293312Y-60068287D01*
G37*
G36*
X77563312Y-60068287D02*
X77653039Y-60095506D01*
X77735731Y-60139706D01*
X77808211Y-60199189D01*
X77867694Y-60271669D01*
X77911894Y-60354361D01*
X77939113Y-60444088D01*
X77946000Y-60514016D01*
X77946000Y-61710784D01*
X77939113Y-61780712D01*
X77911894Y-61870439D01*
X77867694Y-61953131D01*
X77808211Y-62025611D01*
X77735731Y-62085094D01*
X77653038Y-62129294D01*
X77563311Y-62156513D01*
X77470000Y-62165703D01*
X77376688Y-62156513D01*
X77286961Y-62129294D01*
X77204269Y-62085094D01*
X77131789Y-62025611D01*
X77072306Y-61953131D01*
X77028106Y-61870438D01*
X77000887Y-61780711D01*
X76994000Y-61710783D01*
X76994001Y-60514016D01*
X77000888Y-60444088D01*
X77028107Y-60354361D01*
X77072307Y-60271669D01*
X77131790Y-60199189D01*
X77204270Y-60139706D01*
X77286962Y-60095506D01*
X77376689Y-60068287D01*
X77470000Y-60059097D01*
X77563312Y-60068287D01*
X77563312Y-60068287D01*
G37*
G36*
X78833312Y-60068287D02*
X78923039Y-60095506D01*
X79005731Y-60139706D01*
X79078211Y-60199189D01*
X79137694Y-60271669D01*
X79181894Y-60354361D01*
X79209113Y-60444088D01*
X79216000Y-60514016D01*
X79216000Y-61710784D01*
X79209113Y-61780712D01*
X79181894Y-61870439D01*
X79137694Y-61953131D01*
X79078211Y-62025611D01*
X79005731Y-62085094D01*
X78923038Y-62129294D01*
X78833311Y-62156513D01*
X78740000Y-62165703D01*
X78646688Y-62156513D01*
X78556961Y-62129294D01*
X78474269Y-62085094D01*
X78401789Y-62025611D01*
X78342306Y-61953131D01*
X78298106Y-61870438D01*
X78270887Y-61780711D01*
X78264000Y-61710783D01*
X78264001Y-60514016D01*
X78270888Y-60444088D01*
X78298107Y-60354361D01*
X78342307Y-60271669D01*
X78401790Y-60199189D01*
X78474270Y-60139706D01*
X78556962Y-60095506D01*
X78646689Y-60068287D01*
X78740000Y-60059097D01*
X78833312Y-60068287D01*
X78833312Y-60068287D01*
G37*
G36*
X80103312Y-60068287D02*
X80193039Y-60095506D01*
X80275731Y-60139706D01*
X80348211Y-60199189D01*
X80407694Y-60271669D01*
X80451894Y-60354361D01*
X80479113Y-60444088D01*
X80486000Y-60514016D01*
X80486000Y-61710784D01*
X80479113Y-61780712D01*
X80451894Y-61870439D01*
X80407694Y-61953131D01*
X80348211Y-62025611D01*
X80275731Y-62085094D01*
X80193038Y-62129294D01*
X80103311Y-62156513D01*
X80010000Y-62165703D01*
X79916688Y-62156513D01*
X79826961Y-62129294D01*
X79744269Y-62085094D01*
X79671789Y-62025611D01*
X79612306Y-61953131D01*
X79568106Y-61870438D01*
X79540887Y-61780711D01*
X79534000Y-61710783D01*
X79534001Y-60514016D01*
X79540888Y-60444088D01*
X79568107Y-60354361D01*
X79612307Y-60271669D01*
X79671790Y-60199189D01*
X79744270Y-60139706D01*
X79826962Y-60095506D01*
X79916689Y-60068287D01*
X80010000Y-60059097D01*
X80103312Y-60068287D01*
X80103312Y-60068287D01*
G37*
G36*
X81373312Y-60068287D02*
X81463039Y-60095506D01*
X81545731Y-60139706D01*
X81618211Y-60199189D01*
X81677694Y-60271669D01*
X81721894Y-60354361D01*
X81749113Y-60444088D01*
X81756000Y-60514016D01*
X81756000Y-61710784D01*
X81749113Y-61780712D01*
X81721894Y-61870439D01*
X81677694Y-61953131D01*
X81618211Y-62025611D01*
X81545731Y-62085094D01*
X81463038Y-62129294D01*
X81373311Y-62156513D01*
X81280000Y-62165703D01*
X81186688Y-62156513D01*
X81096961Y-62129294D01*
X81014269Y-62085094D01*
X80941789Y-62025611D01*
X80882306Y-61953131D01*
X80838106Y-61870438D01*
X80810887Y-61780711D01*
X80804000Y-61710783D01*
X80804001Y-60514016D01*
X80810888Y-60444088D01*
X80838107Y-60354361D01*
X80882307Y-60271669D01*
X80941790Y-60199189D01*
X81014270Y-60139706D01*
X81096962Y-60095506D01*
X81186689Y-60068287D01*
X81280000Y-60059097D01*
X81373312Y-60068287D01*
X81373312Y-60068287D01*
G37*
G36*
X82643312Y-60068287D02*
X82733039Y-60095506D01*
X82815731Y-60139706D01*
X82888211Y-60199189D01*
X82947694Y-60271669D01*
X82991894Y-60354361D01*
X83019113Y-60444088D01*
X83026000Y-60514016D01*
X83026000Y-61710784D01*
X83019113Y-61780712D01*
X82991894Y-61870439D01*
X82947694Y-61953131D01*
X82888211Y-62025611D01*
X82815731Y-62085094D01*
X82733038Y-62129294D01*
X82643311Y-62156513D01*
X82550000Y-62165703D01*
X82456688Y-62156513D01*
X82366961Y-62129294D01*
X82284269Y-62085094D01*
X82211789Y-62025611D01*
X82152306Y-61953131D01*
X82108106Y-61870438D01*
X82080887Y-61780711D01*
X82074000Y-61710783D01*
X82074001Y-60514016D01*
X82080888Y-60444088D01*
X82108107Y-60354361D01*
X82152307Y-60271669D01*
X82211790Y-60199189D01*
X82284270Y-60139706D01*
X82366962Y-60095506D01*
X82456689Y-60068287D01*
X82550000Y-60059097D01*
X82643312Y-60068287D01*
X82643312Y-60068287D01*
G37*
G36*
X83913312Y-60068287D02*
X84003039Y-60095506D01*
X84085731Y-60139706D01*
X84158211Y-60199189D01*
X84217694Y-60271669D01*
X84261894Y-60354361D01*
X84289113Y-60444088D01*
X84296000Y-60514016D01*
X84296000Y-61710784D01*
X84289113Y-61780712D01*
X84261894Y-61870439D01*
X84217694Y-61953131D01*
X84158211Y-62025611D01*
X84085731Y-62085094D01*
X84003038Y-62129294D01*
X83913311Y-62156513D01*
X83820000Y-62165703D01*
X83726688Y-62156513D01*
X83636961Y-62129294D01*
X83554269Y-62085094D01*
X83481789Y-62025611D01*
X83422306Y-61953131D01*
X83378106Y-61870438D01*
X83350887Y-61780711D01*
X83344000Y-61710783D01*
X83344001Y-60514016D01*
X83350888Y-60444088D01*
X83378107Y-60354361D01*
X83422307Y-60271669D01*
X83481790Y-60199189D01*
X83554270Y-60139706D01*
X83636962Y-60095506D01*
X83726689Y-60068287D01*
X83820000Y-60059097D01*
X83913312Y-60068287D01*
X83913312Y-60068287D01*
G37*
G36*
X75023312Y-60068287D02*
X75113039Y-60095506D01*
X75195731Y-60139706D01*
X75268211Y-60199189D01*
X75327694Y-60271669D01*
X75371894Y-60354361D01*
X75399113Y-60444088D01*
X75406000Y-60514016D01*
X75406000Y-61710784D01*
X75399113Y-61780712D01*
X75371894Y-61870439D01*
X75327694Y-61953131D01*
X75268211Y-62025611D01*
X75195731Y-62085094D01*
X75113038Y-62129294D01*
X75023311Y-62156513D01*
X74930000Y-62165703D01*
X74836688Y-62156513D01*
X74746961Y-62129294D01*
X74664269Y-62085094D01*
X74591789Y-62025611D01*
X74532306Y-61953131D01*
X74488106Y-61870438D01*
X74460887Y-61780711D01*
X74454000Y-61710783D01*
X74454001Y-60514016D01*
X74460888Y-60444088D01*
X74488107Y-60354361D01*
X74532307Y-60271669D01*
X74591790Y-60199189D01*
X74664270Y-60139706D01*
X74746962Y-60095506D01*
X74836689Y-60068287D01*
X74930000Y-60059097D01*
X75023312Y-60068287D01*
X75023312Y-60068287D01*
G37*
G36*
X87307712Y-60668687D02*
X87397439Y-60695906D01*
X87480131Y-60740106D01*
X87552611Y-60799589D01*
X87612094Y-60872069D01*
X87656294Y-60954761D01*
X87683513Y-61044488D01*
X87692703Y-61137800D01*
X87683513Y-61231112D01*
X87656294Y-61320839D01*
X87612094Y-61403531D01*
X87552611Y-61476011D01*
X87480131Y-61535494D01*
X87397439Y-61579694D01*
X87307712Y-61606913D01*
X87237784Y-61613800D01*
X86041016Y-61613800D01*
X85971088Y-61606913D01*
X85881361Y-61579694D01*
X85798669Y-61535494D01*
X85726189Y-61476011D01*
X85666706Y-61403531D01*
X85622506Y-61320839D01*
X85595287Y-61231112D01*
X85586097Y-61137800D01*
X85595287Y-61044488D01*
X85622506Y-60954761D01*
X85666706Y-60872069D01*
X85726189Y-60799589D01*
X85798669Y-60740106D01*
X85881361Y-60695906D01*
X85971088Y-60668687D01*
X86041016Y-60661800D01*
X87237784Y-60661800D01*
X87307712Y-60668687D01*
X87307712Y-60668687D01*
G37*
G36*
X87307712Y-59398687D02*
X87397439Y-59425906D01*
X87480131Y-59470106D01*
X87552611Y-59529589D01*
X87612094Y-59602069D01*
X87656294Y-59684761D01*
X87683513Y-59774488D01*
X87692703Y-59867800D01*
X87683513Y-59961112D01*
X87656294Y-60050839D01*
X87612094Y-60133531D01*
X87552611Y-60206011D01*
X87480131Y-60265494D01*
X87397439Y-60309694D01*
X87307712Y-60336913D01*
X87237784Y-60343800D01*
X86041016Y-60343800D01*
X85971088Y-60336913D01*
X85881361Y-60309694D01*
X85798669Y-60265494D01*
X85726189Y-60206011D01*
X85666706Y-60133531D01*
X85622506Y-60050839D01*
X85595287Y-59961112D01*
X85586097Y-59867800D01*
X85595287Y-59774488D01*
X85622506Y-59684761D01*
X85666706Y-59602069D01*
X85726189Y-59529589D01*
X85798669Y-59470106D01*
X85881361Y-59425906D01*
X85971088Y-59398687D01*
X86041016Y-59391800D01*
X87237784Y-59391800D01*
X87307712Y-59398687D01*
X87307712Y-59398687D01*
G37*
G36*
X84405500Y-59240500D02*
X82853500Y-59240500D01*
X82853500Y-58488500D01*
X84405500Y-58488500D01*
X84405500Y-59240500D01*
X84405500Y-59240500D01*
G37*
G36*
X87307712Y-58128687D02*
X87397439Y-58155906D01*
X87480131Y-58200106D01*
X87552611Y-58259589D01*
X87612094Y-58332069D01*
X87656294Y-58414761D01*
X87683513Y-58504488D01*
X87692703Y-58597800D01*
X87683513Y-58691112D01*
X87656294Y-58780839D01*
X87612094Y-58863531D01*
X87552611Y-58936011D01*
X87480131Y-58995494D01*
X87397439Y-59039694D01*
X87307712Y-59066913D01*
X87237784Y-59073800D01*
X86041016Y-59073800D01*
X85971088Y-59066913D01*
X85881361Y-59039694D01*
X85798669Y-58995494D01*
X85726189Y-58936011D01*
X85666706Y-58863531D01*
X85622506Y-58780839D01*
X85595287Y-58691112D01*
X85586097Y-58597800D01*
X85595287Y-58504488D01*
X85622506Y-58414761D01*
X85666706Y-58332069D01*
X85726189Y-58259589D01*
X85798669Y-58200106D01*
X85881361Y-58155906D01*
X85971088Y-58128687D01*
X86041016Y-58121800D01*
X87237784Y-58121800D01*
X87307712Y-58128687D01*
X87307712Y-58128687D01*
G37*
G36*
X75488400Y-58850320D02*
X73936400Y-58850320D01*
X73936400Y-58098320D01*
X75488400Y-58098320D01*
X75488400Y-58850320D01*
X75488400Y-58850320D01*
G37*
G36*
X78365067Y-53339542D02*
X78384801Y-53341485D01*
X78405859Y-53347873D01*
X78413269Y-53350121D01*
X78439494Y-53364138D01*
X78462490Y-53383012D01*
X78483577Y-53408705D01*
X78500904Y-53426031D01*
X78521279Y-53439645D01*
X78543919Y-53449021D01*
X78567952Y-53453801D01*
X78592456Y-53453801D01*
X78616490Y-53449020D01*
X78639128Y-53439642D01*
X78659503Y-53426027D01*
X78676827Y-53408703D01*
X78679040Y-53406006D01*
X78679042Y-53406003D01*
X78697912Y-53383011D01*
X78697913Y-53383010D01*
X78720907Y-53364138D01*
X78747132Y-53350121D01*
X78754542Y-53347873D01*
X78775600Y-53341485D01*
X78805200Y-53338570D01*
X78805201Y-53338570D01*
X78815067Y-53339542D01*
X78834801Y-53341485D01*
X78855859Y-53347873D01*
X78863269Y-53350121D01*
X78889494Y-53364138D01*
X78912490Y-53383012D01*
X78933577Y-53408705D01*
X78950904Y-53426031D01*
X78971279Y-53439645D01*
X78993919Y-53449021D01*
X79017952Y-53453801D01*
X79042456Y-53453801D01*
X79066490Y-53449020D01*
X79089128Y-53439642D01*
X79109503Y-53426027D01*
X79126827Y-53408703D01*
X79129040Y-53406006D01*
X79129042Y-53406003D01*
X79147912Y-53383011D01*
X79147913Y-53383010D01*
X79170907Y-53364138D01*
X79197132Y-53350121D01*
X79204542Y-53347873D01*
X79225600Y-53341485D01*
X79255200Y-53338570D01*
X79255201Y-53338570D01*
X79265067Y-53339542D01*
X79284801Y-53341485D01*
X79305859Y-53347873D01*
X79313269Y-53350121D01*
X79339494Y-53364138D01*
X79362490Y-53383012D01*
X79383577Y-53408705D01*
X79400904Y-53426031D01*
X79421279Y-53439645D01*
X79443919Y-53449021D01*
X79467952Y-53453801D01*
X79492456Y-53453801D01*
X79516490Y-53449020D01*
X79539128Y-53439642D01*
X79559503Y-53426027D01*
X79576827Y-53408703D01*
X79579040Y-53406006D01*
X79579042Y-53406003D01*
X79597912Y-53383011D01*
X79597913Y-53383010D01*
X79620907Y-53364138D01*
X79647132Y-53350121D01*
X79654542Y-53347873D01*
X79675600Y-53341485D01*
X79705200Y-53338570D01*
X79705201Y-53338570D01*
X79715067Y-53339542D01*
X79734801Y-53341485D01*
X79755859Y-53347873D01*
X79763269Y-53350121D01*
X79789494Y-53364138D01*
X79812490Y-53383012D01*
X79833577Y-53408705D01*
X79850904Y-53426031D01*
X79871279Y-53439645D01*
X79893919Y-53449021D01*
X79917952Y-53453801D01*
X79942456Y-53453801D01*
X79966490Y-53449020D01*
X79989128Y-53439642D01*
X80009503Y-53426027D01*
X80026827Y-53408703D01*
X80029040Y-53406006D01*
X80029042Y-53406003D01*
X80047912Y-53383011D01*
X80047913Y-53383010D01*
X80070907Y-53364138D01*
X80097132Y-53350121D01*
X80104542Y-53347873D01*
X80125600Y-53341485D01*
X80155200Y-53338570D01*
X80155201Y-53338570D01*
X80165067Y-53339542D01*
X80184801Y-53341485D01*
X80205859Y-53347873D01*
X80213269Y-53350121D01*
X80239494Y-53364138D01*
X80262490Y-53383012D01*
X80283577Y-53408705D01*
X80300904Y-53426031D01*
X80321279Y-53439645D01*
X80343919Y-53449021D01*
X80367952Y-53453801D01*
X80392456Y-53453801D01*
X80416490Y-53449020D01*
X80439128Y-53439642D01*
X80459503Y-53426027D01*
X80476827Y-53408703D01*
X80479040Y-53406006D01*
X80479042Y-53406003D01*
X80497912Y-53383011D01*
X80497913Y-53383010D01*
X80520907Y-53364138D01*
X80547132Y-53350121D01*
X80554542Y-53347873D01*
X80575600Y-53341485D01*
X80605200Y-53338570D01*
X80605201Y-53338570D01*
X80615067Y-53339542D01*
X80634801Y-53341485D01*
X80655859Y-53347873D01*
X80663269Y-53350121D01*
X80689494Y-53364138D01*
X80712490Y-53383012D01*
X80733577Y-53408705D01*
X80750904Y-53426031D01*
X80771279Y-53439645D01*
X80793919Y-53449021D01*
X80817952Y-53453801D01*
X80842456Y-53453801D01*
X80866490Y-53449020D01*
X80889128Y-53439642D01*
X80909503Y-53426027D01*
X80926827Y-53408703D01*
X80929040Y-53406006D01*
X80929042Y-53406003D01*
X80947912Y-53383011D01*
X80947913Y-53383010D01*
X80970907Y-53364138D01*
X80997132Y-53350121D01*
X81004542Y-53347873D01*
X81025600Y-53341485D01*
X81055200Y-53338570D01*
X81055201Y-53338570D01*
X81065067Y-53339542D01*
X81084801Y-53341485D01*
X81105859Y-53347873D01*
X81113269Y-53350121D01*
X81139494Y-53364138D01*
X81162489Y-53383011D01*
X81181362Y-53406006D01*
X81195379Y-53432231D01*
X81195380Y-53432235D01*
X81204015Y-53460699D01*
X81204015Y-53460701D01*
X81206200Y-53482886D01*
X81206200Y-54097717D01*
X81205661Y-54103191D01*
X81205661Y-54127695D01*
X81210442Y-54151729D01*
X81219820Y-54174368D01*
X81233434Y-54194742D01*
X81250762Y-54212069D01*
X81271136Y-54225682D01*
X81293776Y-54235059D01*
X81317809Y-54239839D01*
X81342309Y-54239839D01*
X81347783Y-54239300D01*
X81962614Y-54239300D01*
X81970009Y-54240028D01*
X81984801Y-54241485D01*
X81998174Y-54245542D01*
X82013269Y-54250121D01*
X82039494Y-54264138D01*
X82062489Y-54283011D01*
X82081362Y-54306006D01*
X82095379Y-54332231D01*
X82095380Y-54332235D01*
X82104015Y-54360699D01*
X82106930Y-54390300D01*
X82104015Y-54419901D01*
X82097627Y-54440959D01*
X82095379Y-54448369D01*
X82081362Y-54474594D01*
X82071924Y-54486093D01*
X82062489Y-54497589D01*
X82062487Y-54497590D01*
X82062486Y-54497592D01*
X82036797Y-54518676D01*
X82019470Y-54536003D01*
X82005856Y-54556378D01*
X81996480Y-54579017D01*
X81991700Y-54603051D01*
X81991700Y-54627555D01*
X81996481Y-54651588D01*
X82005859Y-54674227D01*
X82019474Y-54694601D01*
X82036797Y-54711924D01*
X82062486Y-54733008D01*
X82062487Y-54733010D01*
X82062489Y-54733011D01*
X82071924Y-54744507D01*
X82081362Y-54756006D01*
X82095379Y-54782231D01*
X82095380Y-54782235D01*
X82104015Y-54810699D01*
X82106930Y-54840300D01*
X82104015Y-54869901D01*
X82097627Y-54890959D01*
X82095379Y-54898369D01*
X82081362Y-54924594D01*
X82071924Y-54936093D01*
X82062489Y-54947589D01*
X82062487Y-54947590D01*
X82062486Y-54947592D01*
X82036797Y-54968676D01*
X82019470Y-54986003D01*
X82005856Y-55006378D01*
X81996480Y-55029017D01*
X81991700Y-55053051D01*
X81991700Y-55077555D01*
X81996481Y-55101588D01*
X82005859Y-55124227D01*
X82019474Y-55144601D01*
X82036797Y-55161924D01*
X82062486Y-55183008D01*
X82062487Y-55183010D01*
X82062489Y-55183011D01*
X82064528Y-55185496D01*
X82081362Y-55206006D01*
X82095379Y-55232231D01*
X82095380Y-55232235D01*
X82104015Y-55260699D01*
X82106930Y-55290300D01*
X82104015Y-55319901D01*
X82097627Y-55340959D01*
X82095379Y-55348369D01*
X82081362Y-55374594D01*
X82079387Y-55377000D01*
X82062489Y-55397589D01*
X82062487Y-55397590D01*
X82062486Y-55397592D01*
X82036797Y-55418676D01*
X82019470Y-55436003D01*
X82005856Y-55456378D01*
X81996480Y-55479017D01*
X81991700Y-55503051D01*
X81991700Y-55527555D01*
X81996481Y-55551588D01*
X82005859Y-55574227D01*
X82019474Y-55594601D01*
X82036797Y-55611924D01*
X82062486Y-55633008D01*
X82062487Y-55633010D01*
X82062489Y-55633011D01*
X82071924Y-55644507D01*
X82081362Y-55656006D01*
X82095379Y-55682231D01*
X82095380Y-55682235D01*
X82104015Y-55710699D01*
X82106930Y-55740300D01*
X82104015Y-55769901D01*
X82097627Y-55790959D01*
X82095379Y-55798369D01*
X82081362Y-55824594D01*
X82071924Y-55836093D01*
X82062489Y-55847589D01*
X82062487Y-55847590D01*
X82062486Y-55847592D01*
X82036797Y-55868676D01*
X82019470Y-55886003D01*
X82005856Y-55906378D01*
X81996480Y-55929017D01*
X81991700Y-55953051D01*
X81991700Y-55977555D01*
X81996481Y-56001588D01*
X82005859Y-56024227D01*
X82019474Y-56044601D01*
X82036797Y-56061924D01*
X82062486Y-56083008D01*
X82062487Y-56083010D01*
X82062489Y-56083011D01*
X82071924Y-56094507D01*
X82081362Y-56106006D01*
X82095379Y-56132231D01*
X82095380Y-56132235D01*
X82104015Y-56160699D01*
X82106930Y-56190300D01*
X82104015Y-56219901D01*
X82097663Y-56240838D01*
X82095379Y-56248369D01*
X82081362Y-56274594D01*
X82071924Y-56286093D01*
X82062489Y-56297589D01*
X82062487Y-56297590D01*
X82062486Y-56297592D01*
X82036797Y-56318676D01*
X82019470Y-56336003D01*
X82005856Y-56356378D01*
X81996480Y-56379017D01*
X81991700Y-56403051D01*
X81991700Y-56427555D01*
X81996481Y-56451588D01*
X82005859Y-56474227D01*
X82019474Y-56494601D01*
X82036797Y-56511924D01*
X82062486Y-56533008D01*
X82062487Y-56533010D01*
X82062489Y-56533011D01*
X82071924Y-56544507D01*
X82081362Y-56556006D01*
X82095379Y-56582231D01*
X82095380Y-56582235D01*
X82104015Y-56610699D01*
X82106930Y-56640300D01*
X82104015Y-56669901D01*
X82097627Y-56690959D01*
X82095379Y-56698369D01*
X82081362Y-56724594D01*
X82072082Y-56735900D01*
X82062489Y-56747589D01*
X82062487Y-56747590D01*
X82062486Y-56747592D01*
X82036797Y-56768676D01*
X82019470Y-56786003D01*
X82005856Y-56806378D01*
X81996480Y-56829017D01*
X81991700Y-56853051D01*
X81991700Y-56877555D01*
X81996481Y-56901588D01*
X82005859Y-56924227D01*
X82019474Y-56944601D01*
X82036797Y-56961924D01*
X82062486Y-56983008D01*
X82062487Y-56983010D01*
X82062489Y-56983011D01*
X82071924Y-56994507D01*
X82081362Y-57006006D01*
X82095379Y-57032231D01*
X82095380Y-57032235D01*
X82104015Y-57060699D01*
X82106930Y-57090300D01*
X82104015Y-57119901D01*
X82097627Y-57140959D01*
X82095379Y-57148369D01*
X82081362Y-57174594D01*
X82062489Y-57197589D01*
X82039494Y-57216462D01*
X82013269Y-57230479D01*
X82005859Y-57232727D01*
X81984801Y-57239115D01*
X81970009Y-57240572D01*
X81962614Y-57241300D01*
X81347783Y-57241300D01*
X81342309Y-57240761D01*
X81317805Y-57240761D01*
X81293771Y-57245542D01*
X81271132Y-57254920D01*
X81250758Y-57268534D01*
X81233431Y-57285862D01*
X81219818Y-57306236D01*
X81210441Y-57328876D01*
X81205661Y-57352909D01*
X81205661Y-57377409D01*
X81206200Y-57382887D01*
X81206200Y-57997713D01*
X81204015Y-58019901D01*
X81197628Y-58040956D01*
X81195379Y-58048369D01*
X81181362Y-58074594D01*
X81162489Y-58097589D01*
X81139496Y-58116460D01*
X81116619Y-58128687D01*
X81113264Y-58130480D01*
X81084800Y-58139115D01*
X81055200Y-58142030D01*
X81055199Y-58142030D01*
X81045333Y-58141058D01*
X81025599Y-58139115D01*
X81004541Y-58132727D01*
X80997131Y-58130479D01*
X80970906Y-58116462D01*
X80948802Y-58098320D01*
X80947911Y-58097589D01*
X80947910Y-58097587D01*
X80947908Y-58097586D01*
X80926824Y-58071897D01*
X80909497Y-58054570D01*
X80889122Y-58040956D01*
X80866483Y-58031580D01*
X80842449Y-58026800D01*
X80817945Y-58026800D01*
X80793912Y-58031581D01*
X80771273Y-58040959D01*
X80750899Y-58054574D01*
X80733576Y-58071897D01*
X80712492Y-58097586D01*
X80712490Y-58097587D01*
X80712489Y-58097589D01*
X80711598Y-58098320D01*
X80689496Y-58116460D01*
X80666619Y-58128687D01*
X80663264Y-58130480D01*
X80634800Y-58139115D01*
X80605200Y-58142030D01*
X80605199Y-58142030D01*
X80595333Y-58141058D01*
X80575599Y-58139115D01*
X80554541Y-58132727D01*
X80547131Y-58130479D01*
X80520906Y-58116462D01*
X80498802Y-58098320D01*
X80497911Y-58097589D01*
X80497910Y-58097587D01*
X80497908Y-58097586D01*
X80476824Y-58071897D01*
X80459497Y-58054570D01*
X80439122Y-58040956D01*
X80416483Y-58031580D01*
X80392449Y-58026800D01*
X80367945Y-58026800D01*
X80343912Y-58031581D01*
X80321273Y-58040959D01*
X80300899Y-58054574D01*
X80283576Y-58071897D01*
X80262492Y-58097586D01*
X80262490Y-58097587D01*
X80262489Y-58097589D01*
X80261598Y-58098320D01*
X80239496Y-58116460D01*
X80216619Y-58128687D01*
X80213264Y-58130480D01*
X80184800Y-58139115D01*
X80155200Y-58142030D01*
X80155199Y-58142030D01*
X80145333Y-58141058D01*
X80125599Y-58139115D01*
X80104541Y-58132727D01*
X80097131Y-58130479D01*
X80070906Y-58116462D01*
X80048802Y-58098320D01*
X80047911Y-58097589D01*
X80047910Y-58097587D01*
X80047908Y-58097586D01*
X80026824Y-58071897D01*
X80009497Y-58054570D01*
X79989122Y-58040956D01*
X79966483Y-58031580D01*
X79942449Y-58026800D01*
X79917945Y-58026800D01*
X79893912Y-58031581D01*
X79871273Y-58040959D01*
X79850899Y-58054574D01*
X79833576Y-58071897D01*
X79812492Y-58097586D01*
X79812490Y-58097587D01*
X79812489Y-58097589D01*
X79811598Y-58098320D01*
X79789496Y-58116460D01*
X79766619Y-58128687D01*
X79763264Y-58130480D01*
X79734800Y-58139115D01*
X79705200Y-58142030D01*
X79705199Y-58142030D01*
X79695333Y-58141058D01*
X79675599Y-58139115D01*
X79654541Y-58132727D01*
X79647131Y-58130479D01*
X79620906Y-58116462D01*
X79598802Y-58098320D01*
X79597911Y-58097589D01*
X79597910Y-58097587D01*
X79597908Y-58097586D01*
X79576824Y-58071897D01*
X79559497Y-58054570D01*
X79539122Y-58040956D01*
X79516483Y-58031580D01*
X79492449Y-58026800D01*
X79467945Y-58026800D01*
X79443912Y-58031581D01*
X79421273Y-58040959D01*
X79400899Y-58054574D01*
X79383576Y-58071897D01*
X79362492Y-58097586D01*
X79362490Y-58097587D01*
X79362489Y-58097589D01*
X79361598Y-58098320D01*
X79339496Y-58116460D01*
X79316619Y-58128687D01*
X79313264Y-58130480D01*
X79284800Y-58139115D01*
X79255200Y-58142030D01*
X79255199Y-58142030D01*
X79245333Y-58141058D01*
X79225599Y-58139115D01*
X79204541Y-58132727D01*
X79197131Y-58130479D01*
X79170906Y-58116462D01*
X79148802Y-58098320D01*
X79147911Y-58097589D01*
X79147910Y-58097587D01*
X79147908Y-58097586D01*
X79126824Y-58071897D01*
X79109497Y-58054570D01*
X79089122Y-58040956D01*
X79066483Y-58031580D01*
X79042449Y-58026800D01*
X79017945Y-58026800D01*
X78993912Y-58031581D01*
X78971273Y-58040959D01*
X78950899Y-58054574D01*
X78933576Y-58071897D01*
X78912492Y-58097586D01*
X78912490Y-58097587D01*
X78912489Y-58097589D01*
X78911598Y-58098320D01*
X78889496Y-58116460D01*
X78866619Y-58128687D01*
X78863264Y-58130480D01*
X78834800Y-58139115D01*
X78805200Y-58142030D01*
X78805199Y-58142030D01*
X78795333Y-58141058D01*
X78775599Y-58139115D01*
X78754541Y-58132727D01*
X78747131Y-58130479D01*
X78720906Y-58116462D01*
X78698802Y-58098320D01*
X78697911Y-58097589D01*
X78697910Y-58097587D01*
X78697908Y-58097586D01*
X78676824Y-58071897D01*
X78659497Y-58054570D01*
X78639122Y-58040956D01*
X78616483Y-58031580D01*
X78592449Y-58026800D01*
X78567945Y-58026800D01*
X78543912Y-58031581D01*
X78521273Y-58040959D01*
X78500899Y-58054574D01*
X78483576Y-58071897D01*
X78462492Y-58097586D01*
X78462490Y-58097587D01*
X78462489Y-58097589D01*
X78461598Y-58098320D01*
X78439496Y-58116460D01*
X78416619Y-58128687D01*
X78413264Y-58130480D01*
X78384800Y-58139115D01*
X78355200Y-58142030D01*
X78355199Y-58142030D01*
X78345333Y-58141058D01*
X78325599Y-58139115D01*
X78304541Y-58132727D01*
X78297131Y-58130479D01*
X78270906Y-58116462D01*
X78247911Y-58097589D01*
X78229040Y-58074596D01*
X78215021Y-58048366D01*
X78209929Y-58031581D01*
X78206385Y-58019900D01*
X78204200Y-57997712D01*
X78204201Y-57382887D01*
X78204740Y-57377409D01*
X78204740Y-57352905D01*
X78199959Y-57328871D01*
X78190581Y-57306232D01*
X78176967Y-57285858D01*
X78159639Y-57268531D01*
X78139265Y-57254918D01*
X78116625Y-57245541D01*
X78092592Y-57240761D01*
X78068093Y-57240761D01*
X78062619Y-57241300D01*
X77447786Y-57241300D01*
X77440391Y-57240572D01*
X77425599Y-57239115D01*
X77404541Y-57232727D01*
X77397131Y-57230479D01*
X77370906Y-57216462D01*
X77347911Y-57197589D01*
X77329038Y-57174594D01*
X77315021Y-57148369D01*
X77312773Y-57140959D01*
X77306385Y-57119901D01*
X77303470Y-57090300D01*
X77306385Y-57060699D01*
X77315020Y-57032235D01*
X77315021Y-57032231D01*
X77329038Y-57006006D01*
X77338476Y-56994507D01*
X77347911Y-56983011D01*
X77347913Y-56983010D01*
X77347914Y-56983008D01*
X77373603Y-56961924D01*
X77390930Y-56944597D01*
X77404544Y-56924222D01*
X77413920Y-56901583D01*
X77418700Y-56877549D01*
X77418700Y-56853045D01*
X77413919Y-56829012D01*
X77404541Y-56806373D01*
X77390926Y-56785999D01*
X77373603Y-56768676D01*
X77347914Y-56747592D01*
X77347913Y-56747590D01*
X77347911Y-56747589D01*
X77338318Y-56735900D01*
X77329038Y-56724594D01*
X77315021Y-56698369D01*
X77312773Y-56690959D01*
X77306385Y-56669901D01*
X77303470Y-56640300D01*
X77306385Y-56610699D01*
X77315020Y-56582235D01*
X77315021Y-56582231D01*
X77329038Y-56556006D01*
X77338476Y-56544507D01*
X77347911Y-56533011D01*
X77347913Y-56533010D01*
X77347914Y-56533008D01*
X77373603Y-56511924D01*
X77390930Y-56494597D01*
X77404544Y-56474222D01*
X77413920Y-56451583D01*
X77418700Y-56427549D01*
X77418700Y-56403045D01*
X77413919Y-56379012D01*
X77404541Y-56356373D01*
X77390926Y-56335999D01*
X77373603Y-56318676D01*
X77347914Y-56297592D01*
X77347913Y-56297590D01*
X77347911Y-56297589D01*
X77338476Y-56286093D01*
X77329038Y-56274594D01*
X77315021Y-56248369D01*
X77312737Y-56240838D01*
X77306385Y-56219901D01*
X77303470Y-56190300D01*
X77306385Y-56160699D01*
X77315020Y-56132235D01*
X77315021Y-56132231D01*
X77329038Y-56106006D01*
X77338476Y-56094507D01*
X77347911Y-56083011D01*
X77347913Y-56083010D01*
X77347914Y-56083008D01*
X77373603Y-56061924D01*
X77390930Y-56044597D01*
X77404544Y-56024222D01*
X77413920Y-56001583D01*
X77418700Y-55977549D01*
X77418700Y-55953045D01*
X77413919Y-55929012D01*
X77404541Y-55906373D01*
X77390926Y-55885999D01*
X77373603Y-55868676D01*
X77347914Y-55847592D01*
X77347913Y-55847590D01*
X77347911Y-55847589D01*
X77338476Y-55836093D01*
X77329038Y-55824594D01*
X77315021Y-55798369D01*
X77312773Y-55790959D01*
X77306385Y-55769901D01*
X77303470Y-55740300D01*
X77306385Y-55710699D01*
X77315020Y-55682235D01*
X77315021Y-55682231D01*
X77329038Y-55656006D01*
X77338476Y-55644507D01*
X77347911Y-55633011D01*
X77347913Y-55633010D01*
X77347914Y-55633008D01*
X77373603Y-55611924D01*
X77390930Y-55594597D01*
X77404544Y-55574222D01*
X77413920Y-55551583D01*
X77418700Y-55527549D01*
X77418700Y-55503045D01*
X77413919Y-55479012D01*
X77404541Y-55456373D01*
X77390926Y-55435999D01*
X77373603Y-55418676D01*
X77347914Y-55397592D01*
X77347913Y-55397590D01*
X77347911Y-55397589D01*
X77331013Y-55377000D01*
X77329038Y-55374594D01*
X77315021Y-55348369D01*
X77312773Y-55340959D01*
X77306385Y-55319901D01*
X77303470Y-55290300D01*
X77306385Y-55260699D01*
X77315020Y-55232235D01*
X77315021Y-55232231D01*
X77329038Y-55206006D01*
X77345872Y-55185496D01*
X77347911Y-55183011D01*
X77347913Y-55183010D01*
X77347914Y-55183008D01*
X77373603Y-55161924D01*
X77390930Y-55144597D01*
X77404544Y-55124222D01*
X77413920Y-55101583D01*
X77418700Y-55077549D01*
X77418700Y-55053045D01*
X77413919Y-55029012D01*
X77404541Y-55006373D01*
X77390926Y-54985999D01*
X77373603Y-54968676D01*
X77347914Y-54947592D01*
X77347913Y-54947590D01*
X77347911Y-54947589D01*
X77338476Y-54936093D01*
X77329038Y-54924594D01*
X77315021Y-54898369D01*
X77312773Y-54890959D01*
X77306385Y-54869901D01*
X77303470Y-54840300D01*
X77306385Y-54810699D01*
X77315020Y-54782235D01*
X77315021Y-54782231D01*
X77329038Y-54756006D01*
X77338476Y-54744507D01*
X77347911Y-54733011D01*
X77347913Y-54733010D01*
X77347914Y-54733008D01*
X77373603Y-54711924D01*
X77390930Y-54694597D01*
X77404544Y-54674222D01*
X77413920Y-54651583D01*
X77418700Y-54627549D01*
X77418700Y-54603051D01*
X78091700Y-54603051D01*
X78091700Y-54627555D01*
X78096481Y-54651588D01*
X78105859Y-54674227D01*
X78119474Y-54694601D01*
X78136797Y-54711924D01*
X78162486Y-54733008D01*
X78162487Y-54733010D01*
X78162489Y-54733011D01*
X78171924Y-54744507D01*
X78181362Y-54756006D01*
X78195379Y-54782231D01*
X78195380Y-54782235D01*
X78204015Y-54810699D01*
X78206930Y-54840300D01*
X78204015Y-54869901D01*
X78197627Y-54890959D01*
X78195379Y-54898369D01*
X78181362Y-54924594D01*
X78171924Y-54936093D01*
X78162489Y-54947589D01*
X78162487Y-54947590D01*
X78162486Y-54947592D01*
X78136797Y-54968676D01*
X78119470Y-54986003D01*
X78105856Y-55006378D01*
X78096480Y-55029017D01*
X78091700Y-55053051D01*
X78091700Y-55077555D01*
X78096481Y-55101588D01*
X78105859Y-55124227D01*
X78119474Y-55144601D01*
X78136797Y-55161924D01*
X78162486Y-55183008D01*
X78162487Y-55183010D01*
X78162489Y-55183011D01*
X78164528Y-55185496D01*
X78181362Y-55206006D01*
X78195379Y-55232231D01*
X78195380Y-55232235D01*
X78204015Y-55260699D01*
X78206930Y-55290300D01*
X78204015Y-55319901D01*
X78197627Y-55340959D01*
X78195379Y-55348369D01*
X78181362Y-55374594D01*
X78179387Y-55377000D01*
X78162489Y-55397589D01*
X78162487Y-55397590D01*
X78162486Y-55397592D01*
X78136797Y-55418676D01*
X78119470Y-55436003D01*
X78105856Y-55456378D01*
X78096480Y-55479017D01*
X78091700Y-55503051D01*
X78091700Y-55527555D01*
X78096481Y-55551588D01*
X78105859Y-55574227D01*
X78119474Y-55594601D01*
X78136797Y-55611924D01*
X78162486Y-55633008D01*
X78162487Y-55633010D01*
X78162489Y-55633011D01*
X78171924Y-55644507D01*
X78181362Y-55656006D01*
X78195379Y-55682231D01*
X78195380Y-55682235D01*
X78204015Y-55710699D01*
X78206930Y-55740300D01*
X78204015Y-55769901D01*
X78197627Y-55790959D01*
X78195379Y-55798369D01*
X78181362Y-55824594D01*
X78171924Y-55836093D01*
X78162489Y-55847589D01*
X78162487Y-55847590D01*
X78162486Y-55847592D01*
X78136797Y-55868676D01*
X78119470Y-55886003D01*
X78105856Y-55906378D01*
X78096480Y-55929017D01*
X78091700Y-55953051D01*
X78091700Y-55977555D01*
X78096481Y-56001588D01*
X78105859Y-56024227D01*
X78119474Y-56044601D01*
X78136797Y-56061924D01*
X78162486Y-56083008D01*
X78162487Y-56083010D01*
X78162489Y-56083011D01*
X78171924Y-56094507D01*
X78181362Y-56106006D01*
X78195379Y-56132231D01*
X78195380Y-56132235D01*
X78204015Y-56160699D01*
X78206930Y-56190300D01*
X78204015Y-56219901D01*
X78197663Y-56240838D01*
X78195379Y-56248369D01*
X78181362Y-56274594D01*
X78171924Y-56286093D01*
X78162489Y-56297589D01*
X78162487Y-56297590D01*
X78162486Y-56297592D01*
X78136797Y-56318676D01*
X78119470Y-56336003D01*
X78105856Y-56356378D01*
X78096480Y-56379017D01*
X78091700Y-56403051D01*
X78091700Y-56427555D01*
X78096481Y-56451588D01*
X78105859Y-56474227D01*
X78119474Y-56494601D01*
X78136797Y-56511924D01*
X78162486Y-56533008D01*
X78162487Y-56533010D01*
X78162489Y-56533011D01*
X78171924Y-56544507D01*
X78181362Y-56556006D01*
X78195379Y-56582231D01*
X78195380Y-56582235D01*
X78204015Y-56610699D01*
X78206930Y-56640300D01*
X78204015Y-56669901D01*
X78197627Y-56690959D01*
X78195379Y-56698369D01*
X78181362Y-56724594D01*
X78172082Y-56735900D01*
X78162489Y-56747589D01*
X78162487Y-56747590D01*
X78162486Y-56747592D01*
X78136797Y-56768676D01*
X78119470Y-56786003D01*
X78105856Y-56806378D01*
X78096480Y-56829017D01*
X78091700Y-56853051D01*
X78091700Y-56877555D01*
X78096481Y-56901588D01*
X78105859Y-56924227D01*
X78119474Y-56944601D01*
X78136797Y-56961924D01*
X78162486Y-56983008D01*
X78162487Y-56983010D01*
X78162489Y-56983011D01*
X78171924Y-56994507D01*
X78181362Y-57006006D01*
X78195379Y-57032231D01*
X78195380Y-57032235D01*
X78204015Y-57060699D01*
X78204015Y-57060701D01*
X78206930Y-57090300D01*
X78205661Y-57103190D01*
X78205661Y-57127694D01*
X78210442Y-57151727D01*
X78219819Y-57174366D01*
X78233433Y-57194741D01*
X78250760Y-57212068D01*
X78271135Y-57225682D01*
X78293774Y-57235059D01*
X78317808Y-57239839D01*
X78342310Y-57239839D01*
X78355199Y-57238570D01*
X78355200Y-57238570D01*
X78384801Y-57241485D01*
X78398174Y-57245542D01*
X78413269Y-57250121D01*
X78439494Y-57264138D01*
X78462490Y-57283012D01*
X78483577Y-57308705D01*
X78500904Y-57326031D01*
X78521279Y-57339645D01*
X78543919Y-57349021D01*
X78567952Y-57353801D01*
X78592456Y-57353801D01*
X78616490Y-57349020D01*
X78639128Y-57339642D01*
X78659503Y-57326027D01*
X78676827Y-57308703D01*
X78679040Y-57306006D01*
X78679042Y-57306003D01*
X78697912Y-57283011D01*
X78715551Y-57268534D01*
X78720907Y-57264138D01*
X78747132Y-57250121D01*
X78762227Y-57245542D01*
X78775600Y-57241485D01*
X78805200Y-57238570D01*
X78805201Y-57238570D01*
X78815067Y-57239542D01*
X78834801Y-57241485D01*
X78848174Y-57245542D01*
X78863269Y-57250121D01*
X78889494Y-57264138D01*
X78912490Y-57283012D01*
X78933577Y-57308705D01*
X78950904Y-57326031D01*
X78971279Y-57339645D01*
X78993919Y-57349021D01*
X79017952Y-57353801D01*
X79042456Y-57353801D01*
X79066490Y-57349020D01*
X79089128Y-57339642D01*
X79109503Y-57326027D01*
X79126827Y-57308703D01*
X79129040Y-57306006D01*
X79129042Y-57306003D01*
X79147912Y-57283011D01*
X79165551Y-57268534D01*
X79170907Y-57264138D01*
X79197132Y-57250121D01*
X79212227Y-57245542D01*
X79225600Y-57241485D01*
X79255200Y-57238570D01*
X79255201Y-57238570D01*
X79265067Y-57239542D01*
X79284801Y-57241485D01*
X79298174Y-57245542D01*
X79313269Y-57250121D01*
X79339494Y-57264138D01*
X79362490Y-57283012D01*
X79383577Y-57308705D01*
X79400904Y-57326031D01*
X79421279Y-57339645D01*
X79443919Y-57349021D01*
X79467952Y-57353801D01*
X79492456Y-57353801D01*
X79516490Y-57349020D01*
X79539128Y-57339642D01*
X79559503Y-57326027D01*
X79576827Y-57308703D01*
X79579040Y-57306006D01*
X79579042Y-57306003D01*
X79597912Y-57283011D01*
X79615551Y-57268534D01*
X79620907Y-57264138D01*
X79647132Y-57250121D01*
X79662227Y-57245542D01*
X79675600Y-57241485D01*
X79705200Y-57238570D01*
X79705201Y-57238570D01*
X79715067Y-57239542D01*
X79734801Y-57241485D01*
X79748174Y-57245542D01*
X79763269Y-57250121D01*
X79789494Y-57264138D01*
X79812490Y-57283012D01*
X79833577Y-57308705D01*
X79850904Y-57326031D01*
X79871279Y-57339645D01*
X79893919Y-57349021D01*
X79917952Y-57353801D01*
X79942456Y-57353801D01*
X79966490Y-57349020D01*
X79989128Y-57339642D01*
X80009503Y-57326027D01*
X80026827Y-57308703D01*
X80029040Y-57306006D01*
X80029042Y-57306003D01*
X80047912Y-57283011D01*
X80065551Y-57268534D01*
X80070907Y-57264138D01*
X80097132Y-57250121D01*
X80112227Y-57245542D01*
X80125600Y-57241485D01*
X80155200Y-57238570D01*
X80155201Y-57238570D01*
X80165067Y-57239542D01*
X80184801Y-57241485D01*
X80198174Y-57245542D01*
X80213269Y-57250121D01*
X80239494Y-57264138D01*
X80262490Y-57283012D01*
X80283577Y-57308705D01*
X80300904Y-57326031D01*
X80321279Y-57339645D01*
X80343919Y-57349021D01*
X80367952Y-57353801D01*
X80392456Y-57353801D01*
X80416490Y-57349020D01*
X80439128Y-57339642D01*
X80459503Y-57326027D01*
X80476827Y-57308703D01*
X80479040Y-57306006D01*
X80479042Y-57306003D01*
X80497912Y-57283011D01*
X80515551Y-57268534D01*
X80520907Y-57264138D01*
X80547132Y-57250121D01*
X80562227Y-57245542D01*
X80575600Y-57241485D01*
X80605200Y-57238570D01*
X80605201Y-57238570D01*
X80615067Y-57239542D01*
X80634801Y-57241485D01*
X80648174Y-57245542D01*
X80663269Y-57250121D01*
X80689494Y-57264138D01*
X80712490Y-57283012D01*
X80733577Y-57308705D01*
X80750904Y-57326031D01*
X80771279Y-57339645D01*
X80793919Y-57349021D01*
X80817952Y-57353801D01*
X80842456Y-57353801D01*
X80866490Y-57349020D01*
X80889128Y-57339642D01*
X80909503Y-57326027D01*
X80926827Y-57308703D01*
X80929040Y-57306006D01*
X80929042Y-57306003D01*
X80947912Y-57283011D01*
X80965551Y-57268534D01*
X80970907Y-57264138D01*
X80997132Y-57250121D01*
X81012227Y-57245542D01*
X81025600Y-57241485D01*
X81055200Y-57238570D01*
X81055202Y-57238570D01*
X81068090Y-57239839D01*
X81092594Y-57239839D01*
X81116627Y-57235058D01*
X81139266Y-57225681D01*
X81159641Y-57212067D01*
X81176968Y-57194740D01*
X81190582Y-57174365D01*
X81199959Y-57151726D01*
X81204739Y-57127692D01*
X81204739Y-57103190D01*
X81203470Y-57090300D01*
X81206385Y-57060701D01*
X81206385Y-57060699D01*
X81215020Y-57032235D01*
X81215021Y-57032231D01*
X81229038Y-57006006D01*
X81238476Y-56994507D01*
X81247911Y-56983011D01*
X81247913Y-56983010D01*
X81247914Y-56983008D01*
X81273603Y-56961924D01*
X81290930Y-56944597D01*
X81304544Y-56924222D01*
X81313920Y-56901583D01*
X81318700Y-56877549D01*
X81318700Y-56853045D01*
X81313919Y-56829012D01*
X81304541Y-56806373D01*
X81290926Y-56785999D01*
X81273603Y-56768676D01*
X81247914Y-56747592D01*
X81247913Y-56747590D01*
X81247911Y-56747589D01*
X81238318Y-56735900D01*
X81229038Y-56724594D01*
X81215021Y-56698369D01*
X81212773Y-56690959D01*
X81206385Y-56669901D01*
X81203470Y-56640300D01*
X81206385Y-56610699D01*
X81215020Y-56582235D01*
X81215021Y-56582231D01*
X81229038Y-56556006D01*
X81238476Y-56544507D01*
X81247911Y-56533011D01*
X81247913Y-56533010D01*
X81247914Y-56533008D01*
X81273603Y-56511924D01*
X81290930Y-56494597D01*
X81304544Y-56474222D01*
X81313920Y-56451583D01*
X81318700Y-56427549D01*
X81318700Y-56403045D01*
X81313919Y-56379012D01*
X81304541Y-56356373D01*
X81290926Y-56335999D01*
X81273603Y-56318676D01*
X81247914Y-56297592D01*
X81247913Y-56297590D01*
X81247911Y-56297589D01*
X81238476Y-56286093D01*
X81229038Y-56274594D01*
X81215021Y-56248369D01*
X81212737Y-56240838D01*
X81206385Y-56219901D01*
X81203470Y-56190300D01*
X81206385Y-56160699D01*
X81215020Y-56132235D01*
X81215021Y-56132231D01*
X81229038Y-56106006D01*
X81238476Y-56094507D01*
X81247911Y-56083011D01*
X81247913Y-56083010D01*
X81247914Y-56083008D01*
X81273603Y-56061924D01*
X81290930Y-56044597D01*
X81304544Y-56024222D01*
X81313920Y-56001583D01*
X81318700Y-55977549D01*
X81318700Y-55953045D01*
X81313919Y-55929012D01*
X81304541Y-55906373D01*
X81290926Y-55885999D01*
X81273603Y-55868676D01*
X81247914Y-55847592D01*
X81247913Y-55847590D01*
X81247911Y-55847589D01*
X81238476Y-55836093D01*
X81229038Y-55824594D01*
X81215021Y-55798369D01*
X81212773Y-55790959D01*
X81206385Y-55769901D01*
X81203470Y-55740300D01*
X81206385Y-55710699D01*
X81215020Y-55682235D01*
X81215021Y-55682231D01*
X81229038Y-55656006D01*
X81238476Y-55644507D01*
X81247911Y-55633011D01*
X81247913Y-55633010D01*
X81247914Y-55633008D01*
X81273603Y-55611924D01*
X81290930Y-55594597D01*
X81304544Y-55574222D01*
X81313920Y-55551583D01*
X81318700Y-55527549D01*
X81318700Y-55503045D01*
X81313919Y-55479012D01*
X81304541Y-55456373D01*
X81290926Y-55435999D01*
X81273603Y-55418676D01*
X81247914Y-55397592D01*
X81247913Y-55397590D01*
X81247911Y-55397589D01*
X81231013Y-55377000D01*
X81229038Y-55374594D01*
X81215021Y-55348369D01*
X81212773Y-55340959D01*
X81206385Y-55319901D01*
X81203470Y-55290300D01*
X81206385Y-55260699D01*
X81215020Y-55232235D01*
X81215021Y-55232231D01*
X81229038Y-55206006D01*
X81245872Y-55185496D01*
X81247911Y-55183011D01*
X81247913Y-55183010D01*
X81247914Y-55183008D01*
X81273603Y-55161924D01*
X81290930Y-55144597D01*
X81304544Y-55124222D01*
X81313920Y-55101583D01*
X81318700Y-55077549D01*
X81318700Y-55053045D01*
X81313919Y-55029012D01*
X81304541Y-55006373D01*
X81290926Y-54985999D01*
X81273603Y-54968676D01*
X81247914Y-54947592D01*
X81247913Y-54947590D01*
X81247911Y-54947589D01*
X81238476Y-54936093D01*
X81229038Y-54924594D01*
X81215021Y-54898369D01*
X81212773Y-54890959D01*
X81206385Y-54869901D01*
X81203470Y-54840300D01*
X81206385Y-54810699D01*
X81215020Y-54782235D01*
X81215021Y-54782231D01*
X81229038Y-54756006D01*
X81238476Y-54744507D01*
X81247911Y-54733011D01*
X81247913Y-54733010D01*
X81247914Y-54733008D01*
X81273603Y-54711924D01*
X81290930Y-54694597D01*
X81304544Y-54674222D01*
X81313920Y-54651583D01*
X81318700Y-54627549D01*
X81318700Y-54603045D01*
X81313919Y-54579012D01*
X81304541Y-54556373D01*
X81290926Y-54535999D01*
X81273603Y-54518676D01*
X81247914Y-54497592D01*
X81247913Y-54497590D01*
X81247911Y-54497589D01*
X81238476Y-54486093D01*
X81229038Y-54474594D01*
X81215021Y-54448369D01*
X81212773Y-54440959D01*
X81206385Y-54419901D01*
X81203470Y-54390300D01*
X81204739Y-54377410D01*
X81204739Y-54352906D01*
X81199958Y-54328873D01*
X81190581Y-54306234D01*
X81176967Y-54285859D01*
X81159640Y-54268532D01*
X81139265Y-54254918D01*
X81116626Y-54245541D01*
X81092592Y-54240761D01*
X81068090Y-54240761D01*
X81055201Y-54242030D01*
X81055200Y-54242030D01*
X81025599Y-54239115D01*
X81004541Y-54232727D01*
X80997131Y-54230479D01*
X80970906Y-54216462D01*
X80959407Y-54207024D01*
X80947911Y-54197589D01*
X80947910Y-54197587D01*
X80947908Y-54197586D01*
X80926824Y-54171897D01*
X80909497Y-54154570D01*
X80889122Y-54140956D01*
X80866483Y-54131580D01*
X80842449Y-54126800D01*
X80817945Y-54126800D01*
X80793912Y-54131581D01*
X80771273Y-54140959D01*
X80750899Y-54154574D01*
X80733576Y-54171897D01*
X80712492Y-54197586D01*
X80712490Y-54197587D01*
X80712489Y-54197589D01*
X80704448Y-54204188D01*
X80689496Y-54216460D01*
X80672241Y-54225682D01*
X80663264Y-54230480D01*
X80634800Y-54239115D01*
X80605200Y-54242030D01*
X80605199Y-54242030D01*
X80592314Y-54240761D01*
X80575599Y-54239115D01*
X80554541Y-54232727D01*
X80547131Y-54230479D01*
X80520906Y-54216462D01*
X80509407Y-54207024D01*
X80497911Y-54197589D01*
X80497910Y-54197587D01*
X80497908Y-54197586D01*
X80476824Y-54171897D01*
X80459497Y-54154570D01*
X80439122Y-54140956D01*
X80416483Y-54131580D01*
X80392449Y-54126800D01*
X80367945Y-54126800D01*
X80343912Y-54131581D01*
X80321273Y-54140959D01*
X80300899Y-54154574D01*
X80283576Y-54171897D01*
X80262492Y-54197586D01*
X80262490Y-54197587D01*
X80262489Y-54197589D01*
X80254448Y-54204188D01*
X80239496Y-54216460D01*
X80222241Y-54225682D01*
X80213264Y-54230480D01*
X80184800Y-54239115D01*
X80155200Y-54242030D01*
X80155199Y-54242030D01*
X80142314Y-54240761D01*
X80125599Y-54239115D01*
X80104541Y-54232727D01*
X80097131Y-54230479D01*
X80070906Y-54216462D01*
X80059407Y-54207024D01*
X80047911Y-54197589D01*
X80047910Y-54197587D01*
X80047908Y-54197586D01*
X80026824Y-54171897D01*
X80009497Y-54154570D01*
X79989122Y-54140956D01*
X79966483Y-54131580D01*
X79942449Y-54126800D01*
X79917945Y-54126800D01*
X79893912Y-54131581D01*
X79871273Y-54140959D01*
X79850899Y-54154574D01*
X79833576Y-54171897D01*
X79812492Y-54197586D01*
X79812490Y-54197587D01*
X79812489Y-54197589D01*
X79804448Y-54204188D01*
X79789496Y-54216460D01*
X79772241Y-54225682D01*
X79763264Y-54230480D01*
X79734800Y-54239115D01*
X79705200Y-54242030D01*
X79705199Y-54242030D01*
X79692314Y-54240761D01*
X79675599Y-54239115D01*
X79654541Y-54232727D01*
X79647131Y-54230479D01*
X79620906Y-54216462D01*
X79609407Y-54207024D01*
X79597911Y-54197589D01*
X79597910Y-54197587D01*
X79597908Y-54197586D01*
X79576824Y-54171897D01*
X79559497Y-54154570D01*
X79539122Y-54140956D01*
X79516483Y-54131580D01*
X79492449Y-54126800D01*
X79467945Y-54126800D01*
X79443912Y-54131581D01*
X79421273Y-54140959D01*
X79400899Y-54154574D01*
X79383576Y-54171897D01*
X79362492Y-54197586D01*
X79362490Y-54197587D01*
X79362489Y-54197589D01*
X79354448Y-54204188D01*
X79339496Y-54216460D01*
X79322241Y-54225682D01*
X79313264Y-54230480D01*
X79284800Y-54239115D01*
X79255200Y-54242030D01*
X79255199Y-54242030D01*
X79242314Y-54240761D01*
X79225599Y-54239115D01*
X79204541Y-54232727D01*
X79197131Y-54230479D01*
X79170906Y-54216462D01*
X79159407Y-54207024D01*
X79147911Y-54197589D01*
X79147910Y-54197587D01*
X79147908Y-54197586D01*
X79126824Y-54171897D01*
X79109497Y-54154570D01*
X79089122Y-54140956D01*
X79066483Y-54131580D01*
X79042449Y-54126800D01*
X79017945Y-54126800D01*
X78993912Y-54131581D01*
X78971273Y-54140959D01*
X78950899Y-54154574D01*
X78933576Y-54171897D01*
X78912492Y-54197586D01*
X78912490Y-54197587D01*
X78912489Y-54197589D01*
X78904448Y-54204188D01*
X78889496Y-54216460D01*
X78872241Y-54225682D01*
X78863264Y-54230480D01*
X78834800Y-54239115D01*
X78805200Y-54242030D01*
X78805199Y-54242030D01*
X78792314Y-54240761D01*
X78775599Y-54239115D01*
X78754541Y-54232727D01*
X78747131Y-54230479D01*
X78720906Y-54216462D01*
X78709407Y-54207024D01*
X78697911Y-54197589D01*
X78697910Y-54197587D01*
X78697908Y-54197586D01*
X78676824Y-54171897D01*
X78659497Y-54154570D01*
X78639122Y-54140956D01*
X78616483Y-54131580D01*
X78592449Y-54126800D01*
X78567945Y-54126800D01*
X78543912Y-54131581D01*
X78521273Y-54140959D01*
X78500899Y-54154574D01*
X78483576Y-54171897D01*
X78462492Y-54197586D01*
X78462490Y-54197587D01*
X78462489Y-54197589D01*
X78454448Y-54204188D01*
X78439496Y-54216460D01*
X78422241Y-54225682D01*
X78413264Y-54230480D01*
X78384800Y-54239115D01*
X78355200Y-54242030D01*
X78355198Y-54242030D01*
X78342310Y-54240761D01*
X78317806Y-54240761D01*
X78293773Y-54245542D01*
X78271134Y-54254919D01*
X78250759Y-54268533D01*
X78233432Y-54285860D01*
X78219818Y-54306235D01*
X78210441Y-54328874D01*
X78205661Y-54352908D01*
X78205661Y-54377410D01*
X78206930Y-54390300D01*
X78204015Y-54419901D01*
X78197627Y-54440959D01*
X78195379Y-54448369D01*
X78181362Y-54474594D01*
X78171924Y-54486093D01*
X78162489Y-54497589D01*
X78162487Y-54497590D01*
X78162486Y-54497592D01*
X78136797Y-54518676D01*
X78119470Y-54536003D01*
X78105856Y-54556378D01*
X78096480Y-54579017D01*
X78091700Y-54603051D01*
X77418700Y-54603051D01*
X77418700Y-54603045D01*
X77413919Y-54579012D01*
X77404541Y-54556373D01*
X77390926Y-54535999D01*
X77373603Y-54518676D01*
X77347914Y-54497592D01*
X77347913Y-54497590D01*
X77347911Y-54497589D01*
X77338476Y-54486093D01*
X77329038Y-54474594D01*
X77315021Y-54448369D01*
X77312773Y-54440959D01*
X77306385Y-54419901D01*
X77303470Y-54390300D01*
X77306385Y-54360699D01*
X77315020Y-54332235D01*
X77315021Y-54332231D01*
X77329038Y-54306006D01*
X77347911Y-54283011D01*
X77370906Y-54264138D01*
X77397131Y-54250121D01*
X77412226Y-54245542D01*
X77425599Y-54241485D01*
X77440391Y-54240028D01*
X77447786Y-54239300D01*
X78062617Y-54239300D01*
X78068091Y-54239839D01*
X78092595Y-54239839D01*
X78116629Y-54235058D01*
X78139268Y-54225680D01*
X78159642Y-54212066D01*
X78176969Y-54194738D01*
X78190582Y-54174364D01*
X78199959Y-54151724D01*
X78204739Y-54127691D01*
X78204739Y-54103192D01*
X78204200Y-54097718D01*
X78204201Y-53482886D01*
X78206386Y-53460701D01*
X78206386Y-53460699D01*
X78215021Y-53432235D01*
X78215022Y-53432231D01*
X78229039Y-53406006D01*
X78247912Y-53383011D01*
X78270907Y-53364138D01*
X78297132Y-53350121D01*
X78304542Y-53347873D01*
X78325600Y-53341485D01*
X78355200Y-53338570D01*
X78355201Y-53338570D01*
X78365067Y-53339542D01*
X78365067Y-53339542D01*
G37*
G36*
X87307712Y-56858687D02*
X87397439Y-56885906D01*
X87480131Y-56930106D01*
X87552611Y-56989589D01*
X87612094Y-57062069D01*
X87656294Y-57144761D01*
X87683513Y-57234488D01*
X87692703Y-57327800D01*
X87683513Y-57421112D01*
X87656294Y-57510839D01*
X87612094Y-57593531D01*
X87552611Y-57666011D01*
X87480131Y-57725494D01*
X87397439Y-57769694D01*
X87307712Y-57796913D01*
X87237784Y-57803800D01*
X86041016Y-57803800D01*
X85971088Y-57796913D01*
X85881361Y-57769694D01*
X85798669Y-57725494D01*
X85726189Y-57666011D01*
X85666706Y-57593531D01*
X85622506Y-57510839D01*
X85595287Y-57421112D01*
X85586097Y-57327800D01*
X85595287Y-57234488D01*
X85622506Y-57144761D01*
X85666706Y-57062069D01*
X85726189Y-56989589D01*
X85798669Y-56930106D01*
X85881361Y-56885906D01*
X85971088Y-56858687D01*
X86041016Y-56851800D01*
X87237784Y-56851800D01*
X87307712Y-56858687D01*
X87307712Y-56858687D01*
G37*
G36*
X75502800Y-57487900D02*
X73950800Y-57487900D01*
X73950800Y-56735900D01*
X75502800Y-56735900D01*
X75502800Y-57487900D01*
X75502800Y-57487900D01*
G37*
G36*
X87307712Y-55588687D02*
X87397439Y-55615906D01*
X87480131Y-55660106D01*
X87552611Y-55719589D01*
X87612094Y-55792069D01*
X87656294Y-55874761D01*
X87683513Y-55964488D01*
X87692703Y-56057800D01*
X87683513Y-56151112D01*
X87656294Y-56240839D01*
X87612094Y-56323531D01*
X87552611Y-56396011D01*
X87480131Y-56455494D01*
X87397439Y-56499694D01*
X87307712Y-56526913D01*
X87237784Y-56533800D01*
X86041016Y-56533800D01*
X85971088Y-56526913D01*
X85881361Y-56499694D01*
X85798669Y-56455494D01*
X85726189Y-56396011D01*
X85666706Y-56323531D01*
X85622506Y-56240839D01*
X85595287Y-56151112D01*
X85586097Y-56057800D01*
X85595287Y-55964488D01*
X85622506Y-55874761D01*
X85666706Y-55792069D01*
X85726189Y-55719589D01*
X85798669Y-55660106D01*
X85881361Y-55615906D01*
X85971088Y-55588687D01*
X86041016Y-55581800D01*
X87237784Y-55581800D01*
X87307712Y-55588687D01*
X87307712Y-55588687D01*
G37*
G36*
X75502800Y-56129000D02*
X73950800Y-56129000D01*
X73950800Y-55377000D01*
X75502800Y-55377000D01*
X75502800Y-56129000D01*
X75502800Y-56129000D01*
G37*
G36*
X87307712Y-54318687D02*
X87397439Y-54345906D01*
X87480131Y-54390106D01*
X87552611Y-54449589D01*
X87612094Y-54522069D01*
X87656294Y-54604761D01*
X87683513Y-54694488D01*
X87692703Y-54787800D01*
X87683513Y-54881112D01*
X87656294Y-54970839D01*
X87612094Y-55053531D01*
X87552611Y-55126011D01*
X87480131Y-55185494D01*
X87397439Y-55229694D01*
X87307712Y-55256913D01*
X87237784Y-55263800D01*
X86041016Y-55263800D01*
X85971088Y-55256913D01*
X85881361Y-55229694D01*
X85798669Y-55185494D01*
X85726189Y-55126011D01*
X85666706Y-55053531D01*
X85622506Y-54970839D01*
X85595287Y-54881112D01*
X85586097Y-54787800D01*
X85595287Y-54694488D01*
X85622506Y-54604761D01*
X85666706Y-54522069D01*
X85726189Y-54449589D01*
X85798669Y-54390106D01*
X85881361Y-54345906D01*
X85971088Y-54318687D01*
X86041016Y-54311800D01*
X87237784Y-54311800D01*
X87307712Y-54318687D01*
X87307712Y-54318687D01*
G37*
G36*
X75490100Y-54770100D02*
X73938100Y-54770100D01*
X73938100Y-54018100D01*
X75490100Y-54018100D01*
X75490100Y-54770100D01*
X75490100Y-54770100D01*
G37*
G36*
X87307712Y-53048687D02*
X87397439Y-53075906D01*
X87480131Y-53120106D01*
X87552611Y-53179589D01*
X87612094Y-53252069D01*
X87656294Y-53334761D01*
X87683513Y-53424488D01*
X87692703Y-53517800D01*
X87683513Y-53611112D01*
X87656294Y-53700839D01*
X87612094Y-53783531D01*
X87552611Y-53856011D01*
X87480131Y-53915494D01*
X87397439Y-53959694D01*
X87307712Y-53986913D01*
X87237784Y-53993800D01*
X86041016Y-53993800D01*
X85971088Y-53986913D01*
X85881361Y-53959694D01*
X85798669Y-53915494D01*
X85726189Y-53856011D01*
X85666706Y-53783531D01*
X85622506Y-53700839D01*
X85595287Y-53611112D01*
X85586097Y-53517800D01*
X85595287Y-53424488D01*
X85622506Y-53334761D01*
X85666706Y-53252069D01*
X85726189Y-53179589D01*
X85798669Y-53120106D01*
X85881361Y-53075906D01*
X85971088Y-53048687D01*
X86041016Y-53041800D01*
X87237784Y-53041800D01*
X87307712Y-53048687D01*
X87307712Y-53048687D01*
G37*
G36*
X75502800Y-53411200D02*
X73950800Y-53411200D01*
X73950800Y-52659200D01*
X75502800Y-52659200D01*
X75502800Y-53411200D01*
X75502800Y-53411200D01*
G37*
G36*
X87307712Y-51778687D02*
X87397439Y-51805906D01*
X87480131Y-51850106D01*
X87552611Y-51909589D01*
X87612094Y-51982069D01*
X87656294Y-52064761D01*
X87683513Y-52154488D01*
X87692703Y-52247800D01*
X87683513Y-52341112D01*
X87656294Y-52430839D01*
X87612094Y-52513531D01*
X87552611Y-52586011D01*
X87480131Y-52645494D01*
X87397439Y-52689694D01*
X87307712Y-52716913D01*
X87237784Y-52723800D01*
X86041016Y-52723800D01*
X85971088Y-52716913D01*
X85881361Y-52689694D01*
X85798669Y-52645494D01*
X85726189Y-52586011D01*
X85666706Y-52513531D01*
X85622506Y-52430839D01*
X85595287Y-52341112D01*
X85586097Y-52247800D01*
X85595287Y-52154488D01*
X85622506Y-52064761D01*
X85666706Y-51982069D01*
X85726189Y-51909589D01*
X85798669Y-51850106D01*
X85881361Y-51805906D01*
X85971088Y-51778687D01*
X86041016Y-51771800D01*
X87237784Y-51771800D01*
X87307712Y-51778687D01*
X87307712Y-51778687D01*
G37*
G36*
X75490100Y-52026900D02*
X73938100Y-52026900D01*
X73938100Y-51274900D01*
X75490100Y-51274900D01*
X75490100Y-52026900D01*
X75490100Y-52026900D01*
G37*
G36*
X85032000Y-51922800D02*
X83780000Y-51922800D01*
X83780000Y-51170800D01*
X85032000Y-51170800D01*
X85032000Y-51922800D01*
X85032000Y-51922800D01*
G37*
G36*
X77877700Y-51595100D02*
X76325700Y-51595100D01*
X76325700Y-50843100D01*
X77877700Y-50843100D01*
X77877700Y-51595100D01*
X77877700Y-51595100D01*
G37*
G36*
X80151000Y-51582400D02*
X78599000Y-51582400D01*
X78599000Y-50830400D01*
X80151000Y-50830400D01*
X80151000Y-51582400D01*
X80151000Y-51582400D01*
G37*
G36*
X87307712Y-50508687D02*
X87397439Y-50535906D01*
X87480131Y-50580106D01*
X87552611Y-50639589D01*
X87612094Y-50712069D01*
X87656294Y-50794761D01*
X87683513Y-50884488D01*
X87692703Y-50977800D01*
X87683513Y-51071112D01*
X87656294Y-51160839D01*
X87612094Y-51243531D01*
X87552611Y-51316011D01*
X87480131Y-51375494D01*
X87397439Y-51419694D01*
X87307712Y-51446913D01*
X87237784Y-51453800D01*
X86041016Y-51453800D01*
X85971088Y-51446913D01*
X85881361Y-51419694D01*
X85798669Y-51375494D01*
X85726189Y-51316011D01*
X85666706Y-51243531D01*
X85622506Y-51160839D01*
X85595287Y-51071112D01*
X85586097Y-50977800D01*
X85595287Y-50884488D01*
X85622506Y-50794761D01*
X85666706Y-50712069D01*
X85726189Y-50639589D01*
X85798669Y-50580106D01*
X85881361Y-50535906D01*
X85971088Y-50508687D01*
X86041016Y-50501800D01*
X87237784Y-50501800D01*
X87307712Y-50508687D01*
X87307712Y-50508687D01*
G37*
G36*
X82082000Y-50972800D02*
X80830000Y-50972800D01*
X80830000Y-50220800D01*
X82082000Y-50220800D01*
X82082000Y-50972800D01*
X82082000Y-50972800D01*
G37*
G36*
X75311000Y-50401200D02*
X74279000Y-50401200D01*
X74279000Y-49319200D01*
X75311000Y-49319200D01*
X75311000Y-50401200D01*
X75311000Y-50401200D01*
G37*
G36*
X76851000Y-50401200D02*
X75819000Y-50401200D01*
X75819000Y-49319200D01*
X76851000Y-49319200D01*
X76851000Y-50401200D01*
X76851000Y-50401200D01*
G37*
G36*
X78625700Y-50401200D02*
X77593700Y-50401200D01*
X77593700Y-49319200D01*
X78625700Y-49319200D01*
X78625700Y-50401200D01*
X78625700Y-50401200D01*
G37*
G36*
X80165700Y-50401200D02*
X79133700Y-50401200D01*
X79133700Y-49319200D01*
X80165700Y-49319200D01*
X80165700Y-50401200D01*
X80165700Y-50401200D01*
G37*
G36*
X87307712Y-49238687D02*
X87397439Y-49265906D01*
X87480131Y-49310106D01*
X87552611Y-49369589D01*
X87612094Y-49442069D01*
X87656294Y-49524761D01*
X87683513Y-49614488D01*
X87692703Y-49707800D01*
X87683513Y-49801112D01*
X87656294Y-49890839D01*
X87612094Y-49973531D01*
X87552611Y-50046011D01*
X87480131Y-50105494D01*
X87397439Y-50149694D01*
X87307712Y-50176913D01*
X87237784Y-50183800D01*
X86041016Y-50183800D01*
X85971088Y-50176913D01*
X85881361Y-50149694D01*
X85798669Y-50105494D01*
X85726189Y-50046011D01*
X85666706Y-49973531D01*
X85622506Y-49890839D01*
X85595287Y-49801112D01*
X85586097Y-49707800D01*
X85595287Y-49614488D01*
X85622506Y-49524761D01*
X85666706Y-49442069D01*
X85726189Y-49369589D01*
X85798669Y-49310106D01*
X85881361Y-49265906D01*
X85971088Y-49238687D01*
X86041016Y-49231800D01*
X87237784Y-49231800D01*
X87307712Y-49238687D01*
X87307712Y-49238687D01*
G37*
G36*
X85032000Y-50022800D02*
X83780000Y-50022800D01*
X83780000Y-49270800D01*
X85032000Y-49270800D01*
X85032000Y-50022800D01*
X85032000Y-50022800D01*
G37*
G36*
X87307712Y-47968687D02*
X87397439Y-47995906D01*
X87480131Y-48040106D01*
X87552611Y-48099589D01*
X87612094Y-48172069D01*
X87656294Y-48254761D01*
X87683513Y-48344488D01*
X87692703Y-48437800D01*
X87683513Y-48531112D01*
X87656294Y-48620839D01*
X87612094Y-48703531D01*
X87552611Y-48776011D01*
X87480131Y-48835494D01*
X87397439Y-48879694D01*
X87307712Y-48906913D01*
X87237784Y-48913800D01*
X86041016Y-48913800D01*
X85971088Y-48906913D01*
X85881361Y-48879694D01*
X85798669Y-48835494D01*
X85726189Y-48776011D01*
X85666706Y-48703531D01*
X85622506Y-48620839D01*
X85595287Y-48531112D01*
X85586097Y-48437800D01*
X85595287Y-48344488D01*
X85622506Y-48254761D01*
X85666706Y-48172069D01*
X85726189Y-48099589D01*
X85798669Y-48040106D01*
X85881361Y-47995906D01*
X85971088Y-47968687D01*
X86041016Y-47961800D01*
X87237784Y-47961800D01*
X87307712Y-47968687D01*
X87307712Y-47968687D01*
G37*
G36*
X87307712Y-46698687D02*
X87397439Y-46725906D01*
X87480131Y-46770106D01*
X87552611Y-46829589D01*
X87612094Y-46902069D01*
X87656294Y-46984761D01*
X87683513Y-47074488D01*
X87692703Y-47167800D01*
X87683513Y-47261112D01*
X87656294Y-47350839D01*
X87612094Y-47433531D01*
X87552611Y-47506011D01*
X87480131Y-47565494D01*
X87397439Y-47609694D01*
X87307712Y-47636913D01*
X87237784Y-47643800D01*
X86041016Y-47643800D01*
X85971088Y-47636913D01*
X85881361Y-47609694D01*
X85798669Y-47565494D01*
X85726189Y-47506011D01*
X85666706Y-47433531D01*
X85622506Y-47350839D01*
X85595287Y-47261112D01*
X85586097Y-47167800D01*
X85595287Y-47074488D01*
X85622506Y-46984761D01*
X85666706Y-46902069D01*
X85726189Y-46829589D01*
X85798669Y-46770106D01*
X85881361Y-46725906D01*
X85971088Y-46698687D01*
X86041016Y-46691800D01*
X87237784Y-46691800D01*
X87307712Y-46698687D01*
X87307712Y-46698687D01*
G37*
M02*
