G04 #@! TF.GenerationSoftware,KiCad,Pcbnew,(5.0.2)-1*
G04 #@! TF.CreationDate,2019-07-28T22:14:27+08:00*
G04 #@! TF.ProjectId,NRF24M,4e524632-344d-42e6-9b69-6361645f7063,rev?*
G04 #@! TF.SameCoordinates,Original*
G04 #@! TF.FileFunction,Soldermask,Bot*
G04 #@! TF.FilePolarity,Negative*
%FSLAX46Y46*%
G04 Gerber Fmt 4.6, Leading zero omitted, Abs format (unit mm)*
G04 Created by KiCad (PCBNEW (5.0.2)-1) date 2019-07-28 22:14:27*
%MOMM*%
%LPD*%
G01*
G04 APERTURE LIST*
%ADD10C,0.150000*%
%ADD11C,0.100000*%
G04 APERTURE END LIST*
D10*
X81548343Y-48343264D02*
X81548343Y-47543264D01*
X81281677Y-48114693D01*
X81015010Y-47543264D01*
X81015010Y-48343264D01*
X80710248Y-47809931D02*
X80519772Y-48343264D01*
X80329296Y-47809931D02*
X80519772Y-48343264D01*
X80595962Y-48533740D01*
X80634058Y-48571836D01*
X80710248Y-48609931D01*
X80062629Y-48305169D02*
X79986439Y-48343264D01*
X79834058Y-48343264D01*
X79757867Y-48305169D01*
X79719772Y-48228979D01*
X79719772Y-48190883D01*
X79757867Y-48114693D01*
X79834058Y-48076598D01*
X79948343Y-48076598D01*
X80024534Y-48038502D01*
X80062629Y-47962312D01*
X80062629Y-47924217D01*
X80024534Y-47848026D01*
X79948343Y-47809931D01*
X79834058Y-47809931D01*
X79757867Y-47848026D01*
X79072153Y-48305169D02*
X79148343Y-48343264D01*
X79300724Y-48343264D01*
X79376915Y-48305169D01*
X79415010Y-48228979D01*
X79415010Y-47924217D01*
X79376915Y-47848026D01*
X79300724Y-47809931D01*
X79148343Y-47809931D01*
X79072153Y-47848026D01*
X79034058Y-47924217D01*
X79034058Y-48000407D01*
X79415010Y-48076598D01*
X78691200Y-47809931D02*
X78691200Y-48343264D01*
X78691200Y-47886121D02*
X78653105Y-47848026D01*
X78576915Y-47809931D01*
X78462629Y-47809931D01*
X78386439Y-47848026D01*
X78348343Y-47924217D01*
X78348343Y-48343264D01*
X78005486Y-48305169D02*
X77929296Y-48343264D01*
X77776915Y-48343264D01*
X77700724Y-48305169D01*
X77662629Y-48228979D01*
X77662629Y-48190883D01*
X77700724Y-48114693D01*
X77776915Y-48076598D01*
X77891200Y-48076598D01*
X77967391Y-48038502D01*
X78005486Y-47962312D01*
X78005486Y-47924217D01*
X77967391Y-47848026D01*
X77891200Y-47809931D01*
X77776915Y-47809931D01*
X77700724Y-47848026D01*
X77205486Y-48343264D02*
X77281677Y-48305169D01*
X77319772Y-48267074D01*
X77357867Y-48190883D01*
X77357867Y-47962312D01*
X77319772Y-47886121D01*
X77281677Y-47848026D01*
X77205486Y-47809931D01*
X77091200Y-47809931D01*
X77015010Y-47848026D01*
X76976915Y-47886121D01*
X76938820Y-47962312D01*
X76938820Y-48190883D01*
X76976915Y-48267074D01*
X77015010Y-48305169D01*
X77091200Y-48343264D01*
X77205486Y-48343264D01*
X76595962Y-48343264D02*
X76595962Y-47809931D01*
X76595962Y-47962312D02*
X76557867Y-47886121D01*
X76519772Y-47848026D01*
X76443581Y-47809931D01*
X76367391Y-47809931D01*
X76100724Y-48267074D02*
X76062629Y-48305169D01*
X76100724Y-48343264D01*
X76138820Y-48305169D01*
X76100724Y-48267074D01*
X76100724Y-48343264D01*
X75719772Y-47809931D02*
X75719772Y-48609931D01*
X75719772Y-47848026D02*
X75643581Y-47809931D01*
X75491200Y-47809931D01*
X75415010Y-47848026D01*
X75376915Y-47886121D01*
X75338820Y-47962312D01*
X75338820Y-48190883D01*
X75376915Y-48267074D01*
X75415010Y-48305169D01*
X75491200Y-48343264D01*
X75643581Y-48343264D01*
X75719772Y-48305169D01*
X74653105Y-47809931D02*
X74653105Y-48343264D01*
X74995962Y-47809931D02*
X74995962Y-48228979D01*
X74957867Y-48305169D01*
X74881677Y-48343264D01*
X74767391Y-48343264D01*
X74691200Y-48305169D01*
X74653105Y-48267074D01*
X74272153Y-48343264D02*
X74272153Y-47543264D01*
X74272153Y-47848026D02*
X74195962Y-47809931D01*
X74043581Y-47809931D01*
X73967391Y-47848026D01*
X73929296Y-47886121D01*
X73891200Y-47962312D01*
X73891200Y-48190883D01*
X73929296Y-48267074D01*
X73967391Y-48305169D01*
X74043581Y-48343264D01*
X74195962Y-48343264D01*
X74272153Y-48305169D01*
D11*
G36*
X76293312Y-60042887D02*
X76383039Y-60070106D01*
X76465731Y-60114306D01*
X76538211Y-60173789D01*
X76597694Y-60246269D01*
X76641894Y-60328961D01*
X76669113Y-60418688D01*
X76676000Y-60488616D01*
X76676000Y-61685384D01*
X76669113Y-61755312D01*
X76641894Y-61845039D01*
X76597694Y-61927731D01*
X76538211Y-62000211D01*
X76465731Y-62059694D01*
X76383038Y-62103894D01*
X76293311Y-62131113D01*
X76200000Y-62140303D01*
X76106688Y-62131113D01*
X76016961Y-62103894D01*
X75934269Y-62059694D01*
X75861789Y-62000211D01*
X75802306Y-61927731D01*
X75758106Y-61845038D01*
X75730887Y-61755311D01*
X75724000Y-61685383D01*
X75724001Y-60488616D01*
X75730888Y-60418688D01*
X75758107Y-60328961D01*
X75802307Y-60246269D01*
X75861790Y-60173789D01*
X75934270Y-60114306D01*
X76016962Y-60070106D01*
X76106689Y-60042887D01*
X76200000Y-60033697D01*
X76293312Y-60042887D01*
X76293312Y-60042887D01*
G37*
G36*
X77563312Y-60042887D02*
X77653039Y-60070106D01*
X77735731Y-60114306D01*
X77808211Y-60173789D01*
X77867694Y-60246269D01*
X77911894Y-60328961D01*
X77939113Y-60418688D01*
X77946000Y-60488616D01*
X77946000Y-61685384D01*
X77939113Y-61755312D01*
X77911894Y-61845039D01*
X77867694Y-61927731D01*
X77808211Y-62000211D01*
X77735731Y-62059694D01*
X77653038Y-62103894D01*
X77563311Y-62131113D01*
X77470000Y-62140303D01*
X77376688Y-62131113D01*
X77286961Y-62103894D01*
X77204269Y-62059694D01*
X77131789Y-62000211D01*
X77072306Y-61927731D01*
X77028106Y-61845038D01*
X77000887Y-61755311D01*
X76994000Y-61685383D01*
X76994001Y-60488616D01*
X77000888Y-60418688D01*
X77028107Y-60328961D01*
X77072307Y-60246269D01*
X77131790Y-60173789D01*
X77204270Y-60114306D01*
X77286962Y-60070106D01*
X77376689Y-60042887D01*
X77470000Y-60033697D01*
X77563312Y-60042887D01*
X77563312Y-60042887D01*
G37*
G36*
X78833312Y-60042887D02*
X78923039Y-60070106D01*
X79005731Y-60114306D01*
X79078211Y-60173789D01*
X79137694Y-60246269D01*
X79181894Y-60328961D01*
X79209113Y-60418688D01*
X79216000Y-60488616D01*
X79216000Y-61685384D01*
X79209113Y-61755312D01*
X79181894Y-61845039D01*
X79137694Y-61927731D01*
X79078211Y-62000211D01*
X79005731Y-62059694D01*
X78923038Y-62103894D01*
X78833311Y-62131113D01*
X78740000Y-62140303D01*
X78646688Y-62131113D01*
X78556961Y-62103894D01*
X78474269Y-62059694D01*
X78401789Y-62000211D01*
X78342306Y-61927731D01*
X78298106Y-61845038D01*
X78270887Y-61755311D01*
X78264000Y-61685383D01*
X78264001Y-60488616D01*
X78270888Y-60418688D01*
X78298107Y-60328961D01*
X78342307Y-60246269D01*
X78401790Y-60173789D01*
X78474270Y-60114306D01*
X78556962Y-60070106D01*
X78646689Y-60042887D01*
X78740000Y-60033697D01*
X78833312Y-60042887D01*
X78833312Y-60042887D01*
G37*
G36*
X80103312Y-60042887D02*
X80193039Y-60070106D01*
X80275731Y-60114306D01*
X80348211Y-60173789D01*
X80407694Y-60246269D01*
X80451894Y-60328961D01*
X80479113Y-60418688D01*
X80486000Y-60488616D01*
X80486000Y-61685384D01*
X80479113Y-61755312D01*
X80451894Y-61845039D01*
X80407694Y-61927731D01*
X80348211Y-62000211D01*
X80275731Y-62059694D01*
X80193038Y-62103894D01*
X80103311Y-62131113D01*
X80010000Y-62140303D01*
X79916688Y-62131113D01*
X79826961Y-62103894D01*
X79744269Y-62059694D01*
X79671789Y-62000211D01*
X79612306Y-61927731D01*
X79568106Y-61845038D01*
X79540887Y-61755311D01*
X79534000Y-61685383D01*
X79534001Y-60488616D01*
X79540888Y-60418688D01*
X79568107Y-60328961D01*
X79612307Y-60246269D01*
X79671790Y-60173789D01*
X79744270Y-60114306D01*
X79826962Y-60070106D01*
X79916689Y-60042887D01*
X80010000Y-60033697D01*
X80103312Y-60042887D01*
X80103312Y-60042887D01*
G37*
G36*
X81373312Y-60042887D02*
X81463039Y-60070106D01*
X81545731Y-60114306D01*
X81618211Y-60173789D01*
X81677694Y-60246269D01*
X81721894Y-60328961D01*
X81749113Y-60418688D01*
X81756000Y-60488616D01*
X81756000Y-61685384D01*
X81749113Y-61755312D01*
X81721894Y-61845039D01*
X81677694Y-61927731D01*
X81618211Y-62000211D01*
X81545731Y-62059694D01*
X81463038Y-62103894D01*
X81373311Y-62131113D01*
X81280000Y-62140303D01*
X81186688Y-62131113D01*
X81096961Y-62103894D01*
X81014269Y-62059694D01*
X80941789Y-62000211D01*
X80882306Y-61927731D01*
X80838106Y-61845038D01*
X80810887Y-61755311D01*
X80804000Y-61685383D01*
X80804001Y-60488616D01*
X80810888Y-60418688D01*
X80838107Y-60328961D01*
X80882307Y-60246269D01*
X80941790Y-60173789D01*
X81014270Y-60114306D01*
X81096962Y-60070106D01*
X81186689Y-60042887D01*
X81280000Y-60033697D01*
X81373312Y-60042887D01*
X81373312Y-60042887D01*
G37*
G36*
X82643312Y-60042887D02*
X82733039Y-60070106D01*
X82815731Y-60114306D01*
X82888211Y-60173789D01*
X82947694Y-60246269D01*
X82991894Y-60328961D01*
X83019113Y-60418688D01*
X83026000Y-60488616D01*
X83026000Y-61685384D01*
X83019113Y-61755312D01*
X82991894Y-61845039D01*
X82947694Y-61927731D01*
X82888211Y-62000211D01*
X82815731Y-62059694D01*
X82733038Y-62103894D01*
X82643311Y-62131113D01*
X82550000Y-62140303D01*
X82456688Y-62131113D01*
X82366961Y-62103894D01*
X82284269Y-62059694D01*
X82211789Y-62000211D01*
X82152306Y-61927731D01*
X82108106Y-61845038D01*
X82080887Y-61755311D01*
X82074000Y-61685383D01*
X82074001Y-60488616D01*
X82080888Y-60418688D01*
X82108107Y-60328961D01*
X82152307Y-60246269D01*
X82211790Y-60173789D01*
X82284270Y-60114306D01*
X82366962Y-60070106D01*
X82456689Y-60042887D01*
X82550000Y-60033697D01*
X82643312Y-60042887D01*
X82643312Y-60042887D01*
G37*
G36*
X83913312Y-60042887D02*
X84003039Y-60070106D01*
X84085731Y-60114306D01*
X84158211Y-60173789D01*
X84217694Y-60246269D01*
X84261894Y-60328961D01*
X84289113Y-60418688D01*
X84296000Y-60488616D01*
X84296000Y-61685384D01*
X84289113Y-61755312D01*
X84261894Y-61845039D01*
X84217694Y-61927731D01*
X84158211Y-62000211D01*
X84085731Y-62059694D01*
X84003038Y-62103894D01*
X83913311Y-62131113D01*
X83820000Y-62140303D01*
X83726688Y-62131113D01*
X83636961Y-62103894D01*
X83554269Y-62059694D01*
X83481789Y-62000211D01*
X83422306Y-61927731D01*
X83378106Y-61845038D01*
X83350887Y-61755311D01*
X83344000Y-61685383D01*
X83344001Y-60488616D01*
X83350888Y-60418688D01*
X83378107Y-60328961D01*
X83422307Y-60246269D01*
X83481790Y-60173789D01*
X83554270Y-60114306D01*
X83636962Y-60070106D01*
X83726689Y-60042887D01*
X83820000Y-60033697D01*
X83913312Y-60042887D01*
X83913312Y-60042887D01*
G37*
G36*
X75023312Y-60042887D02*
X75113039Y-60070106D01*
X75195731Y-60114306D01*
X75268211Y-60173789D01*
X75327694Y-60246269D01*
X75371894Y-60328961D01*
X75399113Y-60418688D01*
X75406000Y-60488616D01*
X75406000Y-61685384D01*
X75399113Y-61755312D01*
X75371894Y-61845039D01*
X75327694Y-61927731D01*
X75268211Y-62000211D01*
X75195731Y-62059694D01*
X75113038Y-62103894D01*
X75023311Y-62131113D01*
X74930000Y-62140303D01*
X74836688Y-62131113D01*
X74746961Y-62103894D01*
X74664269Y-62059694D01*
X74591789Y-62000211D01*
X74532306Y-61927731D01*
X74488106Y-61845038D01*
X74460887Y-61755311D01*
X74454000Y-61685383D01*
X74454001Y-60488616D01*
X74460888Y-60418688D01*
X74488107Y-60328961D01*
X74532307Y-60246269D01*
X74591790Y-60173789D01*
X74664270Y-60114306D01*
X74746962Y-60070106D01*
X74836689Y-60042887D01*
X74930000Y-60033697D01*
X75023312Y-60042887D01*
X75023312Y-60042887D01*
G37*
G36*
X87307712Y-60668687D02*
X87397439Y-60695906D01*
X87480131Y-60740106D01*
X87552611Y-60799589D01*
X87612094Y-60872069D01*
X87656294Y-60954761D01*
X87683513Y-61044488D01*
X87692703Y-61137800D01*
X87683513Y-61231112D01*
X87656294Y-61320839D01*
X87612094Y-61403531D01*
X87552611Y-61476011D01*
X87480131Y-61535494D01*
X87397439Y-61579694D01*
X87307712Y-61606913D01*
X87237784Y-61613800D01*
X86041016Y-61613800D01*
X85971088Y-61606913D01*
X85881361Y-61579694D01*
X85798669Y-61535494D01*
X85726189Y-61476011D01*
X85666706Y-61403531D01*
X85622506Y-61320839D01*
X85595287Y-61231112D01*
X85586097Y-61137800D01*
X85595287Y-61044488D01*
X85622506Y-60954761D01*
X85666706Y-60872069D01*
X85726189Y-60799589D01*
X85798669Y-60740106D01*
X85881361Y-60695906D01*
X85971088Y-60668687D01*
X86041016Y-60661800D01*
X87237784Y-60661800D01*
X87307712Y-60668687D01*
X87307712Y-60668687D01*
G37*
G36*
X87307712Y-59398687D02*
X87397439Y-59425906D01*
X87480131Y-59470106D01*
X87552611Y-59529589D01*
X87612094Y-59602069D01*
X87656294Y-59684761D01*
X87683513Y-59774488D01*
X87692703Y-59867800D01*
X87683513Y-59961112D01*
X87656294Y-60050839D01*
X87612094Y-60133531D01*
X87552611Y-60206011D01*
X87480131Y-60265494D01*
X87397439Y-60309694D01*
X87307712Y-60336913D01*
X87237784Y-60343800D01*
X86041016Y-60343800D01*
X85971088Y-60336913D01*
X85881361Y-60309694D01*
X85798669Y-60265494D01*
X85726189Y-60206011D01*
X85666706Y-60133531D01*
X85622506Y-60050839D01*
X85595287Y-59961112D01*
X85586097Y-59867800D01*
X85595287Y-59774488D01*
X85622506Y-59684761D01*
X85666706Y-59602069D01*
X85726189Y-59529589D01*
X85798669Y-59470106D01*
X85881361Y-59425906D01*
X85971088Y-59398687D01*
X86041016Y-59391800D01*
X87237784Y-59391800D01*
X87307712Y-59398687D01*
X87307712Y-59398687D01*
G37*
G36*
X87307712Y-58128687D02*
X87397439Y-58155906D01*
X87480131Y-58200106D01*
X87552611Y-58259589D01*
X87612094Y-58332069D01*
X87656294Y-58414761D01*
X87683513Y-58504488D01*
X87692703Y-58597800D01*
X87683513Y-58691112D01*
X87656294Y-58780839D01*
X87612094Y-58863531D01*
X87552611Y-58936011D01*
X87480131Y-58995494D01*
X87397439Y-59039694D01*
X87307712Y-59066913D01*
X87237784Y-59073800D01*
X86041016Y-59073800D01*
X85971088Y-59066913D01*
X85881361Y-59039694D01*
X85798669Y-58995494D01*
X85726189Y-58936011D01*
X85666706Y-58863531D01*
X85622506Y-58780839D01*
X85595287Y-58691112D01*
X85586097Y-58597800D01*
X85595287Y-58504488D01*
X85622506Y-58414761D01*
X85666706Y-58332069D01*
X85726189Y-58259589D01*
X85798669Y-58200106D01*
X85881361Y-58155906D01*
X85971088Y-58128687D01*
X86041016Y-58121800D01*
X87237784Y-58121800D01*
X87307712Y-58128687D01*
X87307712Y-58128687D01*
G37*
G36*
X87307712Y-56858687D02*
X87397439Y-56885906D01*
X87480131Y-56930106D01*
X87552611Y-56989589D01*
X87612094Y-57062069D01*
X87656294Y-57144761D01*
X87683513Y-57234488D01*
X87692703Y-57327800D01*
X87683513Y-57421112D01*
X87656294Y-57510839D01*
X87612094Y-57593531D01*
X87552611Y-57666011D01*
X87480131Y-57725494D01*
X87397439Y-57769694D01*
X87307712Y-57796913D01*
X87237784Y-57803800D01*
X86041016Y-57803800D01*
X85971088Y-57796913D01*
X85881361Y-57769694D01*
X85798669Y-57725494D01*
X85726189Y-57666011D01*
X85666706Y-57593531D01*
X85622506Y-57510839D01*
X85595287Y-57421112D01*
X85586097Y-57327800D01*
X85595287Y-57234488D01*
X85622506Y-57144761D01*
X85666706Y-57062069D01*
X85726189Y-56989589D01*
X85798669Y-56930106D01*
X85881361Y-56885906D01*
X85971088Y-56858687D01*
X86041016Y-56851800D01*
X87237784Y-56851800D01*
X87307712Y-56858687D01*
X87307712Y-56858687D01*
G37*
G36*
X87307712Y-55588687D02*
X87397439Y-55615906D01*
X87480131Y-55660106D01*
X87552611Y-55719589D01*
X87612094Y-55792069D01*
X87656294Y-55874761D01*
X87683513Y-55964488D01*
X87692703Y-56057800D01*
X87683513Y-56151112D01*
X87656294Y-56240839D01*
X87612094Y-56323531D01*
X87552611Y-56396011D01*
X87480131Y-56455494D01*
X87397439Y-56499694D01*
X87307712Y-56526913D01*
X87237784Y-56533800D01*
X86041016Y-56533800D01*
X85971088Y-56526913D01*
X85881361Y-56499694D01*
X85798669Y-56455494D01*
X85726189Y-56396011D01*
X85666706Y-56323531D01*
X85622506Y-56240839D01*
X85595287Y-56151112D01*
X85586097Y-56057800D01*
X85595287Y-55964488D01*
X85622506Y-55874761D01*
X85666706Y-55792069D01*
X85726189Y-55719589D01*
X85798669Y-55660106D01*
X85881361Y-55615906D01*
X85971088Y-55588687D01*
X86041016Y-55581800D01*
X87237784Y-55581800D01*
X87307712Y-55588687D01*
X87307712Y-55588687D01*
G37*
G36*
X87307712Y-54318687D02*
X87397439Y-54345906D01*
X87480131Y-54390106D01*
X87552611Y-54449589D01*
X87612094Y-54522069D01*
X87656294Y-54604761D01*
X87683513Y-54694488D01*
X87692703Y-54787800D01*
X87683513Y-54881112D01*
X87656294Y-54970839D01*
X87612094Y-55053531D01*
X87552611Y-55126011D01*
X87480131Y-55185494D01*
X87397439Y-55229694D01*
X87307712Y-55256913D01*
X87237784Y-55263800D01*
X86041016Y-55263800D01*
X85971088Y-55256913D01*
X85881361Y-55229694D01*
X85798669Y-55185494D01*
X85726189Y-55126011D01*
X85666706Y-55053531D01*
X85622506Y-54970839D01*
X85595287Y-54881112D01*
X85586097Y-54787800D01*
X85595287Y-54694488D01*
X85622506Y-54604761D01*
X85666706Y-54522069D01*
X85726189Y-54449589D01*
X85798669Y-54390106D01*
X85881361Y-54345906D01*
X85971088Y-54318687D01*
X86041016Y-54311800D01*
X87237784Y-54311800D01*
X87307712Y-54318687D01*
X87307712Y-54318687D01*
G37*
G36*
X87307712Y-53048687D02*
X87397439Y-53075906D01*
X87480131Y-53120106D01*
X87552611Y-53179589D01*
X87612094Y-53252069D01*
X87656294Y-53334761D01*
X87683513Y-53424488D01*
X87692703Y-53517800D01*
X87683513Y-53611112D01*
X87656294Y-53700839D01*
X87612094Y-53783531D01*
X87552611Y-53856011D01*
X87480131Y-53915494D01*
X87397439Y-53959694D01*
X87307712Y-53986913D01*
X87237784Y-53993800D01*
X86041016Y-53993800D01*
X85971088Y-53986913D01*
X85881361Y-53959694D01*
X85798669Y-53915494D01*
X85726189Y-53856011D01*
X85666706Y-53783531D01*
X85622506Y-53700839D01*
X85595287Y-53611112D01*
X85586097Y-53517800D01*
X85595287Y-53424488D01*
X85622506Y-53334761D01*
X85666706Y-53252069D01*
X85726189Y-53179589D01*
X85798669Y-53120106D01*
X85881361Y-53075906D01*
X85971088Y-53048687D01*
X86041016Y-53041800D01*
X87237784Y-53041800D01*
X87307712Y-53048687D01*
X87307712Y-53048687D01*
G37*
G36*
X87307712Y-51778687D02*
X87397439Y-51805906D01*
X87480131Y-51850106D01*
X87552611Y-51909589D01*
X87612094Y-51982069D01*
X87656294Y-52064761D01*
X87683513Y-52154488D01*
X87692703Y-52247800D01*
X87683513Y-52341112D01*
X87656294Y-52430839D01*
X87612094Y-52513531D01*
X87552611Y-52586011D01*
X87480131Y-52645494D01*
X87397439Y-52689694D01*
X87307712Y-52716913D01*
X87237784Y-52723800D01*
X86041016Y-52723800D01*
X85971088Y-52716913D01*
X85881361Y-52689694D01*
X85798669Y-52645494D01*
X85726189Y-52586011D01*
X85666706Y-52513531D01*
X85622506Y-52430839D01*
X85595287Y-52341112D01*
X85586097Y-52247800D01*
X85595287Y-52154488D01*
X85622506Y-52064761D01*
X85666706Y-51982069D01*
X85726189Y-51909589D01*
X85798669Y-51850106D01*
X85881361Y-51805906D01*
X85971088Y-51778687D01*
X86041016Y-51771800D01*
X87237784Y-51771800D01*
X87307712Y-51778687D01*
X87307712Y-51778687D01*
G37*
G36*
X87307712Y-50508687D02*
X87397439Y-50535906D01*
X87480131Y-50580106D01*
X87552611Y-50639589D01*
X87612094Y-50712069D01*
X87656294Y-50794761D01*
X87683513Y-50884488D01*
X87692703Y-50977800D01*
X87683513Y-51071112D01*
X87656294Y-51160839D01*
X87612094Y-51243531D01*
X87552611Y-51316011D01*
X87480131Y-51375494D01*
X87397439Y-51419694D01*
X87307712Y-51446913D01*
X87237784Y-51453800D01*
X86041016Y-51453800D01*
X85971088Y-51446913D01*
X85881361Y-51419694D01*
X85798669Y-51375494D01*
X85726189Y-51316011D01*
X85666706Y-51243531D01*
X85622506Y-51160839D01*
X85595287Y-51071112D01*
X85586097Y-50977800D01*
X85595287Y-50884488D01*
X85622506Y-50794761D01*
X85666706Y-50712069D01*
X85726189Y-50639589D01*
X85798669Y-50580106D01*
X85881361Y-50535906D01*
X85971088Y-50508687D01*
X86041016Y-50501800D01*
X87237784Y-50501800D01*
X87307712Y-50508687D01*
X87307712Y-50508687D01*
G37*
G36*
X87307712Y-49238687D02*
X87397439Y-49265906D01*
X87480131Y-49310106D01*
X87552611Y-49369589D01*
X87612094Y-49442069D01*
X87656294Y-49524761D01*
X87683513Y-49614488D01*
X87692703Y-49707800D01*
X87683513Y-49801112D01*
X87656294Y-49890839D01*
X87612094Y-49973531D01*
X87552611Y-50046011D01*
X87480131Y-50105494D01*
X87397439Y-50149694D01*
X87307712Y-50176913D01*
X87237784Y-50183800D01*
X86041016Y-50183800D01*
X85971088Y-50176913D01*
X85881361Y-50149694D01*
X85798669Y-50105494D01*
X85726189Y-50046011D01*
X85666706Y-49973531D01*
X85622506Y-49890839D01*
X85595287Y-49801112D01*
X85586097Y-49707800D01*
X85595287Y-49614488D01*
X85622506Y-49524761D01*
X85666706Y-49442069D01*
X85726189Y-49369589D01*
X85798669Y-49310106D01*
X85881361Y-49265906D01*
X85971088Y-49238687D01*
X86041016Y-49231800D01*
X87237784Y-49231800D01*
X87307712Y-49238687D01*
X87307712Y-49238687D01*
G37*
G36*
X87307712Y-47968687D02*
X87397439Y-47995906D01*
X87480131Y-48040106D01*
X87552611Y-48099589D01*
X87612094Y-48172069D01*
X87656294Y-48254761D01*
X87683513Y-48344488D01*
X87692703Y-48437800D01*
X87683513Y-48531112D01*
X87656294Y-48620839D01*
X87612094Y-48703531D01*
X87552611Y-48776011D01*
X87480131Y-48835494D01*
X87397439Y-48879694D01*
X87307712Y-48906913D01*
X87237784Y-48913800D01*
X86041016Y-48913800D01*
X85971088Y-48906913D01*
X85881361Y-48879694D01*
X85798669Y-48835494D01*
X85726189Y-48776011D01*
X85666706Y-48703531D01*
X85622506Y-48620839D01*
X85595287Y-48531112D01*
X85586097Y-48437800D01*
X85595287Y-48344488D01*
X85622506Y-48254761D01*
X85666706Y-48172069D01*
X85726189Y-48099589D01*
X85798669Y-48040106D01*
X85881361Y-47995906D01*
X85971088Y-47968687D01*
X86041016Y-47961800D01*
X87237784Y-47961800D01*
X87307712Y-47968687D01*
X87307712Y-47968687D01*
G37*
G36*
X87307712Y-46698687D02*
X87397439Y-46725906D01*
X87480131Y-46770106D01*
X87552611Y-46829589D01*
X87612094Y-46902069D01*
X87656294Y-46984761D01*
X87683513Y-47074488D01*
X87692703Y-47167800D01*
X87683513Y-47261112D01*
X87656294Y-47350839D01*
X87612094Y-47433531D01*
X87552611Y-47506011D01*
X87480131Y-47565494D01*
X87397439Y-47609694D01*
X87307712Y-47636913D01*
X87237784Y-47643800D01*
X86041016Y-47643800D01*
X85971088Y-47636913D01*
X85881361Y-47609694D01*
X85798669Y-47565494D01*
X85726189Y-47506011D01*
X85666706Y-47433531D01*
X85622506Y-47350839D01*
X85595287Y-47261112D01*
X85586097Y-47167800D01*
X85595287Y-47074488D01*
X85622506Y-46984761D01*
X85666706Y-46902069D01*
X85726189Y-46829589D01*
X85798669Y-46770106D01*
X85881361Y-46725906D01*
X85971088Y-46698687D01*
X86041016Y-46691800D01*
X87237784Y-46691800D01*
X87307712Y-46698687D01*
X87307712Y-46698687D01*
G37*
M02*
